<?xml version="1.0" encoding="UTF-8" standalone="no"?>
<!DOCTYPE svg PUBLIC "-//W3C//DTD SVG 1.1//EN"
 "http://www.w3.org/Graphics/SVG/1.1/DTD/svg11.dtd">
<!-- Generated by graphviz version 14.1.5 (20260411.2331)
 -->
<!-- Title: AlgoB Pages: 1 -->
<svg width="864pt" height="2688pt"
 viewBox="0.00 0.00 864.00 2688.00" xmlns="http://www.w3.org/2000/svg" xmlns:xlink="http://www.w3.org/1999/xlink">
<g id="graph0" class="graph" transform="scale(1 1) rotate(0) translate(50.4 2638.03)">
<title>AlgoB</title>
<polygon fill="#0f1117" stroke="none" points="-50.4,50.4 -50.4,-2638.03 813.57,-2638.03 813.57,50.4 -50.4,50.4"/>
<text xml:space="preserve" text-anchor="middle" x="381.59" y="-2547.48" font-family="Arial" font-size="17.00" fill="#e2e8f0">АЛГОРИТМ B — КЛАССИФИКАТОР СЛЕПЫХ ЗОН</text>
<text xml:space="preserve" text-anchor="middle" x="381.59" y="-2527.98" font-family="Arial" font-size="17.00" fill="#e2e8f0">(Диаграмма 5 из 9)</text>
<!-- start -->
<g id="node1" class="node">
<title>start</title>
<ellipse fill="#2e1065" stroke="#7c3aed" cx="198.71" cy="-2451.24" rx="50.68" ry="21.76"/>
<text xml:space="preserve" text-anchor="middle" x="198.71" y="-2447.54" font-family="Arial" font-size="11.00" fill="#c4b5fd">НАЧАЛО</text>
</g>
<!-- in_trips -->
<g id="node2" class="node">
<title>in_trips</title>
<path fill="#3b0764" stroke="#7c3aed" d="M383.1,-2332.85C383.1,-2332.85 94.7,-2332.85 94.7,-2332.85 88.7,-2332.85 78.66,-2328.41 74.63,-2323.97 74.63,-2323.97 10.4,-2253.18 10.4,-2253.18 6.36,-2248.74 8.33,-2244.29 14.33,-2244.29 14.33,-2244.29 302.73,-2244.29 302.73,-2244.29 308.73,-2244.29 318.76,-2248.74 322.8,-2253.18 322.8,-2253.18 387.03,-2323.97 387.03,-2323.97 391.06,-2328.41 389.1,-2332.85 383.1,-2332.85"/>
<text xml:space="preserve" text-anchor="middle" x="198.71" y="-2291.62" font-family="Arial" font-size="11.00" fill="#c4b5fd">trips.geojson</text>
<text xml:space="preserve" text-anchor="middle" x="198.71" y="-2278.12" font-family="Arial" font-size="11.00" fill="#c4b5fd">500 поездок, 365 925 GPS&#45;точек</text>
</g>
<!-- start&#45;&gt;in_trips -->
<g id="edge1" class="edge">
<title>start&#45;&gt;in_trips</title>
<path fill="none" stroke="#94a3b8" stroke-width="1.5" d="M198.71,-2429.24C198.71,-2407.55 198.71,-2372.84 198.71,-2343.44"/>
<polygon fill="#94a3b8" stroke="#94a3b8" stroke-width="1.5" points="201.51,-2343.57 198.71,-2335.57 195.91,-2343.57 201.51,-2343.57"/>
</g>
<!-- ph1 -->
<g id="node4" class="node">
<title>ph1</title>
<polygon fill="#1e1065" stroke="#4338ca" points="325.67,-2195.29 71.75,-2195.29 71.75,-2159.29 325.67,-2159.29 325.67,-2195.29"/>
<text xml:space="preserve" text-anchor="middle" x="198.71" y="-2173.59" font-family="Arial" font-size="11.00" fill="#a5b4fc">ФАЗ 1: ПОСТРОЕНИЕ КАРТЫ ПЛОТНОСТИ</text>
</g>
<!-- in_trips&#45;&gt;ph1 -->
<g id="edge2" class="edge">
<title>in_trips&#45;&gt;ph1</title>
<path fill="none" stroke="#94a3b8" stroke-width="1.5" d="M198.71,-2244.07C198.71,-2231.13 198.71,-2217.32 198.71,-2205.71"/>
<polygon fill="#94a3b8" stroke="#94a3b8" stroke-width="1.5" points="201.51,-2206.02 198.71,-2198.02 195.91,-2206.02 201.51,-2206.02"/>
</g>
<!-- in_osm -->
<g id="node3" class="node">
<title>in_osm</title>
<path fill="#374151" stroke="#6b7280" d="M505.42,-1274.81C505.42,-1278.8 479.11,-1282.04 446.71,-1282.04 414.32,-1282.04 388,-1278.8 388,-1274.81 388,-1274.81 388,-1209.81 388,-1209.81 388,-1205.82 414.32,-1202.59 446.71,-1202.59 479.11,-1202.59 505.42,-1205.82 505.42,-1209.81 505.42,-1209.81 505.42,-1274.81 505.42,-1274.81"/>
<path fill="none" stroke="#6b7280" d="M505.42,-1274.81C505.42,-1270.83 479.11,-1267.59 446.71,-1267.59 414.32,-1267.59 388,-1270.83 388,-1274.81"/>
<text xml:space="preserve" text-anchor="middle" x="446.71" y="-1252.11" font-family="Arial" font-size="11.00" fill="#f9fafb">minsk.graphml</text>
<text xml:space="preserve" text-anchor="middle" x="446.71" y="-1238.61" font-family="Arial" font-size="11.00" fill="#f9fafb">(OSM граф дорог)</text>
<text xml:space="preserve" text-anchor="middle" x="446.71" y="-1225.11" font-family="Arial" font-size="11.00" fill="#f9fafb">13 696 рёбер</text>
</g>
<!-- load_edges -->
<g id="node13" class="node">
<title>load_edges</title>
<ellipse fill="#374151" stroke="#6b7280" cx="322.71" cy="-1103.19" rx="152.5" ry="50.4"/>
<text xml:space="preserve" text-anchor="middle" x="322.71" y="-1119.74" font-family="Arial" font-size="11.00" fill="#f9fafb">edges_gdf ← ox.graph_to_gdfs(G)</text>
<text xml:space="preserve" text-anchor="middle" x="322.71" y="-1106.24" font-family="Arial" font-size="11.00" fill="#f9fafb">Парсинг: maxspeed → maxspeed_kmh</text>
<text xml:space="preserve" text-anchor="middle" x="322.71" y="-1092.74" font-family="Arial" font-size="11.00" fill="#f9fafb">highway → conflict_weight</text>
<text xml:space="preserve" text-anchor="middle" x="322.71" y="-1079.24" font-family="Arial" font-size="11.00" fill="#f9fafb">cycleway:* → has_infra</text>
</g>
<!-- in_osm&#45;&gt;load_edges -->
<g id="edge10" class="edge">
<title>in_osm&#45;&gt;load_edges</title>
<path fill="none" stroke="#94a3b8" stroke-width="1.5" d="M411.84,-1202.75C399.7,-1189.33 385.84,-1173.99 372.72,-1159.48"/>
<polygon fill="#94a3b8" stroke="#94a3b8" stroke-width="1.5" points="374.9,-1157.72 367.46,-1153.66 370.75,-1161.48 374.9,-1157.72"/>
</g>
<!-- loop_trips -->
<g id="node5" class="node">
<title>loop_trips</title>
<path fill="#312e81" stroke="#6366f1" d="M251.42,-2110.29C251.42,-2110.29 146,-2110.29 146,-2110.29 140,-2110.29 134,-2104.29 134,-2098.29 134,-2098.29 134,-2078.01 134,-2078.01 134,-2072.01 140,-2066.01 146,-2066.01 146,-2066.01 251.42,-2066.01 251.42,-2066.01 257.42,-2066.01 263.42,-2072.01 263.42,-2078.01 263.42,-2078.01 263.42,-2098.29 263.42,-2098.29 263.42,-2104.29 257.42,-2110.29 251.42,-2110.29"/>
<text xml:space="preserve" text-anchor="middle" x="198.71" y="-2091.2" font-family="Arial" font-size="11.00" fill="#c7d2fe">Для каждой поездки</text>
<text xml:space="preserve" text-anchor="middle" x="198.71" y="-2077.7" font-family="Arial" font-size="11.00" fill="#c7d2fe">∀ GPS&#45;точки p:</text>
</g>
<!-- ph1&#45;&gt;loop_trips -->
<g id="edge3" class="edge">
<title>ph1&#45;&gt;loop_trips</title>
<path fill="none" stroke="#94a3b8" stroke-width="1.5" d="M198.71,-2159.08C198.71,-2148.12 198.71,-2133.6 198.71,-2120.63"/>
<polygon fill="#94a3b8" stroke="#94a3b8" stroke-width="1.5" points="201.51,-2120.93 198.71,-2112.93 195.91,-2120.93 201.51,-2120.93"/>
</g>
<!-- h3cell -->
<g id="node6" class="node">
<title>h3cell</title>
<ellipse fill="#3730a3" stroke="#818cf8" cx="198.71" cy="-1976.16" rx="104.77" ry="40.86"/>
<text xml:space="preserve" text-anchor="middle" x="198.71" y="-1985.96" font-family="Arial" font-size="11.00" fill="#e0e7ff">cell ← H3.latlng_to_cell</text>
<text xml:space="preserve" text-anchor="middle" x="198.71" y="-1972.46" font-family="Arial" font-size="11.00" fill="#e0e7ff">(p.lat, p.lon, resolution=9)</text>
<text xml:space="preserve" text-anchor="middle" x="198.71" y="-1958.96" font-family="Arial" font-size="11.00" fill="#e0e7ff">density[cell] += 1</text>
</g>
<!-- loop_trips&#45;&gt;h3cell -->
<g id="edge4" class="edge">
<title>loop_trips&#45;&gt;h3cell</title>
<path fill="none" stroke="#94a3b8" stroke-width="1.5" d="M198.71,-2065.69C198.71,-2054.72 198.71,-2040.89 198.71,-2027.44"/>
<polygon fill="#94a3b8" stroke="#94a3b8" stroke-width="1.5" points="201.51,-2027.55 198.71,-2019.55 195.91,-2027.55 201.51,-2027.55"/>
</g>
<!-- density_result -->
<g id="node7" class="node">
<title>density_result</title>
<path fill="#312e81" stroke="#6366f1" d="M385.43,-1886.3C385.43,-1886.3 93.32,-1886.3 93.32,-1886.3 87.32,-1886.3 77.87,-1881.39 74.41,-1876.49 74.41,-1876.49 6.91,-1780.56 6.91,-1780.56 3.45,-1775.65 6,-1770.74 12,-1770.74 12,-1770.74 304.11,-1770.74 304.11,-1770.74 310.11,-1770.74 319.56,-1775.65 323.02,-1780.56 323.02,-1780.56 390.52,-1876.49 390.52,-1876.49 393.98,-1881.39 391.43,-1886.3 385.43,-1886.3"/>
<text xml:space="preserve" text-anchor="middle" x="198.71" y="-1838.32" font-family="Arial" font-size="11.00" fill="#c7d2fe">density: Dict[h3_cell → visit_count]</text>
<text xml:space="preserve" text-anchor="middle" x="198.71" y="-1824.82" font-family="Arial" font-size="11.00" fill="#c7d2fe">1 473 уникальных ячеек</text>
<text xml:space="preserve" text-anchor="middle" x="198.71" y="-1811.32" font-family="Arial" font-size="11.00" fill="#c7d2fe">Maximum: 2 469 визитов</text>
</g>
<!-- h3cell&#45;&gt;density_result -->
<g id="edge5" class="edge">
<title>h3cell&#45;&gt;density_result</title>
<path fill="none" stroke="#94a3b8" stroke-width="1.5" d="M198.71,-1934.98C198.71,-1923.1 198.71,-1909.77 198.71,-1896.68"/>
<polygon fill="#94a3b8" stroke="#94a3b8" stroke-width="1.5" points="201.51,-1897.01 198.71,-1889.01 195.91,-1897.01 201.51,-1897.01"/>
</g>
<!-- ph2 -->
<g id="node8" class="node">
<title>ph2</title>
<polygon fill="#1e1065" stroke="#4338ca" points="289.3,-1721.74 108.13,-1721.74 108.13,-1685.74 289.3,-1685.74 289.3,-1721.74"/>
<text xml:space="preserve" text-anchor="middle" x="198.71" y="-1700.04" font-family="Arial" font-size="11.00" fill="#a5b4fc">ФАЗ 2: ФИЛЬТРАЦИЯ ПО P75</text>
</g>
<!-- density_result&#45;&gt;ph2 -->
<g id="edge6" class="edge">
<title>density_result&#45;&gt;ph2</title>
<path fill="none" stroke="#94a3b8" stroke-width="1.5" d="M198.71,-1770.45C198.71,-1757.16 198.71,-1743.6 198.71,-1732.28"/>
<polygon fill="#94a3b8" stroke="#94a3b8" stroke-width="1.5" points="201.51,-1732.46 198.71,-1724.46 195.91,-1732.46 201.51,-1732.46"/>
</g>
<!-- p75 -->
<g id="node9" class="node">
<title>p75</title>
<ellipse fill="#3730a3" stroke="#818cf8" cx="198.71" cy="-1605.43" rx="165.23" ry="31.31"/>
<text xml:space="preserve" text-anchor="middle" x="198.71" y="-1608.48" font-family="Arial" font-size="11.00" fill="#e0e7ff">threshold ← percentile(density.values(), 75)</text>
<text xml:space="preserve" text-anchor="middle" x="198.71" y="-1594.98" font-family="Arial" font-size="11.00" fill="#e0e7ff">threshold = 334 визита</text>
</g>
<!-- ph2&#45;&gt;p75 -->
<g id="edge7" class="edge">
<title>ph2&#45;&gt;p75</title>
<path fill="none" stroke="#94a3b8" stroke-width="1.5" d="M198.71,-1685.52C198.71,-1674.83 198.71,-1660.61 198.71,-1647.18"/>
<polygon fill="#94a3b8" stroke="#94a3b8" stroke-width="1.5" points="201.51,-1647.4 198.71,-1639.4 195.91,-1647.4 201.51,-1647.4"/>
</g>
<!-- filter_cells -->
<g id="node10" class="node">
<title>filter_cells</title>
<path fill="#3730a3" stroke="#818cf8" d="M282.17,-1525.12C282.17,-1525.12 115.25,-1525.12 115.25,-1525.12 109.25,-1525.12 103.25,-1519.12 103.25,-1513.12 103.25,-1513.12 103.25,-1492.84 103.25,-1492.84 103.25,-1486.84 109.25,-1480.84 115.25,-1480.84 115.25,-1480.84 282.17,-1480.84 282.17,-1480.84 288.17,-1480.84 294.17,-1486.84 294.17,-1492.84 294.17,-1492.84 294.17,-1513.12 294.17,-1513.12 294.17,-1519.12 288.17,-1525.12 282.17,-1525.12"/>
<text xml:space="preserve" text-anchor="middle" x="198.71" y="-1506.03" font-family="Arial" font-size="11.00" fill="#e0e7ff">candidates ← {c: d | d ≥ threshold}</text>
<text xml:space="preserve" text-anchor="middle" x="198.71" y="-1492.53" font-family="Arial" font-size="11.00" fill="#e0e7ff">369 высоконагруженных ячеек</text>
</g>
<!-- p75&#45;&gt;filter_cells -->
<g id="edge8" class="edge">
<title>p75&#45;&gt;filter_cells</title>
<path fill="none" stroke="#94a3b8" stroke-width="1.5" d="M198.71,-1573.75C198.71,-1561.7 198.71,-1547.87 198.71,-1535.72"/>
<polygon fill="#94a3b8" stroke="#94a3b8" stroke-width="1.5" points="201.51,-1535.83 198.71,-1527.83 195.91,-1535.83 201.51,-1535.83"/>
</g>
<!-- build_gdf -->
<g id="node11" class="node">
<title>build_gdf</title>
<ellipse fill="#312e81" stroke="#6366f1" cx="198.71" cy="-1381.44" rx="164.17" ry="50.4"/>
<text xml:space="preserve" text-anchor="middle" x="198.71" y="-1397.99" font-family="Arial" font-size="11.00" fill="#c7d2fe">hex_gdf ← GeoDataFrame(</text>
<text xml:space="preserve" text-anchor="middle" x="198.71" y="-1384.49" font-family="Arial" font-size="11.00" fill="#c7d2fe"> &#160;[H3.cell_to_polygon(c) for c in candidates]</text>
<text xml:space="preserve" text-anchor="middle" x="198.71" y="-1370.99" font-family="Arial" font-size="11.00" fill="#c7d2fe">)</text>
<text xml:space="preserve" text-anchor="middle" x="198.71" y="-1357.49" font-family="Arial" font-size="11.00" fill="#c7d2fe">CRS: EPSG:4326</text>
</g>
<!-- filter_cells&#45;&gt;build_gdf -->
<g id="edge9" class="edge">
<title>filter_cells&#45;&gt;build_gdf</title>
<path fill="none" stroke="#94a3b8" stroke-width="1.5" d="M198.71,-1480.61C198.71,-1469.75 198.71,-1455.95 198.71,-1442.16"/>
<polygon fill="#94a3b8" stroke="#94a3b8" stroke-width="1.5" points="201.51,-1442.43 198.71,-1434.43 195.91,-1442.43 201.51,-1442.43"/>
</g>
<!-- ph3 -->
<g id="node12" class="node">
<title>ph3</title>
<polygon fill="#1e1065" stroke="#4338ca" points="351.55,-1260.31 45.88,-1260.31 45.88,-1224.31 351.55,-1224.31 351.55,-1260.31"/>
<text xml:space="preserve" text-anchor="middle" x="198.71" y="-1238.61" font-family="Arial" font-size="11.00" fill="#a5b4fc">ФАЗ 3: ПРОСТРАНСТВЕННОЕ СОЕДИНЕНИЕ С OSM</text>
</g>
<!-- build_gdf&#45;&gt;ph3 -->
<g id="edge11" class="edge">
<title>build_gdf&#45;&gt;ph3</title>
<path fill="none" stroke="#94a3b8" stroke-width="1.5" d="M198.71,-1330.54C198.71,-1310.25 198.71,-1287.6 198.71,-1270.46"/>
<polygon fill="#94a3b8" stroke="#94a3b8" stroke-width="1.5" points="201.51,-1270.84 198.71,-1262.84 195.91,-1270.84 201.51,-1270.84"/>
</g>
<!-- ph3&#45;&gt;load_edges -->
<g id="edge12" class="edge">
<title>ph3&#45;&gt;load_edges</title>
<path fill="none" stroke="#94a3b8" stroke-width="1.5" d="M214.42,-1223.94C229.18,-1207.62 252.07,-1182.31 273.01,-1159.15"/>
<polygon fill="#94a3b8" stroke="#94a3b8" stroke-width="1.5" points="274.92,-1161.21 278.21,-1153.4 270.77,-1157.46 274.92,-1161.21"/>
</g>
<!-- sjoin -->
<g id="node14" class="node">
<title>sjoin</title>
<ellipse fill="#3730a3" stroke="#818cf8" cx="322.71" cy="-943.83" rx="94.17" ry="59.95"/>
<text xml:space="preserve" text-anchor="middle" x="322.71" y="-967.13" font-family="Arial" font-size="11.00" fill="#e0e7ff">joined ← gpd.sjoin(</text>
<text xml:space="preserve" text-anchor="middle" x="322.71" y="-953.63" font-family="Arial" font-size="11.00" fill="#e0e7ff"> &#160;hex_gdf, edges_gdf,</text>
<text xml:space="preserve" text-anchor="middle" x="322.71" y="-940.13" font-family="Arial" font-size="11.00" fill="#e0e7ff"> &#160;how=&#39;left&#39;,</text>
<text xml:space="preserve" text-anchor="middle" x="322.71" y="-926.63" font-family="Arial" font-size="11.00" fill="#e0e7ff"> &#160;predicate=&#39;intersects&#39;</text>
<text xml:space="preserve" text-anchor="middle" x="322.71" y="-913.13" font-family="Arial" font-size="11.00" fill="#e0e7ff">)</text>
</g>
<!-- load_edges&#45;&gt;sjoin -->
<g id="edge13" class="edge">
<title>load_edges&#45;&gt;sjoin</title>
<path fill="none" stroke="#94a3b8" stroke-width="1.5" d="M322.71,-1052.4C322.71,-1040.32 322.71,-1027.19 322.71,-1014.38"/>
<polygon fill="#94a3b8" stroke="#94a3b8" stroke-width="1.5" points="325.51,-1014.48 322.71,-1006.48 319.91,-1014.48 325.51,-1014.48"/>
</g>
<!-- ph4 -->
<g id="node15" class="node">
<title>ph4</title>
<polygon fill="#1e1065" stroke="#4338ca" points="459.42,-834.89 186,-834.89 186,-798.89 459.42,-798.89 459.42,-834.89"/>
<text xml:space="preserve" text-anchor="middle" x="322.71" y="-813.19" font-family="Arial" font-size="11.00" fill="#a5b4fc">ФАЗ 4: КЛАССИФИКАЦИЯ И РАНЖИРОВАНИЕ</text>
</g>
<!-- sjoin&#45;&gt;ph4 -->
<g id="edge14" class="edge">
<title>sjoin&#45;&gt;ph4</title>
<path fill="none" stroke="#94a3b8" stroke-width="1.5" d="M322.71,-883.65C322.71,-870.27 322.71,-856.68 322.71,-845.36"/>
<polygon fill="#94a3b8" stroke="#94a3b8" stroke-width="1.5" points="325.51,-845.55 322.71,-837.55 319.91,-845.55 325.51,-845.55"/>
</g>
<!-- agg -->
<g id="node16" class="node">
<title>agg</title>
<ellipse fill="#5b21b6" stroke="#a78bfa" cx="322.71" cy="-709.03" rx="186.44" ry="40.86"/>
<text xml:space="preserve" text-anchor="middle" x="322.71" y="-718.83" font-family="Arial" font-size="11.00" fill="#ede9fe">Для каждой ячейки c в joined.groupby(&#39;h3_cell&#39;):</text>
<text xml:space="preserve" text-anchor="middle" x="322.71" y="-705.33" font-family="Arial" font-size="11.00" fill="#ede9fe"> &#160;infra_score ← any(has_infra)</text>
<text xml:space="preserve" text-anchor="middle" x="322.71" y="-691.83" font-family="Arial" font-size="11.00" fill="#ede9fe"> &#160;dom_weight ← max(conflict_weight)</text>
</g>
<!-- ph4&#45;&gt;agg -->
<g id="edge15" class="edge">
<title>ph4&#45;&gt;agg</title>
<path fill="none" stroke="#94a3b8" stroke-width="1.5" d="M322.71,-798.41C322.71,-787.82 322.71,-773.74 322.71,-759.93"/>
<polygon fill="#94a3b8" stroke="#94a3b8" stroke-width="1.5" points="325.51,-760.24 322.71,-752.24 319.91,-760.24 325.51,-760.24"/>
</g>
<!-- severity -->
<g id="node17" class="node">
<title>severity</title>
<ellipse fill="#5b21b6" stroke="#a78bfa" cx="322.71" cy="-587.86" rx="145.61" ry="31.31"/>
<text xml:space="preserve" text-anchor="middle" x="322.71" y="-590.91" font-family="Arial" font-size="11.00" fill="#ede9fe">severity(c) = density(c) × dom_weight</text>
<text xml:space="preserve" text-anchor="middle" x="322.71" y="-577.41" font-family="Arial" font-size="11.00" fill="#ede9fe">is_blind_spot = (infra_score == 0)</text>
</g>
<!-- agg&#45;&gt;severity -->
<g id="edge16" class="edge">
<title>agg&#45;&gt;severity</title>
<path fill="none" stroke="#94a3b8" stroke-width="1.5" d="M322.71,-667.68C322.71,-655.34 322.71,-641.76 322.71,-629.41"/>
<polygon fill="#94a3b8" stroke="#94a3b8" stroke-width="1.5" points="325.51,-629.64 322.71,-621.64 319.91,-629.64 325.51,-629.64"/>
</g>
<!-- check_blind -->
<g id="node18" class="node">
<title>check_blind</title>
<path fill="#4c1d95" stroke="#7c3aed" d="M311,-504.95C311,-504.95 196.01,-479.38 196.01,-479.38 190.15,-478.07 190.15,-475.47 196.01,-474.17 196.01,-474.17 311,-448.6 311,-448.6 316.86,-447.29 328.57,-447.29 334.43,-448.6 334.43,-448.6 449.42,-474.17 449.42,-474.17 455.28,-475.47 455.28,-478.07 449.42,-479.38 449.42,-479.38 334.43,-504.95 334.43,-504.95 328.57,-506.25 316.86,-506.25 311,-504.95"/>
<text xml:space="preserve" text-anchor="middle" x="322.71" y="-473.07" font-family="Arial" font-size="11.00" fill="#ddd6fe">is_blind_spot == True ?</text>
</g>
<!-- severity&#45;&gt;check_blind -->
<g id="edge17" class="edge">
<title>severity&#45;&gt;check_blind</title>
<path fill="none" stroke="#94a3b8" stroke-width="1.5" d="M322.71,-556.18C322.71,-544.37 322.71,-530.69 322.71,-518.1"/>
<polygon fill="#94a3b8" stroke="#94a3b8" stroke-width="1.5" points="325.51,-518.11 322.71,-510.11 319.91,-518.11 325.51,-518.11"/>
</g>
<!-- add_blind -->
<g id="node19" class="node">
<title>add_blind</title>
<path fill="#7f1d1d" stroke="#ef4444" d="M299.92,-385.99C299.92,-385.99 155.5,-385.99 155.5,-385.99 149.5,-385.99 143.5,-379.99 143.5,-373.99 143.5,-373.99 143.5,-353.71 143.5,-353.71 143.5,-347.71 149.5,-341.71 155.5,-341.71 155.5,-341.71 299.92,-341.71 299.92,-341.71 305.92,-341.71 311.92,-347.71 311.92,-353.71 311.92,-353.71 311.92,-373.99 311.92,-373.99 311.92,-379.99 305.92,-385.99 299.92,-385.99"/>
<text xml:space="preserve" text-anchor="middle" x="227.71" y="-366.9" font-family="Arial" font-size="11.00" fill="#fecaca">Добавить в blind_spots[]</text>
<text xml:space="preserve" text-anchor="middle" x="227.71" y="-353.4" font-family="Arial" font-size="11.00" fill="#fecaca">369 слепых зон обнаружено</text>
</g>
<!-- check_blind&#45;&gt;add_blind -->
<g id="edge18" class="edge">
<title>check_blind&#45;&gt;add_blind</title>
<path fill="none" stroke="#94a3b8" stroke-width="1.5" d="M301.16,-450.6C286.73,-433.75 267.68,-411.52 252.61,-393.91"/>
<polygon fill="#94a3b8" stroke="#94a3b8" stroke-width="1.5" points="254.8,-392.17 247.47,-387.91 250.54,-395.81 254.8,-392.17"/>
<text xml:space="preserve" text-anchor="middle" x="281.21" y="-412.49" font-family="Arial" font-size="10.00" fill="#94a3b8">Да</text>
</g>
<!-- skip -->
<g id="node20" class="node">
<title>skip</title>
<path fill="#064e3b" stroke="#34d399" d="M477.42,-385.99C477.42,-385.99 360,-385.99 360,-385.99 354,-385.99 348,-379.99 348,-373.99 348,-373.99 348,-353.71 348,-353.71 348,-347.71 354,-341.71 360,-341.71 360,-341.71 477.42,-341.71 477.42,-341.71 483.42,-341.71 489.42,-347.71 489.42,-353.71 489.42,-353.71 489.42,-373.99 489.42,-373.99 489.42,-379.99 483.42,-385.99 477.42,-385.99"/>
<text xml:space="preserve" text-anchor="middle" x="418.71" y="-366.9" font-family="Arial" font-size="11.00" fill="#d1fae5">Пропустить</text>
<text xml:space="preserve" text-anchor="middle" x="418.71" y="-353.4" font-family="Arial" font-size="11.00" fill="#d1fae5">(есть инфраструктура)</text>
</g>
<!-- check_blind&#45;&gt;skip -->
<g id="edge19" class="edge">
<title>check_blind&#45;&gt;skip</title>
<path fill="none" stroke="#94a3b8" stroke-width="1.5" d="M344.5,-450.6C359.08,-433.75 378.32,-411.52 393.56,-393.91"/>
<polygon fill="#94a3b8" stroke="#94a3b8" stroke-width="1.5" points="395.64,-395.79 398.76,-387.9 391.41,-392.12 395.64,-395.79"/>
<text xml:space="preserve" text-anchor="middle" x="387.94" y="-412.49" font-family="Arial" font-size="10.00" fill="#94a3b8">Нет</text>
</g>
<!-- rank -->
<g id="node21" class="node">
<title>rank</title>
<ellipse fill="#5b21b6" stroke="#a78bfa" cx="322.71" cy="-261.4" rx="124.39" ry="31.31"/>
<text xml:space="preserve" text-anchor="middle" x="322.71" y="-264.45" font-family="Arial" font-size="11.00" fill="#ede9fe">Сортировка по severity DESC</text>
<text xml:space="preserve" text-anchor="middle" x="322.71" y="-250.95" font-family="Arial" font-size="11.00" fill="#ede9fe">Выбор TOP_N = 10</text>
</g>
<!-- add_blind&#45;&gt;rank -->
<g id="edge20" class="edge">
<title>add_blind&#45;&gt;rank</title>
<path fill="none" stroke="#94a3b8" stroke-width="1.5" d="M247.86,-341.55C259.46,-329.29 274.35,-313.54 287.8,-299.32"/>
<polygon fill="#94a3b8" stroke="#94a3b8" stroke-width="1.5" points="289.65,-301.44 293.11,-293.7 285.58,-297.59 289.65,-301.44"/>
</g>
<!-- skip&#45;&gt;rank -->
<g id="edge21" class="edge">
<title>skip&#45;&gt;rank</title>
<path fill="none" stroke="#94a3b8" stroke-width="1.5" d="M398.36,-341.55C386.64,-329.29 371.59,-313.54 358,-299.32"/>
<polygon fill="#94a3b8" stroke="#94a3b8" stroke-width="1.5" points="360.18,-297.54 352.62,-293.7 356.13,-301.41 360.18,-297.54"/>
</g>
<!-- export_blind -->
<g id="node22" class="node">
<title>export_blind</title>
<path fill="#3b0764" stroke="#7c3aed" d="M531.98,-181.09C531.98,-181.09 204,-181.09 204,-181.09 198,-181.09 187.71,-176.89 183.42,-172.7 183.42,-172.7 110.03,-100.92 110.03,-100.92 105.74,-96.72 107.45,-92.53 113.45,-92.53 113.45,-92.53 441.43,-92.53 441.43,-92.53 447.43,-92.53 457.72,-96.72 462.01,-100.92 462.01,-100.92 535.4,-172.7 535.4,-172.7 539.69,-176.89 537.98,-181.09 531.98,-181.09"/>
<text xml:space="preserve" text-anchor="middle" x="322.71" y="-139.86" font-family="Arial" font-size="11.00" fill="#c4b5fd">blind_spots.geojson — топ&#45;10 зон</text>
<text xml:space="preserve" text-anchor="middle" x="322.71" y="-126.36" font-family="Arial" font-size="11.00" fill="#c4b5fd">all_hexes.geojson — все 1 473 ячейки</text>
</g>
<!-- rank&#45;&gt;export_blind -->
<g id="edge22" class="edge">
<title>rank&#45;&gt;export_blind</title>
<path fill="none" stroke="#94a3b8" stroke-width="1.5" d="M322.71,-229.78C322.71,-218.14 322.71,-204.51 322.71,-191.36"/>
<polygon fill="#94a3b8" stroke="#94a3b8" stroke-width="1.5" points="325.51,-191.71 322.71,-183.71 319.91,-191.71 325.51,-191.71"/>
</g>
<!-- end -->
<g id="node23" class="node">
<title>end</title>
<ellipse fill="#2e1065" stroke="#7c3aed" cx="322.71" cy="-21.76" rx="45.38" ry="21.76"/>
<text xml:space="preserve" text-anchor="middle" x="322.71" y="-18.06" font-family="Arial" font-size="11.00" fill="#c4b5fd">КОНЕЦ</text>
</g>
<!-- export_blind&#45;&gt;end -->
<g id="edge23" class="edge">
<title>export_blind&#45;&gt;end</title>
<path fill="none" stroke="#94a3b8" stroke-width="1.5" d="M322.71,-92.1C322.71,-79.45 322.71,-65.89 322.71,-54.15"/>
<polygon fill="#94a3b8" stroke="#94a3b8" stroke-width="1.5" points="325.51,-54.23 322.71,-46.23 319.91,-54.23 325.51,-54.23"/>
</g>
<!-- cw_table -->
<g id="node24" class="node">
<title>cw_table</title>
<polygon fill="#1e1b4b" stroke="#6366f1" points="470.17,-2520.63 285.25,-2520.63 285.25,-2381.85 476.17,-2381.85 476.17,-2514.63 470.17,-2520.63"/>
<polyline fill="none" stroke="#6366f1" points="470.17,-2520.63 470.17,-2514.63"/>
<polyline fill="none" stroke="#6366f1" points="476.17,-2514.63 470.17,-2514.63"/>
<text xml:space="preserve" text-anchor="middle" x="380.71" y="-2501.54" font-family="Arial" font-size="11.00" fill="#a5b4fc">conflict_weight (wc):</text>
<text xml:space="preserve" text-anchor="middle" x="380.71" y="-2488.04" font-family="Arial" font-size="11.00" fill="#a5b4fc">──────────────────────</text>
<text xml:space="preserve" text-anchor="middle" x="380.71" y="-2474.54" font-family="Arial" font-size="11.00" fill="#a5b4fc">maxspeed &gt; 60 км/ч &#160;→ 1.5</text>
<text xml:space="preserve" text-anchor="middle" x="380.71" y="-2461.04" font-family="Arial" font-size="11.00" fill="#a5b4fc">maxspeed 40–60 км/ч → 1.2</text>
<text xml:space="preserve" text-anchor="middle" x="380.71" y="-2447.54" font-family="Arial" font-size="11.00" fill="#a5b4fc">residential / без тега → 1.0</text>
<text xml:space="preserve" text-anchor="middle" x="380.71" y="-2434.04" font-family="Arial" font-size="11.00" fill="#a5b4fc">──────────────────────</text>
<text xml:space="preserve" text-anchor="middle" x="380.71" y="-2420.54" font-family="Arial" font-size="11.00" fill="#a5b4fc">H3 resolution 9:</text>
<text xml:space="preserve" text-anchor="middle" x="380.71" y="-2407.04" font-family="Arial" font-size="11.00" fill="#a5b4fc">ребро ≈ 174 м</text>
<text xml:space="preserve" text-anchor="middle" x="380.71" y="-2393.54" font-family="Arial" font-size="11.00" fill="#a5b4fc">площадь ≈ 0.105 км²</text>
</g>
<!-- results_note -->
<g id="node25" class="node">
<title>results_note</title>
<polygon fill="#1e1b4b" stroke="#6366f1" points="757.17,-2513.88 512.25,-2513.88 512.25,-2388.6 763.17,-2388.6 763.17,-2507.88 757.17,-2513.88"/>
<polyline fill="none" stroke="#6366f1" points="757.17,-2513.88 757.17,-2507.88"/>
<polyline fill="none" stroke="#6366f1" points="763.17,-2507.88 757.17,-2507.88"/>
<text xml:space="preserve" text-anchor="middle" x="637.71" y="-2494.79" font-family="Arial" font-size="11.00" fill="#a5b4fc">Результаты (Минск, 500 поездок):</text>
<text xml:space="preserve" text-anchor="middle" x="637.71" y="-2481.29" font-family="Arial" font-size="11.00" fill="#a5b4fc">──────────────────────────────</text>
<text xml:space="preserve" text-anchor="middle" x="637.71" y="-2467.79" font-family="Arial" font-size="11.00" fill="#a5b4fc">Всего ячеек: &#160;&#160;&#160;&#160;1 473</text>
<text xml:space="preserve" text-anchor="middle" x="637.71" y="-2454.29" font-family="Arial" font-size="11.00" fill="#a5b4fc">Порог P75: &#160;&#160;&#160;&#160;&#160;&#160;&#160;&#160;334 визита</text>
<text xml:space="preserve" text-anchor="middle" x="637.71" y="-2440.79" font-family="Arial" font-size="11.00" fill="#a5b4fc">Высоконагруж.: &#160;&#160;&#160;&#160;369</text>
<text xml:space="preserve" text-anchor="middle" x="637.71" y="-2427.29" font-family="Arial" font-size="11.00" fill="#a5b4fc">Слепых зон: &#160;&#160;&#160;&#160;&#160;&#160;&#160;369 (100%)</text>
<text xml:space="preserve" text-anchor="middle" x="637.71" y="-2413.79" font-family="Arial" font-size="11.00" fill="#a5b4fc">Top&#45;1 severity: 2 963</text>
<text xml:space="preserve" text-anchor="middle" x="637.71" y="-2400.29" font-family="Arial" font-size="11.00" fill="#a5b4fc">(2 469 визитов × CW 1.2)</text>
</g>
</g>
</svg>
