<?xml version="1.0" encoding="UTF-8" standalone="no"?>
<!DOCTYPE svg PUBLIC "-//W3C//DTD SVG 1.1//EN"
 "http://www.w3.org/Graphics/SVG/1.1/DTD/svg11.dtd">
<!-- Generated by graphviz version 14.1.5 (20260411.2331)
 -->
<!-- Title: AlgoA Pages: 1 -->
<svg width="1598pt" height="1563pt"
 viewBox="0.00 0.00 1598.00 1563.00" xmlns="http://www.w3.org/2000/svg" xmlns:xlink="http://www.w3.org/1999/xlink">
<g id="graph0" class="graph" transform="scale(1 1) rotate(0) translate(50.4 1512.65)">
<title>AlgoA</title>
<polygon fill="#0f1117" stroke="none" points="-50.4,50.4 -50.4,-1512.65 1548.04,-1512.65 1548.04,50.4 -50.4,50.4"/>
<text xml:space="preserve" text-anchor="middle" x="748.82" y="-1422.1" font-family="Arial" font-size="17.00" fill="#e2e8f0">АЛГОРИТМ A — ДЕТЕКТОР ОПАСНОГО ВОЖДЕНИЯ</text>
<text xml:space="preserve" text-anchor="middle" x="748.82" y="-1402.6" font-family="Arial" font-size="17.00" fill="#e2e8f0">(Диаграмма 4 из 9)</text>
<!-- start -->
<g id="node1" class="node">
<title>start</title>
<ellipse fill="#1e3a5f" stroke="#2563eb" cx="403.46" cy="-1352.86" rx="87.27" ry="31.31"/>
<text xml:space="preserve" text-anchor="middle" x="403.46" y="-1355.91" font-family="Arial" font-size="11.00" fill="#93c5fd">НАЧАЛО</text>
<text xml:space="preserve" text-anchor="middle" x="403.46" y="-1342.41" font-family="Arial" font-size="11.00" fill="#93c5fd">Поездка загружена</text>
</g>
<!-- input -->
<g id="node2" class="node">
<title>input</title>
<path fill="#1e3a8a" stroke="#3b82f6" d="M610.39,-1265.47C610.39,-1265.47 286.12,-1265.47 286.12,-1265.47 280.12,-1265.47 269.85,-1261.25 265.59,-1257.03 265.59,-1257.03 193.06,-1185.34 193.06,-1185.34 188.8,-1181.12 190.53,-1176.91 196.53,-1176.91 196.53,-1176.91 520.8,-1176.91 520.8,-1176.91 526.8,-1176.91 537.07,-1181.12 541.33,-1185.34 541.33,-1185.34 613.86,-1257.03 613.86,-1257.03 618.12,-1261.25 616.39,-1265.47 610.39,-1265.47"/>
<text xml:space="preserve" text-anchor="middle" x="403.46" y="-1224.24" font-family="Arial" font-size="11.00" fill="#bfdbfe">coords[] — координаты (lon, lat)</text>
<text xml:space="preserve" text-anchor="middle" x="403.46" y="-1210.74" font-family="Arial" font-size="11.00" fill="#bfdbfe">timestamps[] — метки времени (1 Гц)</text>
</g>
<!-- start&#45;&gt;input -->
<g id="edge1" class="edge">
<title>start&#45;&gt;input</title>
<path fill="none" stroke="#94a3b8" stroke-width="1.5" d="M403.46,-1321.13C403.46,-1307.61 403.46,-1291.33 403.46,-1275.91"/>
<polygon fill="#94a3b8" stroke="#94a3b8" stroke-width="1.5" points="406.26,-1276.22 403.46,-1268.22 400.66,-1276.22 406.26,-1276.22"/>
</g>
<!-- init -->
<g id="node3" class="node">
<title>init</title>
<ellipse fill="#1e3a8a" stroke="#3b82f6" cx="403.46" cy="-1091.05" rx="74.01" ry="40.86"/>
<text xml:space="preserve" text-anchor="middle" x="403.46" y="-1100.85" font-family="Arial" font-size="11.00" fill="#bfdbfe">speeds[0] ← 0.0</text>
<text xml:space="preserve" text-anchor="middle" x="403.46" y="-1087.35" font-family="Arial" font-size="11.00" fill="#bfdbfe">accels[0] ← 0.0</text>
<text xml:space="preserve" text-anchor="middle" x="403.46" y="-1073.85" font-family="Arial" font-size="11.00" fill="#bfdbfe">i ← 1</text>
</g>
<!-- input&#45;&gt;init -->
<g id="edge2" class="edge">
<title>input&#45;&gt;init</title>
<path fill="none" stroke="#94a3b8" stroke-width="1.5" d="M403.46,-1176.45C403.46,-1165.46 403.46,-1153.58 403.46,-1142.3"/>
<polygon fill="#94a3b8" stroke="#94a3b8" stroke-width="1.5" points="406.26,-1142.42 403.46,-1134.42 400.66,-1142.42 406.26,-1142.42"/>
</g>
<!-- loop1 -->
<g id="node4" class="node">
<title>loop1</title>
<path fill="#312e81" stroke="#6366f1" d="M392.85,-999.58C392.85,-999.58 355.9,-980.03 355.9,-980.03 350.59,-977.22 350.59,-971.61 355.9,-968.8 355.9,-968.8 392.85,-949.25 392.85,-949.25 398.16,-946.44 408.76,-946.44 414.07,-949.25 414.07,-949.25 451.02,-968.8 451.02,-968.8 456.33,-971.61 456.33,-977.22 451.02,-980.03 451.02,-980.03 414.07,-999.58 414.07,-999.58 408.76,-1002.39 398.16,-1002.39 392.85,-999.58"/>
<text xml:space="preserve" text-anchor="middle" x="403.46" y="-970.71" font-family="Arial" font-size="11.00" fill="#c7d2fe">i &lt; N ?</text>
</g>
<!-- init&#45;&gt;loop1 -->
<g id="edge3" class="edge">
<title>init&#45;&gt;loop1</title>
<path fill="none" stroke="#94a3b8" stroke-width="1.5" d="M403.46,-1049.96C403.46,-1038.78 403.46,-1026.65 403.46,-1015.48"/>
<polygon fill="#94a3b8" stroke="#94a3b8" stroke-width="1.5" points="406.26,-1015.82 403.46,-1007.82 400.66,-1015.82 406.26,-1015.82"/>
</g>
<!-- haversine -->
<g id="node5" class="node">
<title>haversine</title>
<ellipse fill="#3730a3" stroke="#818cf8" cx="403.46" cy="-856.32" rx="148.79" ry="31.31"/>
<text xml:space="preserve" text-anchor="middle" x="403.46" y="-859.37" font-family="Arial" font-size="11.00" fill="#e0e7ff">dist ← haversine(coords[i&#45;1], coords[i])</text>
<text xml:space="preserve" text-anchor="middle" x="403.46" y="-845.87" font-family="Arial" font-size="11.00" fill="#e0e7ff">dt ← timestamps[i] − timestamps[i&#45;1]</text>
</g>
<!-- loop1&#45;&gt;haversine -->
<g id="edge4" class="edge">
<title>loop1&#45;&gt;haversine</title>
<path fill="none" stroke="#94a3b8" stroke-width="1.5" d="M403.46,-943.22C403.46,-929.35 403.46,-912.71 403.46,-897.78"/>
<polygon fill="#94a3b8" stroke="#94a3b8" stroke-width="1.5" points="406.26,-898.04 403.46,-890.04 400.66,-898.04 406.26,-898.04"/>
<text xml:space="preserve" text-anchor="middle" x="409.46" y="-912.13" font-family="Arial" font-size="10.00" fill="#94a3b8">Да</text>
</g>
<!-- init2 -->
<g id="node8" class="node">
<title>init2</title>
<ellipse fill="#1e3a8a" stroke="#3b82f6" cx="685.46" cy="-856.32" rx="97.35" ry="31.31"/>
<text xml:space="preserve" text-anchor="middle" x="685.46" y="-859.37" font-family="Arial" font-size="11.00" fill="#bfdbfe">labels[] ← [&#39;SAFE&#39;] × N</text>
<text xml:space="preserve" text-anchor="middle" x="685.46" y="-845.87" font-family="Arial" font-size="11.00" fill="#bfdbfe">j ← 0</text>
</g>
<!-- loop1&#45;&gt;init2 -->
<g id="edge5" class="edge">
<title>loop1&#45;&gt;init2</title>
<path fill="none" stroke="#94a3b8" stroke-width="1.5" d="M435.53,-960.21C479.43,-942.14 559.34,-909.24 617,-885.51"/>
<polygon fill="#94a3b8" stroke="#94a3b8" stroke-width="1.5" points="617.98,-888.13 624.31,-882.49 615.85,-882.95 617.98,-888.13"/>
<text xml:space="preserve" text-anchor="middle" x="561.54" y="-912.13" font-family="Arial" font-size="10.00" fill="#94a3b8">Нет</text>
</g>
<!-- speed -->
<g id="node6" class="node">
<title>speed</title>
<ellipse fill="#3730a3" stroke="#818cf8" cx="405.46" cy="-748.7" rx="151.97" ry="31.31"/>
<text xml:space="preserve" text-anchor="middle" x="405.46" y="-751.75" font-family="Arial" font-size="11.00" fill="#e0e7ff">speeds[i] ← dist / dt</text>
<text xml:space="preserve" text-anchor="middle" x="405.46" y="-738.25" font-family="Arial" font-size="11.00" fill="#e0e7ff">accels[i] ← (speeds[i] − speeds[i&#45;1]) / dt</text>
</g>
<!-- haversine&#45;&gt;speed -->
<g id="edge6" class="edge">
<title>haversine&#45;&gt;speed</title>
<path fill="none" stroke="#94a3b8" stroke-width="1.5" d="M404.04,-824.77C404.24,-814.04 404.47,-801.82 404.69,-790.39"/>
<polygon fill="#94a3b8" stroke="#94a3b8" stroke-width="1.5" points="407.49,-790.5 404.84,-782.45 401.89,-790.4 407.49,-790.5"/>
</g>
<!-- inc1 -->
<g id="node7" class="node">
<title>inc1</title>
<path fill="#312e81" stroke="#6366f1" d="M257.67,-648.61C257.67,-648.61 215.25,-648.61 215.25,-648.61 209.25,-648.61 203.25,-642.61 203.25,-636.61 203.25,-636.61 203.25,-624.61 203.25,-624.61 203.25,-618.61 209.25,-612.61 215.25,-612.61 215.25,-612.61 257.67,-612.61 257.67,-612.61 263.67,-612.61 269.67,-618.61 269.67,-624.61 269.67,-624.61 269.67,-636.61 269.67,-636.61 269.67,-642.61 263.67,-648.61 257.67,-648.61"/>
<text xml:space="preserve" text-anchor="middle" x="236.46" y="-626.91" font-family="Arial" font-size="11.00" fill="#c7d2fe">i ← i + 1</text>
</g>
<!-- speed&#45;&gt;inc1 -->
<g id="edge7" class="edge">
<title>speed&#45;&gt;inc1</title>
<path fill="none" stroke="#94a3b8" stroke-width="1.5" d="M362.81,-718.41C334.05,-698.65 296.63,-672.94 269.99,-654.65"/>
<polygon fill="#94a3b8" stroke="#94a3b8" stroke-width="1.5" points="271.8,-652.49 263.62,-650.27 268.63,-657.11 271.8,-652.49"/>
</g>
<!-- inc1&#45;&gt;loop1 -->
<g id="edge8" class="edge">
<title>inc1&#45;&gt;loop1</title>
<path fill="none" stroke="#94a3b8" stroke-width="1.5" d="M230.76,-648.81C217.4,-692.56 188.62,-810.09 236.46,-887.63 261.7,-928.55 313.3,-950.79 352.5,-962.3"/>
<polygon fill="#94a3b8" stroke="#94a3b8" stroke-width="1.5" points="351.53,-964.93 359.99,-964.39 353.03,-959.54 351.53,-964.93"/>
</g>
<!-- loop2 -->
<g id="node9" class="node">
<title>loop2</title>
<path fill="#312e81" stroke="#6366f1" d="M674.85,-773.87C674.85,-773.87 637.9,-754.31 637.9,-754.31 632.59,-751.51 632.59,-745.9 637.9,-743.09 637.9,-743.09 674.85,-723.53 674.85,-723.53 680.16,-720.73 690.76,-720.73 696.07,-723.53 696.07,-723.53 733.02,-743.09 733.02,-743.09 738.33,-745.9 738.33,-751.51 733.02,-754.31 733.02,-754.31 696.07,-773.87 696.07,-773.87 690.76,-776.68 680.16,-776.68 674.85,-773.87"/>
<text xml:space="preserve" text-anchor="middle" x="685.46" y="-745" font-family="Arial" font-size="11.00" fill="#c7d2fe">j &lt; N ?</text>
</g>
<!-- init2&#45;&gt;loop2 -->
<g id="edge9" class="edge">
<title>init2&#45;&gt;loop2</title>
<path fill="none" stroke="#94a3b8" stroke-width="1.5" d="M685.46,-824.77C685.46,-813.84 685.46,-801.35 685.46,-789.74"/>
<polygon fill="#94a3b8" stroke="#94a3b8" stroke-width="1.5" points="688.26,-790.09 685.46,-782.09 682.66,-790.09 688.26,-790.09"/>
</g>
<!-- check_danger -->
<g id="node10" class="node">
<title>check_danger</title>
<path fill="#4c1d95" stroke="#7c3aed" d="M459.79,-658.6C459.79,-658.6 354.46,-633.4 354.46,-633.4 348.63,-632.01 348.63,-629.21 354.46,-627.82 354.46,-627.82 459.79,-602.62 459.79,-602.62 465.62,-601.23 477.3,-601.23 483.13,-602.62 483.13,-602.62 588.46,-627.82 588.46,-627.82 594.29,-629.21 594.29,-632.01 588.46,-633.4 588.46,-633.4 483.13,-658.6 483.13,-658.6 477.3,-659.99 465.62,-659.99 459.79,-658.6"/>
<text xml:space="preserve" text-anchor="middle" x="471.46" y="-626.91" font-family="Arial" font-size="11.00" fill="#ddd6fe">|accels[j]| ≥ 3.5 м/с² ?</text>
</g>
<!-- loop2&#45;&gt;check_danger -->
<g id="edge10" class="edge">
<title>loop2&#45;&gt;check_danger</title>
<path fill="none" stroke="#94a3b8" stroke-width="1.5" d="M657.48,-732.52C622.26,-713.42 561.23,-680.31 518.71,-657.25"/>
<polygon fill="#94a3b8" stroke="#94a3b8" stroke-width="1.5" points="520.3,-654.92 511.93,-653.57 517.63,-659.84 520.3,-654.92"/>
<text xml:space="preserve" text-anchor="middle" x="590.88" y="-685.89" font-family="Arial" font-size="10.00" fill="#94a3b8">Да</text>
</g>
<!-- verdict_danger -->
<g id="node18" class="node">
<title>verdict_danger</title>
<path fill="#4c1d95" stroke="#7c3aed" d="M959.75,-658.76C959.75,-658.76 846.25,-633.24 846.25,-633.24 840.39,-631.93 840.39,-629.29 846.25,-627.98 846.25,-627.98 959.75,-602.46 959.75,-602.46 965.61,-601.15 977.31,-601.15 983.17,-602.46 983.17,-602.46 1096.67,-627.98 1096.67,-627.98 1102.53,-629.29 1102.53,-631.93 1096.67,-633.24 1096.67,-633.24 983.17,-658.76 983.17,-658.76 977.31,-660.07 965.61,-660.07 959.75,-658.76"/>
<text xml:space="preserve" text-anchor="middle" x="971.46" y="-626.91" font-family="Arial" font-size="11.00" fill="#ddd6fe">∃ label = DANGER ?</text>
</g>
<!-- loop2&#45;&gt;verdict_danger -->
<g id="edge11" class="edge">
<title>loop2&#45;&gt;verdict_danger</title>
<path fill="none" stroke="#94a3b8" stroke-width="1.5" d="M717.71,-734.61C765.41,-715.25 855.48,-678.69 914.47,-654.74"/>
<polygon fill="#94a3b8" stroke="#94a3b8" stroke-width="1.5" points="915.2,-657.47 921.56,-651.87 913.09,-652.28 915.2,-657.47"/>
<text xml:space="preserve" text-anchor="middle" x="845.66" y="-685.89" font-family="Arial" font-size="10.00" fill="#94a3b8">Нет</text>
</g>
<!-- window -->
<g id="node11" class="node">
<title>window</title>
<ellipse fill="#5b21b6" stroke="#a78bfa" cx="471.46" cy="-512.52" rx="141.36" ry="31.31"/>
<text xml:space="preserve" text-anchor="middle" x="471.46" y="-515.57" font-family="Arial" font-size="11.00" fill="#ede9fe">prev_high ← (j&gt;0) И (|a[j&#45;1]|≥3.5)</text>
<text xml:space="preserve" text-anchor="middle" x="471.46" y="-502.07" font-family="Arial" font-size="11.00" fill="#ede9fe">next_high ← (j&lt;N&#45;1) И (|a[j+1]|≥3.5)</text>
</g>
<!-- check_danger&#45;&gt;window -->
<g id="edge12" class="edge">
<title>check_danger&#45;&gt;window</title>
<path fill="none" stroke="#94a3b8" stroke-width="1.5" d="M471.46,-599.41C471.46,-585.55 471.46,-568.91 471.46,-553.98"/>
<polygon fill="#94a3b8" stroke="#94a3b8" stroke-width="1.5" points="474.26,-554.24 471.46,-546.24 468.66,-554.24 474.26,-554.24"/>
<text xml:space="preserve" text-anchor="middle" x="477.46" y="-568.33" font-family="Arial" font-size="10.00" fill="#94a3b8">Да</text>
</g>
<!-- check_warn -->
<g id="node15" class="node">
<title>check_warn</title>
<path fill="#4c1d95" stroke="#7c3aed" d="M136.79,-332.36C136.79,-332.36 31.46,-307.16 31.46,-307.16 25.63,-305.77 25.63,-302.97 31.46,-301.58 31.46,-301.58 136.79,-276.38 136.79,-276.38 142.62,-274.99 154.3,-274.99 160.13,-276.38 160.13,-276.38 265.46,-301.58 265.46,-301.58 271.29,-302.97 271.29,-305.77 265.46,-307.16 265.46,-307.16 160.13,-332.36 160.13,-332.36 154.3,-333.75 142.62,-333.75 136.79,-332.36"/>
<text xml:space="preserve" text-anchor="middle" x="148.46" y="-300.67" font-family="Arial" font-size="11.00" fill="#ddd6fe">|accels[j]| ≥ 2.5 м/с² ?</text>
</g>
<!-- check_danger&#45;&gt;check_warn -->
<g id="edge13" class="edge">
<title>check_danger&#45;&gt;check_warn</title>
<path fill="none" stroke="#94a3b8" stroke-width="1.5" d="M417.44,-612.44C379.92,-598.47 330.52,-575.82 295.21,-543.83 231.07,-485.73 185.17,-393.12 163.16,-342.09"/>
<polygon fill="#94a3b8" stroke="#94a3b8" stroke-width="1.5" points="165.79,-341.12 160.09,-334.85 160.64,-343.31 165.79,-341.12"/>
<text xml:space="preserve" text-anchor="middle" x="303.84" y="-509.02" font-family="Arial" font-size="10.00" fill="#94a3b8">Нет</text>
</g>
<!-- check_window -->
<g id="node12" class="node">
<title>check_window</title>
<path fill="#4c1d95" stroke="#7c3aed" d="M459.68,-332.86C459.68,-332.86 324.57,-306.65 324.57,-306.65 318.68,-305.51 318.68,-303.23 324.57,-302.08 324.57,-302.08 459.68,-275.87 459.68,-275.87 465.57,-274.73 477.35,-274.73 483.24,-275.87 483.24,-275.87 618.35,-302.08 618.35,-302.08 624.24,-303.23 624.24,-305.51 618.35,-306.65 618.35,-306.65 483.24,-332.86 483.24,-332.86 477.35,-334.01 465.57,-334.01 459.68,-332.86"/>
<text xml:space="preserve" text-anchor="middle" x="471.46" y="-300.67" font-family="Arial" font-size="11.00" fill="#ddd6fe">prev_high ИЛИ next_high ?</text>
</g>
<!-- window&#45;&gt;check_window -->
<g id="edge14" class="edge">
<title>window&#45;&gt;check_window</title>
<path fill="none" stroke="#94a3b8" stroke-width="1.5" d="M471.46,-481.1C471.46,-445.22 471.46,-385.44 471.46,-345.71"/>
<polygon fill="#94a3b8" stroke="#94a3b8" stroke-width="1.5" points="474.26,-345.85 471.46,-337.85 468.66,-345.85 474.26,-345.85"/>
</g>
<!-- set_danger -->
<g id="node13" class="node">
<title>set_danger</title>
<path fill="#7f1d1d" stroke="#ef4444" d="M402.17,-168.45C402.17,-168.45 284.75,-168.45 284.75,-168.45 278.75,-168.45 272.75,-162.45 272.75,-156.45 272.75,-156.45 272.75,-136.17 272.75,-136.17 272.75,-130.17 278.75,-124.17 284.75,-124.17 284.75,-124.17 402.17,-124.17 402.17,-124.17 408.17,-124.17 414.17,-130.17 414.17,-136.17 414.17,-136.17 414.17,-156.45 414.17,-156.45 414.17,-162.45 408.17,-168.45 402.17,-168.45"/>
<text xml:space="preserve" text-anchor="middle" x="343.46" y="-149.36" font-family="Arial" font-size="11.00" fill="#fecaca">labels[j] ← DANGER</text>
<text xml:space="preserve" text-anchor="middle" x="343.46" y="-135.86" font-family="Arial" font-size="11.00" fill="#fecaca">(2+ смежных выброса)</text>
</g>
<!-- check_window&#45;&gt;set_danger -->
<g id="edge15" class="edge">
<title>check_window&#45;&gt;set_danger</title>
<path fill="none" stroke="#94a3b8" stroke-width="1.5" d="M450.04,-277.25C427.14,-249.33 390.93,-205.19 367.18,-176.24"/>
<polygon fill="#94a3b8" stroke="#94a3b8" stroke-width="1.5" points="369.52,-174.66 362.28,-170.25 365.19,-178.22 369.52,-174.66"/>
<text xml:space="preserve" text-anchor="middle" x="421.12" y="-228.59" font-family="Arial" font-size="10.00" fill="#94a3b8">Да</text>
</g>
<!-- set_warn_single -->
<g id="node14" class="node">
<title>set_warn_single</title>
<path fill="#78350f" stroke="#f59e0b" d="M618.3,-168.45C618.3,-168.45 462.63,-168.45 462.63,-168.45 456.63,-168.45 450.63,-162.45 450.63,-156.45 450.63,-156.45 450.63,-136.17 450.63,-136.17 450.63,-130.17 456.63,-124.17 462.63,-124.17 462.63,-124.17 618.3,-124.17 618.3,-124.17 624.3,-124.17 630.3,-130.17 630.3,-136.17 630.3,-136.17 630.3,-156.45 630.3,-156.45 630.3,-162.45 624.3,-168.45 618.3,-168.45"/>
<text xml:space="preserve" text-anchor="middle" x="540.46" y="-149.36" font-family="Arial" font-size="11.00" fill="#fde68a">labels[j] ← WARN</text>
<text xml:space="preserve" text-anchor="middle" x="540.46" y="-135.86" font-family="Arial" font-size="11.00" fill="#fde68a">(одиночный шумовой выброс)</text>
</g>
<!-- check_window&#45;&gt;set_warn_single -->
<g id="edge16" class="edge">
<title>check_window&#45;&gt;set_warn_single</title>
<path fill="none" stroke="#94a3b8" stroke-width="1.5" d="M483.64,-275.83C495.8,-248.31 514.46,-206.12 527.04,-177.65"/>
<polygon fill="#94a3b8" stroke="#94a3b8" stroke-width="1.5" points="529.47,-179.09 530.14,-170.64 524.35,-176.83 529.47,-179.09"/>
<text xml:space="preserve" text-anchor="middle" x="512.52" y="-228.59" font-family="Arial" font-size="10.00" fill="#94a3b8">Нет</text>
</g>
<!-- inc2 -->
<g id="node17" class="node">
<title>inc2</title>
<path fill="#312e81" stroke="#6366f1" d="M364.67,-39.76C364.67,-39.76 322.25,-39.76 322.25,-39.76 316.25,-39.76 310.25,-33.76 310.25,-27.76 310.25,-27.76 310.25,-15.76 310.25,-15.76 310.25,-9.76 316.25,-3.76 322.25,-3.76 322.25,-3.76 364.67,-3.76 364.67,-3.76 370.67,-3.76 376.67,-9.76 376.67,-15.76 376.67,-15.76 376.67,-27.76 376.67,-27.76 376.67,-33.76 370.67,-39.76 364.67,-39.76"/>
<text xml:space="preserve" text-anchor="middle" x="343.46" y="-18.06" font-family="Arial" font-size="11.00" fill="#c7d2fe">j ← j + 1</text>
</g>
<!-- set_danger&#45;&gt;inc2 -->
<g id="edge18" class="edge">
<title>set_danger&#45;&gt;inc2</title>
<path fill="none" stroke="#94a3b8" stroke-width="1.5" d="M343.46,-123.68C343.46,-103.25 343.46,-72.52 343.46,-50.33"/>
<polygon fill="#94a3b8" stroke="#94a3b8" stroke-width="1.5" points="346.26,-50.48 343.46,-42.48 340.66,-50.48 346.26,-50.48"/>
</g>
<!-- set_warn_single&#45;&gt;inc2 -->
<g id="edge19" class="edge">
<title>set_warn_single&#45;&gt;inc2</title>
<path fill="none" stroke="#94a3b8" stroke-width="1.5" d="M505.69,-123.68C470.46,-101.77 416.16,-67.99 380.23,-45.64"/>
<polygon fill="#94a3b8" stroke="#94a3b8" stroke-width="1.5" points="381.71,-43.26 373.44,-41.41 378.75,-48.02 381.71,-43.26"/>
</g>
<!-- set_warn -->
<g id="node16" class="node">
<title>set_warn</title>
<path fill="#78350f" stroke="#f59e0b" d="M100.92,-164.31C100.92,-164.31 12,-164.31 12,-164.31 6,-164.31 0,-158.31 0,-152.31 0,-152.31 0,-140.31 0,-140.31 0,-134.31 6,-128.31 12,-128.31 12,-128.31 100.92,-128.31 100.92,-128.31 106.92,-128.31 112.92,-134.31 112.92,-140.31 112.92,-140.31 112.92,-152.31 112.92,-152.31 112.92,-158.31 106.92,-164.31 100.92,-164.31"/>
<text xml:space="preserve" text-anchor="middle" x="56.46" y="-142.61" font-family="Arial" font-size="11.00" fill="#fde68a">labels[j] ← WARN</text>
</g>
<!-- check_warn&#45;&gt;set_warn -->
<g id="edge17" class="edge">
<title>check_warn&#45;&gt;set_warn</title>
<path fill="none" stroke="#94a3b8" stroke-width="1.5" d="M132.85,-276.9C115.83,-248.02 88.75,-202.09 71.83,-173.38"/>
<polygon fill="#94a3b8" stroke="#94a3b8" stroke-width="1.5" points="74.34,-172.13 67.87,-166.66 69.52,-174.97 74.34,-172.13"/>
<text xml:space="preserve" text-anchor="middle" x="113.97" y="-228.59" font-family="Arial" font-size="10.00" fill="#94a3b8">Да</text>
</g>
<!-- check_warn&#45;&gt;inc2 -->
<g id="edge21" class="edge">
<title>check_warn&#45;&gt;inc2</title>
<path fill="none" stroke="#94a3b8" stroke-width="1.5" d="M148.13,-273.42C149.18,-228.31 157.44,-142.49 201.96,-88.53 226.88,-58.33 268.77,-41.26 300.52,-32.13"/>
<polygon fill="#94a3b8" stroke="#94a3b8" stroke-width="1.5" points="300.85,-34.95 307.83,-30.14 299.38,-29.54 300.85,-34.95"/>
<text xml:space="preserve" text-anchor="middle" x="228.21" y="-142.81" font-family="Arial" font-size="10.00" fill="#94a3b8">Нет (SAFE)</text>
</g>
<!-- set_warn&#45;&gt;inc2 -->
<g id="edge20" class="edge">
<title>set_warn&#45;&gt;inc2</title>
<path fill="none" stroke="#94a3b8" stroke-width="1.5" d="M73.21,-127.93C91.84,-109.64 123.65,-81.34 156.46,-65.53 202.59,-43.3 260.77,-32.34 299.88,-27.14"/>
<polygon fill="#94a3b8" stroke="#94a3b8" stroke-width="1.5" points="300.04,-29.94 307.63,-26.16 299.34,-24.39 300.04,-29.94"/>
</g>
<!-- inc2&#45;&gt;loop2 -->
<g id="edge22" class="edge">
<title>inc2&#45;&gt;loop2</title>
<path fill="none" stroke="#94a3b8" stroke-width="1.5" d="M376.92,-21.99C436.74,-22.22 563.68,-30.18 648.46,-88.53 673.27,-105.61 685.46,-115.19 685.46,-145.31 685.46,-631.61 685.46,-631.61 685.46,-631.61 685.46,-656.84 685.46,-685.15 685.46,-707.5"/>
<polygon fill="#94a3b8" stroke="#94a3b8" stroke-width="1.5" points="682.66,-707.36 685.46,-715.36 688.26,-707.36 682.66,-707.36"/>
</g>
<!-- verdict_warn -->
<g id="node19" class="node">
<title>verdict_warn</title>
<path fill="#4c1d95" stroke="#7c3aed" d="M959.82,-540.38C959.82,-540.38 860.43,-515.44 860.43,-515.44 854.61,-513.98 854.61,-511.06 860.43,-509.6 860.43,-509.6 959.82,-484.66 959.82,-484.66 965.64,-483.2 977.28,-483.2 983.1,-484.66 983.1,-484.66 1082.49,-509.6 1082.49,-509.6 1088.31,-511.06 1088.31,-513.98 1082.49,-515.44 1082.49,-515.44 983.1,-540.38 983.1,-540.38 977.28,-541.84 965.64,-541.84 959.82,-540.38"/>
<text xml:space="preserve" text-anchor="middle" x="971.46" y="-508.82" font-family="Arial" font-size="11.00" fill="#ddd6fe">∃ label = WARN ?</text>
</g>
<!-- verdict_danger&#45;&gt;verdict_warn -->
<g id="edge24" class="edge">
<title>verdict_danger&#45;&gt;verdict_warn</title>
<path fill="none" stroke="#94a3b8" stroke-width="1.5" d="M971.46,-599.41C971.46,-585.44 971.46,-568.64 971.46,-553.62"/>
<polygon fill="#94a3b8" stroke="#94a3b8" stroke-width="1.5" points="974.26,-553.84 971.46,-545.84 968.66,-553.84 974.26,-553.84"/>
<text xml:space="preserve" text-anchor="middle" x="980.09" y="-568.33" font-family="Arial" font-size="10.00" fill="#94a3b8">Нет</text>
</g>
<!-- out_danger -->
<g id="node20" class="node">
<title>out_danger</title>
<path fill="#7f1d1d" stroke="#ef4444" d="M1485.64,-459.21C1485.64,-459.21 1307.33,-459.21 1307.33,-459.21 1301.33,-459.21 1292.29,-454.04 1289.25,-448.86 1289.25,-448.86 1249.36,-381 1249.36,-381 1246.32,-375.82 1249.28,-370.65 1255.28,-370.65 1255.28,-370.65 1433.59,-370.65 1433.59,-370.65 1439.59,-370.65 1448.63,-375.82 1451.67,-381 1451.67,-381 1491.56,-448.86 1491.56,-448.86 1494.6,-454.04 1491.64,-459.21 1485.64,-459.21"/>
<text xml:space="preserve" text-anchor="middle" x="1370.46" y="-417.98" font-family="Arial" font-size="11.00" fill="#fecaca">verdict ← DANGER</text>
<text xml:space="preserve" text-anchor="middle" x="1370.46" y="-404.48" font-family="Arial" font-size="11.00" fill="#fecaca">Поездка опасна</text>
</g>
<!-- verdict_danger&#45;&gt;out_danger -->
<g id="edge23" class="edge">
<title>verdict_danger&#45;&gt;out_danger</title>
<path fill="none" stroke="#94a3b8" stroke-width="1.5" d="M1011.18,-608.34C1074.67,-574.34 1200.47,-506.97 1285.05,-461.67"/>
<polygon fill="#94a3b8" stroke="#94a3b8" stroke-width="1.5" points="1286.14,-464.26 1291.87,-458.02 1283.5,-459.33 1286.14,-464.26"/>
<text xml:space="preserve" text-anchor="middle" x="1093.79" y="-568.33" font-family="Arial" font-size="10.00" fill="#94a3b8">Да</text>
</g>
<!-- out_warn -->
<g id="node21" class="node">
<title>out_warn</title>
<path fill="#78350f" stroke="#f59e0b" d="M1363.18,-348.65C1363.18,-348.65 1115.6,-348.65 1115.6,-348.65 1109.6,-348.65 1099.89,-343.94 1096.17,-339.23 1096.17,-339.23 1041.17,-269.51 1041.17,-269.51 1037.45,-264.8 1039.74,-260.09 1045.74,-260.09 1045.74,-260.09 1293.32,-260.09 1293.32,-260.09 1299.32,-260.09 1309.03,-264.8 1312.75,-269.51 1312.75,-269.51 1367.75,-339.23 1367.75,-339.23 1371.47,-343.94 1369.18,-348.65 1363.18,-348.65"/>
<text xml:space="preserve" text-anchor="middle" x="1204.46" y="-307.42" font-family="Arial" font-size="11.00" fill="#fde68a">verdict ← WARN</text>
<text xml:space="preserve" text-anchor="middle" x="1204.46" y="-293.92" font-family="Arial" font-size="11.00" fill="#fde68a">Поездка под наблюдением</text>
</g>
<!-- verdict_warn&#45;&gt;out_warn -->
<g id="edge25" class="edge">
<title>verdict_warn&#45;&gt;out_warn</title>
<path fill="none" stroke="#94a3b8" stroke-width="1.5" d="M997.74,-488.27C1033.89,-456.29 1099.9,-397.88 1147.62,-355.66"/>
<polygon fill="#94a3b8" stroke="#94a3b8" stroke-width="1.5" points="1149.28,-357.93 1153.42,-350.53 1145.57,-353.73 1149.28,-357.93"/>
<text xml:space="preserve" text-anchor="middle" x="1135.09" y="-411.43" font-family="Arial" font-size="10.00" fill="#94a3b8">Да</text>
</g>
<!-- out_safe -->
<g id="node22" class="node">
<title>out_safe</title>
<path fill="#064e3b" stroke="#34d399" d="M986.19,-348.65C986.19,-348.65 805.41,-348.65 805.41,-348.65 799.41,-348.65 790.34,-343.49 787.27,-338.34 787.27,-338.34 746.86,-270.4 746.86,-270.4 743.79,-265.25 746.73,-260.09 752.73,-260.09 752.73,-260.09 933.51,-260.09 933.51,-260.09 939.51,-260.09 948.58,-265.25 951.65,-270.4 951.65,-270.4 992.06,-338.34 992.06,-338.34 995.13,-343.49 992.19,-348.65 986.19,-348.65"/>
<text xml:space="preserve" text-anchor="middle" x="869.46" y="-307.42" font-family="Arial" font-size="11.00" fill="#d1fae5">verdict ← SAFE</text>
<text xml:space="preserve" text-anchor="middle" x="869.46" y="-293.92" font-family="Arial" font-size="11.00" fill="#d1fae5">Поездка безопасна</text>
</g>
<!-- verdict_warn&#45;&gt;out_safe -->
<g id="edge26" class="edge">
<title>verdict_warn&#45;&gt;out_safe</title>
<path fill="none" stroke="#94a3b8" stroke-width="1.5" d="M958.33,-484.99C942.53,-453.04 915.6,-398.62 895.52,-358.03"/>
<polygon fill="#94a3b8" stroke="#94a3b8" stroke-width="1.5" points="898.15,-357.04 892.09,-351.11 893.13,-359.52 898.15,-357.04"/>
<text xml:space="preserve" text-anchor="middle" x="952.73" y="-411.43" font-family="Arial" font-size="10.00" fill="#94a3b8">Нет</text>
</g>
<!-- export -->
<g id="node23" class="node">
<title>export</title>
<path fill="#1e3a5f" stroke="#2563eb" d="M1368.63,-204.09C1368.63,-204.09 1112.39,-204.09 1112.39,-204.09 1106.39,-204.09 1097.21,-199 1094.03,-193.91 1094.03,-193.91 1034.65,-98.71 1034.65,-98.71 1031.47,-93.62 1034.29,-88.53 1040.29,-88.53 1040.29,-88.53 1296.53,-88.53 1296.53,-88.53 1302.53,-88.53 1311.71,-93.62 1314.89,-98.71 1314.89,-98.71 1374.27,-193.91 1374.27,-193.91 1377.45,-199 1374.63,-204.09 1368.63,-204.09"/>
<text xml:space="preserve" text-anchor="middle" x="1204.46" y="-156.11" font-family="Arial" font-size="11.00" fill="#93c5fd">Экспорт: GeoJSON с тегами</text>
<text xml:space="preserve" text-anchor="middle" x="1204.46" y="-142.61" font-family="Arial" font-size="11.00" fill="#93c5fd">analyzed_trips.geojson</text>
<text xml:space="preserve" text-anchor="middle" x="1204.46" y="-129.11" font-family="Arial" font-size="11.00" fill="#93c5fd">dangerous_segments.geojson</text>
</g>
<!-- out_danger&#45;&gt;export -->
<g id="edge27" class="edge">
<title>out_danger&#45;&gt;export</title>
<path fill="none" stroke="#94a3b8" stroke-width="1.5" d="M1390.97,-370.44C1403.05,-338.05 1412.59,-293.79 1393.46,-260.09 1382.4,-240.61 1366.49,-224.14 1348.54,-210.32"/>
<polygon fill="#94a3b8" stroke="#94a3b8" stroke-width="1.5" points="1350.66,-208.4 1342.56,-205.9 1347.33,-212.9 1350.66,-208.4"/>
</g>
<!-- out_warn&#45;&gt;export -->
<g id="edge28" class="edge">
<title>out_warn&#45;&gt;export</title>
<path fill="none" stroke="#94a3b8" stroke-width="1.5" d="M1204.46,-259.9C1204.46,-245.84 1204.46,-229.91 1204.46,-214.55"/>
<polygon fill="#94a3b8" stroke="#94a3b8" stroke-width="1.5" points="1207.26,-214.83 1204.46,-206.83 1201.66,-214.83 1207.26,-214.83"/>
</g>
<!-- out_safe&#45;&gt;export -->
<g id="edge29" class="edge">
<title>out_safe&#45;&gt;export</title>
<path fill="none" stroke="#94a3b8" stroke-width="1.5" d="M949.28,-266.19C990.46,-247 1041.5,-223.23 1087.08,-201.99"/>
<polygon fill="#94a3b8" stroke="#94a3b8" stroke-width="1.5" points="1087.99,-204.66 1094.06,-198.74 1085.62,-199.58 1087.99,-204.66"/>
</g>
<!-- end -->
<g id="node24" class="node">
<title>end</title>
<ellipse fill="#1e3a5f" stroke="#2563eb" cx="1204.46" cy="-21.76" rx="45.38" ry="21.76"/>
<text xml:space="preserve" text-anchor="middle" x="1204.46" y="-18.06" font-family="Arial" font-size="11.00" fill="#93c5fd">КОНЕЦ</text>
</g>
<!-- export&#45;&gt;end -->
<g id="edge30" class="edge">
<title>export&#45;&gt;end</title>
<path fill="none" stroke="#94a3b8" stroke-width="1.5" d="M1204.46,-88.34C1204.46,-76.56 1204.46,-64.56 1204.46,-54.11"/>
<polygon fill="#94a3b8" stroke="#94a3b8" stroke-width="1.5" points="1207.26,-54.11 1204.46,-46.11 1201.66,-54.11 1207.26,-54.11"/>
</g>
<!-- note -->
<g id="node25" class="node">
<title>note</title>
<polygon fill="#1e1b4b" stroke="#6366f1" points="741.92,-1395.25 527,-1395.25 527,-1310.47 747.92,-1310.47 747.92,-1389.25 741.92,-1395.25"/>
<polyline fill="none" stroke="#6366f1" points="741.92,-1395.25 741.92,-1389.25"/>
<polyline fill="none" stroke="#6366f1" points="747.92,-1389.25 741.92,-1389.25"/>
<text xml:space="preserve" text-anchor="middle" x="637.46" y="-1376.16" font-family="Arial" font-size="11.00" fill="#a5b4fc">Калибровка порога 3.5 м/с²:</text>
<text xml:space="preserve" text-anchor="middle" x="637.46" y="-1362.66" font-family="Arial" font-size="11.00" fill="#a5b4fc">Dozza M. (2013)</text>
<text xml:space="preserve" text-anchor="middle" x="637.46" y="-1349.16" font-family="Arial" font-size="11.00" fill="#a5b4fc">«Naturalistic bicycle riding study»</text>
<text xml:space="preserve" text-anchor="middle" x="637.46" y="-1335.66" font-family="Arial" font-size="11.00" fill="#a5b4fc">ISO 15622 (системы предупреждения)</text>
<text xml:space="preserve" text-anchor="middle" x="637.46" y="-1322.16" font-family="Arial" font-size="11.00" fill="#a5b4fc">F1&#45;score = 0.990 на 500 поездках</text>
</g>
</g>
</svg>
