<?xml version="1.0" encoding="UTF-8" standalone="no"?>
<!DOCTYPE svg PUBLIC "-//W3C//DTD SVG 1.1//EN"
 "http://www.w3.org/Graphics/SVG/1.1/DTD/svg11.dtd">
<!-- Generated by graphviz version 14.1.5 (20260411.2331)
 -->
<!-- Title: AlgoC Pages: 1 -->
<svg width="1269pt" height="1868pt"
 viewBox="0.00 0.00 1269.00 1868.00" xmlns="http://www.w3.org/2000/svg" xmlns:xlink="http://www.w3.org/1999/xlink">
<g id="graph0" class="graph" transform="scale(1 1) rotate(0) translate(57.6 1810.37)">
<title>AlgoC</title>
<polygon fill="#0f1117" stroke="none" points="-57.6,57.6 -57.6,-1810.37 1211.03,-1810.37 1211.03,57.6 -57.6,57.6"/>
<text xml:space="preserve" text-anchor="middle" x="576.72" y="-1714.57" font-family="Arial" font-size="16.00" fill="#e2e8f0">АЛГОРИТМ C — КОМПОНОВЩИК СВОДНОЙ ТЕПЛОВОЙ КАРТЫ БЕЗОПАСНОСТИ</text>
<text xml:space="preserve" text-anchor="middle" x="576.72" y="-1695.82" font-family="Arial" font-size="16.00" fill="#e2e8f0">(Диаграмма 6 из 9)</text>
<!-- in_density -->
<g id="node1" class="node">
<title>in_density</title>
<path fill="#1e3a5f" stroke="#2563eb" d="M1141.43,-1688.27C1141.43,-1688.27 895.09,-1688.27 895.09,-1688.27 889.09,-1688.27 880.27,-1682.98 877.45,-1677.68 877.45,-1677.68 819.18,-1568.3 819.18,-1568.3 816.36,-1563.01 819.54,-1557.71 825.54,-1557.71 825.54,-1557.71 1071.89,-1557.71 1071.89,-1557.71 1077.89,-1557.71 1086.71,-1563.01 1089.53,-1568.3 1089.53,-1568.3 1147.79,-1677.68 1147.79,-1677.68 1150.61,-1682.98 1147.43,-1688.27 1141.43,-1688.27"/>
<text xml:space="preserve" text-anchor="middle" x="983.49" y="-1637.49" font-family="Arial" font-size="10.00" fill="#93c5fd">all_hexes.geojson</text>
<text xml:space="preserve" text-anchor="middle" x="983.49" y="-1625.49" font-family="Arial" font-size="10.00" fill="#93c5fd">Карта плотности (Алгоритм B)</text>
<text xml:space="preserve" text-anchor="middle" x="983.49" y="-1613.49" font-family="Arial" font-size="10.00" fill="#93c5fd">1 473 H3&#45;ячейки</text>
<text xml:space="preserve" text-anchor="middle" x="983.49" y="-1601.49" font-family="Arial" font-size="10.00" fill="#93c5fd">{h3_cell, visit_count}</text>
</g>
<!-- ph1 -->
<g id="node4" class="node">
<title>ph1</title>
<polygon fill="#1e1065" stroke="#4338ca" points="770.95,-1498.07 526.03,-1498.07 526.03,-1462.07 770.95,-1462.07 770.95,-1498.07"/>
<text xml:space="preserve" text-anchor="middle" x="648.49" y="-1476.57" font-family="Arial" font-size="10.00" fill="#a5b4fc">ФАЗ 1: H3&#45;АГРЕГАЦИЯ ОПАСНЫХ СОБЫТИЙ</text>
</g>
<!-- in_density&#45;&gt;ph1 -->
<!-- norm_density -->
<g id="node8" class="node">
<title>norm_density</title>
<ellipse fill="#312e81" stroke="#6366f1" cx="983.49" cy="-1072.36" rx="164.17" ry="29.19"/>
<text xml:space="preserve" text-anchor="middle" x="983.49" y="-1074.86" font-family="Arial" font-size="10.00" fill="#c7d2fe">S_density(c) = visit_count(c) / max(visit_count)</text>
<text xml:space="preserve" text-anchor="middle" x="983.49" y="-1062.86" font-family="Arial" font-size="10.00" fill="#c7d2fe">&#45;&gt; [0.0 .. 1.0]</text>
</g>
<!-- in_density&#45;&gt;norm_density -->
<g id="edge5" class="edge">
<title>in_density&#45;&gt;norm_density</title>
<path fill="none" stroke="#94a3b8" stroke-width="1.5" d="M983.49,-1557.45C983.49,-1533.47 983.49,-1506.03 983.49,-1481.07 983.49,-1481.07 983.49,-1481.07 983.49,-1204.83 983.49,-1173.64 983.49,-1138.28 983.49,-1112.09"/>
<polygon fill="#94a3b8" stroke="#94a3b8" stroke-width="1.5" points="986.29,-1112.1 983.49,-1104.1 980.69,-1112.1 986.29,-1112.1"/>
</g>
<!-- in_blind -->
<g id="node2" class="node">
<title>in_blind</title>
<path fill="#7f1d1d" stroke="#ef4444" d="M587.54,-1259.11C587.54,-1259.11 325.12,-1259.11 325.12,-1259.11 319.12,-1259.11 309.7,-1254.18 306.29,-1249.24 306.29,-1249.24 246.26,-1162.42 246.26,-1162.42 242.85,-1157.49 245.43,-1152.55 251.43,-1152.55 251.43,-1152.55 513.86,-1152.55 513.86,-1152.55 519.86,-1152.55 529.27,-1157.49 532.68,-1162.42 532.68,-1162.42 592.72,-1249.24 592.72,-1249.24 596.13,-1254.18 593.54,-1259.11 587.54,-1259.11"/>
<text xml:space="preserve" text-anchor="middle" x="419.49" y="-1214.33" font-family="Arial" font-size="10.00" fill="#fecaca">blind_spots.geojson</text>
<text xml:space="preserve" text-anchor="middle" x="419.49" y="-1202.33" font-family="Arial" font-size="10.00" fill="#fecaca">Слепые зоны (Алгоритм B)</text>
<text xml:space="preserve" text-anchor="middle" x="419.49" y="-1190.33" font-family="Arial" font-size="10.00" fill="#fecaca">{h3_cell, severity, conflict_weight}</text>
</g>
<!-- norm_blind -->
<g id="node9" class="node">
<title>norm_blind</title>
<ellipse fill="#4c1d95" stroke="#7c3aed" cx="588.49" cy="-1072.36" rx="191.22" ry="29.19"/>
<text xml:space="preserve" text-anchor="middle" x="588.49" y="-1074.86" font-family="Arial" font-size="10.00" fill="#ddd6fe">S_blind(c) = severity(c) / max(severity) &#160;если blind_spot</text>
<text xml:space="preserve" text-anchor="middle" x="588.49" y="-1062.86" font-family="Arial" font-size="10.00" fill="#ddd6fe"> &#160;&#160;&#160;&#160;&#160;&#160;&#160;&#160;&#160;&#160;&#160;&#160;0.0 &#160;&#160;&#160;&#160;&#160;&#160;&#160;&#160;&#160;&#160;&#160;&#160;&#160;&#160;&#160;&#160;&#160;&#160;&#160;&#160;&#160;&#160;&#160;&#160;&#160;иначе</text>
</g>
<!-- in_blind&#45;&gt;norm_blind -->
<g id="edge6" class="edge">
<title>in_blind&#45;&gt;norm_blind</title>
<path fill="none" stroke="#94a3b8" stroke-width="1.5" d="M487.25,-1152.12C506.68,-1137 527.34,-1120.93 544.9,-1107.27"/>
<polygon fill="#94a3b8" stroke="#94a3b8" stroke-width="1.5" points="546.34,-1109.69 550.94,-1102.57 542.91,-1105.27 546.34,-1109.69"/>
</g>
<!-- in_danger -->
<g id="node3" class="node">
<title>in_danger</title>
<path fill="#78350f" stroke="#f59e0b" d="M761.43,-1676.27C761.43,-1676.27 481.69,-1676.27 481.69,-1676.27 475.69,-1676.27 466.14,-1671.43 462.59,-1666.59 462.59,-1666.59 398.64,-1579.39 398.64,-1579.39 395.1,-1574.55 397.55,-1569.71 403.55,-1569.71 403.55,-1569.71 683.29,-1569.71 683.29,-1569.71 689.29,-1569.71 698.84,-1574.55 702.39,-1579.39 702.39,-1579.39 766.33,-1666.59 766.33,-1666.59 769.88,-1671.43 767.43,-1676.27 761.43,-1676.27"/>
<text xml:space="preserve" text-anchor="middle" x="582.49" y="-1631.49" font-family="Arial" font-size="10.00" fill="#fde68a">dangerous_segments.geojson</text>
<text xml:space="preserve" text-anchor="middle" x="582.49" y="-1619.49" font-family="Arial" font-size="10.00" fill="#fde68a">Опасные сегменты (Алгоритм A)</text>
<text xml:space="preserve" text-anchor="middle" x="582.49" y="-1607.49" font-family="Arial" font-size="10.00" fill="#fde68a">{trip_id, verdict, peak_accel, coords}</text>
</g>
<!-- in_danger&#45;&gt;ph1 -->
<g id="edge2" class="edge">
<title>in_danger&#45;&gt;ph1</title>
<path fill="none" stroke="#94a3b8" stroke-width="1.5" d="M607.06,-1569.52C616.96,-1548.39 627.94,-1524.95 636.11,-1507.51"/>
<polygon fill="#94a3b8" stroke="#94a3b8" stroke-width="1.5" points="638.51,-1508.98 639.37,-1500.55 633.44,-1506.61 638.51,-1508.98"/>
</g>
<!-- seg_to_h3 -->
<g id="node5" class="node">
<title>seg_to_h3</title>
<ellipse fill="#3730a3" stroke="#818cf8" cx="541.49" cy="-1356.27" rx="140.83" ry="46.16"/>
<text xml:space="preserve" text-anchor="middle" x="541.49" y="-1370.77" font-family="Arial" font-size="10.00" fill="#e0e7ff">Для каждого опасного сегмента:</text>
<text xml:space="preserve" text-anchor="middle" x="541.49" y="-1358.77" font-family="Arial" font-size="10.00" fill="#e0e7ff"> &#160;для каждой координаты p сегмента:</text>
<text xml:space="preserve" text-anchor="middle" x="541.49" y="-1346.77" font-family="Arial" font-size="10.00" fill="#e0e7ff"> &#160;&#160;&#160;cell = H3.latlng_to_cell(p, res=9)</text>
<text xml:space="preserve" text-anchor="middle" x="541.49" y="-1334.77" font-family="Arial" font-size="10.00" fill="#e0e7ff"> &#160;&#160;&#160;danger_count[cell] += weight(verdict)</text>
</g>
<!-- ph1&#45;&gt;seg_to_h3 -->
<g id="edge3" class="edge">
<title>ph1&#45;&gt;seg_to_h3</title>
<path fill="none" stroke="#94a3b8" stroke-width="1.5" d="M633.16,-1461.62C620.91,-1447.68 603.11,-1427.41 586.43,-1408.44"/>
<polygon fill="#94a3b8" stroke="#94a3b8" stroke-width="1.5" points="588.75,-1406.83 581.37,-1402.67 584.55,-1410.53 588.75,-1406.83"/>
</g>
<!-- ph2 -->
<g id="node7" class="node">
<title>ph2</title>
<polygon fill="#1e1065" stroke="#4338ca" points="893.45,-1223.83 639.53,-1223.83 639.53,-1187.83 893.45,-1187.83 893.45,-1223.83"/>
<text xml:space="preserve" text-anchor="middle" x="766.49" y="-1202.33" font-family="Arial" font-size="10.00" fill="#a5b4fc">ФАЗ 2: НОРМАЛИЗАЦИЯ КОМПОНЕНТОВ [0, 1]</text>
</g>
<!-- seg_to_h3&#45;&gt;ph2 -->
<g id="edge4" class="edge">
<title>seg_to_h3&#45;&gt;ph2</title>
<path fill="none" stroke="#94a3b8" stroke-width="1.5" d="M603.27,-1314.51C644.64,-1287.22 697.6,-1252.28 731.78,-1229.73"/>
<polygon fill="#94a3b8" stroke="#94a3b8" stroke-width="1.5" points="733.02,-1232.27 738.15,-1225.53 729.93,-1227.59 733.02,-1232.27"/>
</g>
<!-- norm_danger -->
<g id="node10" class="node">
<title>norm_danger</title>
<ellipse fill="#78350f" stroke="#f59e0b" cx="178.49" cy="-1072.36" rx="178.49" ry="29.19"/>
<text xml:space="preserve" text-anchor="middle" x="178.49" y="-1074.86" font-family="Arial" font-size="10.00" fill="#fde68a">S_danger(c) = danger_count(c) / max(danger_count)</text>
<text xml:space="preserve" text-anchor="middle" x="178.49" y="-1062.86" font-family="Arial" font-size="10.00" fill="#fde68a">&#45;&gt; [0.0 .. 1.0]</text>
</g>
<!-- seg_to_h3&#45;&gt;norm_danger -->
<g id="edge7" class="edge">
<title>seg_to_h3&#45;&gt;norm_danger</title>
<path fill="none" stroke="#94a3b8" stroke-width="1.5" d="M404.15,-1345.82C339.66,-1334.32 266.76,-1309.96 219.49,-1259.11 182.38,-1219.2 176.08,-1153.56 176.28,-1111.95"/>
<polygon fill="#94a3b8" stroke="#94a3b8" stroke-width="1.5" points="179.08,-1112.23 176.42,-1104.19 173.48,-1112.13 179.08,-1112.23"/>
</g>
<!-- weight_def -->
<g id="node6" class="node">
<title>weight_def</title>
<polygon fill="#1e1b4b" stroke="#6366f1" points="480.45,-1506.71 382.53,-1506.71 382.53,-1453.43 486.45,-1453.43 486.45,-1500.71 480.45,-1506.71"/>
<polyline fill="none" stroke="#6366f1" points="480.45,-1506.71 480.45,-1500.71"/>
<polyline fill="none" stroke="#6366f1" points="486.45,-1500.71 480.45,-1500.71"/>
<text xml:space="preserve" text-anchor="middle" x="434.49" y="-1488.57" font-family="Arial" font-size="10.00" fill="#a5b4fc">weight(verdict):</text>
<text xml:space="preserve" text-anchor="middle" x="434.49" y="-1476.57" font-family="Arial" font-size="10.00" fill="#a5b4fc"> &#160;DANGER &#45;&gt; 2.0</text>
<text xml:space="preserve" text-anchor="middle" x="434.49" y="-1464.57" font-family="Arial" font-size="10.00" fill="#a5b4fc"> &#160;WARN &#160;&#160;&#45;&gt; 1.0</text>
</g>
<!-- weight_def&#45;&gt;seg_to_h3 -->
<g id="edge20" class="edge">
<title>weight_def&#45;&gt;seg_to_h3</title>
<path fill="none" stroke="#6366f1" stroke-width="1.5" stroke-dasharray="5,2" d="M457.44,-1452.94C468.84,-1439.97 483.02,-1423.82 496.47,-1408.52"/>
<polygon fill="#6366f1" stroke="#6366f1" stroke-width="1.5" points="498.32,-1410.65 501.5,-1402.79 494.11,-1406.96 498.32,-1410.65"/>
</g>
<!-- ph2&#45;&gt;norm_density -->
<g id="edge8" class="edge">
<title>ph2&#45;&gt;norm_density</title>
<path fill="none" stroke="#94a3b8" stroke-width="1.5" d="M795.3,-1187.37C829.5,-1166.66 887.22,-1131.69 929.73,-1105.93"/>
<polygon fill="#94a3b8" stroke="#94a3b8" stroke-width="1.5" points="930.96,-1108.46 936.35,-1101.92 928.06,-1103.67 930.96,-1108.46"/>
</g>
<!-- ph2&#45;&gt;norm_blind -->
<g id="edge9" class="edge">
<title>ph2&#45;&gt;norm_blind</title>
<path fill="none" stroke="#94a3b8" stroke-width="1.5" d="M742.85,-1187.37C715.27,-1167 669.03,-1132.85 634.34,-1107.22"/>
<polygon fill="#94a3b8" stroke="#94a3b8" stroke-width="1.5" points="636.15,-1105.09 628.06,-1102.59 632.83,-1109.59 636.15,-1105.09"/>
</g>
<!-- ph2&#45;&gt;norm_danger -->
<g id="edge10" class="edge">
<title>ph2&#45;&gt;norm_danger</title>
<path fill="none" stroke="#94a3b8" stroke-width="1.5" d="M723.34,-1187.37C694.35,-1176.17 655.09,-1162.01 619.49,-1152.55 521.94,-1126.64 409.99,-1106.65 323.3,-1093.24"/>
<polygon fill="#94a3b8" stroke="#94a3b8" stroke-width="1.5" points="323.96,-1090.51 315.63,-1092.06 323.11,-1096.04 323.96,-1090.51"/>
</g>
<!-- ph3 -->
<g id="node11" class="node">
<title>ph3</title>
<polygon fill="#1e1065" stroke="#4338ca" points="697.82,-933.78 479.15,-933.78 479.15,-897.78 697.82,-897.78 697.82,-933.78"/>
<text xml:space="preserve" text-anchor="middle" x="588.49" y="-912.28" font-family="Arial" font-size="10.00" fill="#a5b4fc">ФАЗ 3: ВЗВЕШЕННАЯ СУПЕРПОЗИЦИЯ</text>
</g>
<!-- norm_density&#45;&gt;ph3 -->
<g id="edge11" class="edge">
<title>norm_density&#45;&gt;ph3</title>
<path fill="none" stroke="#94a3b8" stroke-width="1.5" d="M886.82,-1048.34C835.74,-1034.72 772.59,-1015.56 718.49,-992.17 684.64,-977.54 648.54,-956.09 622.99,-939.8"/>
<polygon fill="#94a3b8" stroke="#94a3b8" stroke-width="1.5" points="624.57,-937.49 616.33,-935.51 621.54,-942.19 624.57,-937.49"/>
</g>
<!-- norm_blind&#45;&gt;ph3 -->
<g id="edge12" class="edge">
<title>norm_blind&#45;&gt;ph3</title>
<path fill="none" stroke="#94a3b8" stroke-width="1.5" d="M588.49,-1043.01C588.49,-1014.85 588.49,-971.96 588.49,-944.15"/>
<polygon fill="#94a3b8" stroke="#94a3b8" stroke-width="1.5" points="591.29,-944.21 588.49,-936.21 585.69,-944.21 591.29,-944.21"/>
</g>
<!-- norm_danger&#45;&gt;ph3 -->
<g id="edge13" class="edge">
<title>norm_danger&#45;&gt;ph3</title>
<path fill="none" stroke="#94a3b8" stroke-width="1.5" d="M248.04,-1045.14C328.45,-1014.82 459.18,-965.54 533.05,-937.68"/>
<polygon fill="#94a3b8" stroke="#94a3b8" stroke-width="1.5" points="533.59,-940.47 540.09,-935.03 531.61,-935.23 533.59,-940.47"/>
</g>
<!-- formula -->
<g id="node12" class="node">
<title>formula</title>
<ellipse fill="#5b21b6" stroke="#a78bfa" cx="711.49" cy="-708.29" rx="166.82" ry="80.1"/>
<text xml:space="preserve" text-anchor="middle" x="711.49" y="-746.79" font-family="Arial" font-size="10.00" fill="#ede9fe">safety_risk(c) =</text>
<text xml:space="preserve" text-anchor="middle" x="711.49" y="-734.79" font-family="Arial" font-size="10.00" fill="#ede9fe"> &#160;w1 * S_density(c) +</text>
<text xml:space="preserve" text-anchor="middle" x="711.49" y="-722.79" font-family="Arial" font-size="10.00" fill="#ede9fe"> &#160;w2 * S_blind(c) &#160;&#160;+</text>
<text xml:space="preserve" text-anchor="middle" x="711.49" y="-710.79" font-family="Arial" font-size="10.00" fill="#ede9fe"> &#160;w3 * S_danger(c)</text>
<text xml:space="preserve" text-anchor="middle" x="711.49" y="-698.79" font-family="Arial" font-size="10.00" fill="#ede9fe">────────────────────────</text>
<text xml:space="preserve" text-anchor="middle" x="711.49" y="-686.79" font-family="Arial" font-size="10.00" fill="#ede9fe"> &#160;w1 = 0.30 &#160;(плотность трафика)</text>
<text xml:space="preserve" text-anchor="middle" x="711.49" y="-674.79" font-family="Arial" font-size="10.00" fill="#ede9fe"> &#160;w2 = 0.45 &#160;(инфра&#45;дефицит) &#160;← главный вес</text>
<text xml:space="preserve" text-anchor="middle" x="711.49" y="-662.79" font-family="Arial" font-size="10.00" fill="#ede9fe"> &#160;w3 = 0.25 &#160;(зафиксированные события)</text>
</g>
<!-- ph3&#45;&gt;formula -->
<g id="edge14" class="edge">
<title>ph3&#45;&gt;formula</title>
<path fill="none" stroke="#94a3b8" stroke-width="1.5" d="M598.76,-897.62C612.45,-874.75 637.63,-832.68 660.73,-794.1"/>
<polygon fill="#94a3b8" stroke="#94a3b8" stroke-width="1.5" points="663.05,-795.66 664.76,-787.36 658.25,-792.79 663.05,-795.66"/>
</g>
<!-- check_w -->
<g id="node13" class="node">
<title>check_w</title>
<path fill="#4c1d95" stroke="#7c3aed" d="M699.76,-574.64C699.76,-574.64 588.54,-550.46 588.54,-550.46 582.68,-549.19 582.68,-546.64 588.54,-545.36 588.54,-545.36 699.76,-521.18 699.76,-521.18 705.62,-519.91 717.35,-519.91 723.21,-521.18 723.21,-521.18 834.43,-545.36 834.43,-545.36 840.29,-546.64 840.29,-549.19 834.43,-550.46 834.43,-550.46 723.21,-574.64 723.21,-574.64 717.35,-575.92 705.62,-575.92 699.76,-574.64"/>
<text xml:space="preserve" text-anchor="middle" x="711.49" y="-544.41" font-family="Arial" font-size="10.00" fill="#ddd6fe">sum(w1,w2,w3) == 1.0 ?</text>
</g>
<!-- formula&#45;&gt;check_w -->
<g id="edge15" class="edge">
<title>formula&#45;&gt;check_w</title>
<path fill="none" stroke="#94a3b8" stroke-width="1.5" d="M711.49,-628.1C711.49,-614.1 711.49,-600.11 711.49,-587.86"/>
<polygon fill="#94a3b8" stroke="#94a3b8" stroke-width="1.5" points="714.29,-587.86 711.49,-579.86 708.69,-587.86 714.29,-587.86"/>
</g>
<!-- ph4 -->
<g id="node14" class="node">
<title>ph4</title>
<polygon fill="#1e1065" stroke="#4338ca" points="857.57,-458.13 565.4,-458.13 565.4,-422.13 857.57,-422.13 857.57,-458.13"/>
<text xml:space="preserve" text-anchor="middle" x="711.49" y="-436.63" font-family="Arial" font-size="10.00" fill="#a5b4fc">ФАЗ 4: КЛАССИФИКАЦИЯ ЯЧЕЕК ПО УРОВНЮ РИСКА</text>
</g>
<!-- check_w&#45;&gt;ph4 -->
<g id="edge16" class="edge">
<title>check_w&#45;&gt;ph4</title>
<path fill="none" stroke="#94a3b8" stroke-width="1.5" d="M711.49,-518.28C711.49,-502.77 711.49,-483.71 711.49,-468.41"/>
<polygon fill="#94a3b8" stroke="#94a3b8" stroke-width="1.5" points="714.29,-468.78 711.49,-460.78 708.69,-468.78 714.29,-468.78"/>
<text xml:space="preserve" text-anchor="middle" x="735.11" y="-485.08" font-family="Arial" font-size="9.00" fill="#94a3b8">Да (всегда)</text>
</g>
<!-- classify -->
<g id="node15" class="node">
<title>classify</title>
<ellipse fill="#5b21b6" stroke="#a78bfa" cx="711.49" cy="-316.49" rx="168.41" ry="54.65"/>
<text xml:space="preserve" text-anchor="middle" x="711.49" y="-336.99" font-family="Arial" font-size="10.00" fill="#ede9fe">risk_class(c):</text>
<text xml:space="preserve" text-anchor="middle" x="711.49" y="-324.99" font-family="Arial" font-size="10.00" fill="#ede9fe"> &#160;safety_risk &gt;= 0.75 &#160;&#45;&gt; &#160;CRITICAL &#160;(красный)</text>
<text xml:space="preserve" text-anchor="middle" x="711.49" y="-312.99" font-family="Arial" font-size="10.00" fill="#ede9fe"> &#160;safety_risk &gt;= 0.50 &#160;&#45;&gt; &#160;HIGH &#160;&#160;&#160;&#160;&#160;(оранжевый)</text>
<text xml:space="preserve" text-anchor="middle" x="711.49" y="-300.99" font-family="Arial" font-size="10.00" fill="#ede9fe"> &#160;safety_risk &gt;= 0.25 &#160;&#45;&gt; &#160;MEDIUM &#160;&#160;&#160;(жёлтый)</text>
<text xml:space="preserve" text-anchor="middle" x="711.49" y="-288.99" font-family="Arial" font-size="10.00" fill="#ede9fe"> &#160;иначе &#160;&#160;&#160;&#160;&#160;&#160;&#160;&#160;&#160;&#160;&#160;&#160;&#160;&#160;&#160;&#45;&gt; &#160;LOW &#160;&#160;&#160;&#160;&#160;&#160;(синий)</text>
</g>
<!-- ph4&#45;&gt;classify -->
<g id="edge17" class="edge">
<title>ph4&#45;&gt;classify</title>
<path fill="none" stroke="#94a3b8" stroke-width="1.5" d="M711.49,-421.7C711.49,-410.97 711.49,-396.49 711.49,-381.73"/>
<polygon fill="#94a3b8" stroke="#94a3b8" stroke-width="1.5" points="714.29,-381.78 711.49,-373.78 708.69,-381.78 714.29,-381.78"/>
</g>
<!-- out -->
<g id="node16" class="node">
<title>out</title>
<path fill="#064e3b" stroke="#34d399" d="M872.54,-210.84C872.54,-210.84 621.25,-210.84 621.25,-210.84 615.25,-210.84 605.93,-205.84 602.61,-200.85 602.61,-200.85 545.08,-114.27 545.08,-114.27 541.75,-109.28 544.43,-104.28 550.43,-104.28 550.43,-104.28 801.72,-104.28 801.72,-104.28 807.72,-104.28 817.05,-109.28 820.37,-114.27 820.37,-114.27 877.9,-200.85 877.9,-200.85 881.22,-205.84 878.54,-210.84 872.54,-210.84"/>
<text xml:space="preserve" text-anchor="middle" x="711.49" y="-166.06" font-family="Arial" font-size="10.00" fill="#d1fae5">safety_heatmap.geojson</text>
<text xml:space="preserve" text-anchor="middle" x="711.49" y="-154.06" font-family="Arial" font-size="10.00" fill="#d1fae5">{h3_cell, safety_risk, risk_class,</text>
<text xml:space="preserve" text-anchor="middle" x="711.49" y="-142.06" font-family="Arial" font-size="10.00" fill="#d1fae5"> S_density, S_blind, S_danger}</text>
</g>
<!-- classify&#45;&gt;out -->
<g id="edge18" class="edge">
<title>classify&#45;&gt;out</title>
<path fill="none" stroke="#94a3b8" stroke-width="1.5" d="M711.49,-261.48C711.49,-248.55 711.49,-234.64 711.49,-221.35"/>
<polygon fill="#94a3b8" stroke="#94a3b8" stroke-width="1.5" points="714.29,-221.61 711.49,-213.61 708.69,-221.61 714.29,-221.61"/>
</g>
<!-- dashboard_layer -->
<g id="node17" class="node">
<title>dashboard_layer</title>
<path fill="#065f46" stroke="#34d399" d="M807.49,-53.28C807.49,-53.28 615.49,-53.28 615.49,-53.28 609.49,-53.28 603.49,-47.28 603.49,-41.28 603.49,-41.28 603.49,-12 603.49,-12 603.49,-6 609.49,0 615.49,0 615.49,0 807.49,0 807.49,0 813.49,0 819.49,-6 819.49,-12 819.49,-12 819.49,-41.28 819.49,-41.28 819.49,-47.28 813.49,-53.28 807.49,-53.28"/>
<text xml:space="preserve" text-anchor="middle" x="711.49" y="-35.14" font-family="Arial" font-size="10.00" fill="#d1fae5">H3HexagonLayer (deck.gl)</text>
<text xml:space="preserve" text-anchor="middle" x="711.49" y="-23.14" font-family="Arial" font-size="10.00" fill="#d1fae5">Цвет &#160;= risk_class</text>
<text xml:space="preserve" text-anchor="middle" x="711.49" y="-11.14" font-family="Arial" font-size="10.00" fill="#d1fae5">Высота = safety_risk * 500 м</text>
</g>
<!-- out&#45;&gt;dashboard_layer -->
<g id="edge19" class="edge">
<title>out&#45;&gt;dashboard_layer</title>
<path fill="none" stroke="#94a3b8" stroke-width="1.5" d="M711.49,-104.12C711.49,-90.51 711.49,-76.15 711.49,-63.6"/>
<polygon fill="#94a3b8" stroke="#94a3b8" stroke-width="1.5" points="714.29,-63.81 711.49,-55.81 708.69,-63.81 714.29,-63.81"/>
</g>
<!-- rationale -->
<g id="node18" class="node">
<title>rationale</title>
<polygon fill="#1e1b4b" stroke="#6366f1" points="926.82,-992.17 738.15,-992.17 738.15,-839.39 932.82,-839.39 932.82,-986.17 926.82,-992.17"/>
<polyline fill="none" stroke="#6366f1" points="926.82,-992.17 926.82,-986.17"/>
<polyline fill="none" stroke="#6366f1" points="932.82,-986.17 926.82,-986.17"/>
<text xml:space="preserve" text-anchor="middle" x="835.49" y="-974.98" font-family="Arial" font-size="9.00" fill="#a5b4fc">Обоснование весов:</text>
<text xml:space="preserve" text-anchor="middle" x="835.49" y="-964.48" font-family="Arial" font-size="9.00" fill="#a5b4fc">──────────────────────</text>
<text xml:space="preserve" text-anchor="middle" x="835.49" y="-953.98" font-family="Arial" font-size="9.00" fill="#a5b4fc">w2 (инфра&#45;дефицит) = 0.45:</text>
<text xml:space="preserve" text-anchor="middle" x="835.49" y="-943.48" font-family="Arial" font-size="9.00" fill="#a5b4fc">главный вклад — системная проблема,</text>
<text xml:space="preserve" text-anchor="middle" x="835.49" y="-932.98" font-family="Arial" font-size="9.00" fill="#a5b4fc">не случайное событие.</text>
<text xml:space="preserve" text-anchor="middle" x="835.49" y="-912.48" font-family="Arial" font-size="9.00" fill="#a5b4fc">w1 (плотность) = 0.30:</text>
<text xml:space="preserve" text-anchor="middle" x="835.49" y="-901.98" font-family="Arial" font-size="9.00" fill="#a5b4fc">больше трафика = больше риска</text>
<text xml:space="preserve" text-anchor="middle" x="835.49" y="-891.48" font-family="Arial" font-size="9.00" fill="#a5b4fc">даже без событий.</text>
<text xml:space="preserve" text-anchor="middle" x="835.49" y="-870.98" font-family="Arial" font-size="9.00" fill="#a5b4fc">w3 (события) = 0.25:</text>
<text xml:space="preserve" text-anchor="middle" x="835.49" y="-860.48" font-family="Arial" font-size="9.00" fill="#a5b4fc">наименьший вес — одиночные события</text>
<text xml:space="preserve" text-anchor="middle" x="835.49" y="-849.98" font-family="Arial" font-size="9.00" fill="#a5b4fc">могут быть GPS&#45;артефактами.</text>
</g>
<!-- rationale&#45;&gt;formula -->
<g id="edge21" class="edge">
<title>rationale&#45;&gt;formula</title>
<path fill="none" stroke="#6366f1" stroke-width="1.5" stroke-dasharray="5,2" d="M789.84,-839.14C779.28,-821.63 768.03,-802.99 757.45,-785.46"/>
</g>
</g>
</svg>
