<?xml version="1.0" encoding="UTF-8" standalone="no"?>
<!DOCTYPE svg PUBLIC "-//W3C//DTD SVG 1.1//EN"
 "http://www.w3.org/Graphics/SVG/1.1/DTD/svg11.dtd">
<!-- Generated by graphviz version 14.1.5 (20260411.2331)
 -->
<!-- Title: Deployment Pages: 1 -->
<svg width="1304pt" height="1184pt"
 viewBox="0.00 0.00 1304.00 1184.00" xmlns="http://www.w3.org/2000/svg" xmlns:xlink="http://www.w3.org/1999/xlink">
<g id="graph0" class="graph" transform="scale(1 1) rotate(0) translate(57.6 1126.59)">
<title>Deployment</title>
<polygon fill="#0f1117" stroke="none" points="-57.6,57.6 -57.6,-1126.59 1246.35,-1126.59 1246.35,57.6 -57.6,57.6"/>
<text xml:space="preserve" text-anchor="middle" x="594.38" y="-1030.79" font-family="Arial" font-size="16.00" fill="#e2e8f0">ТОПОЛОГИЯ РАЗВЁРТЫВАНИЯ ПЛАТФОРМЫ</text>
<text xml:space="preserve" text-anchor="middle" x="594.38" y="-1012.04" font-family="Arial" font-size="16.00" fill="#e2e8f0">(Диаграмма 10 из 9 &#160;| &#160;Physical + Cloud View)</text>
<g id="clust1" class="cluster">
<title>cluster_internet</title>
<path fill="#1c1917" stroke="#78716c" d="M345,-884.61C345,-884.61 1063,-884.61 1063,-884.61 1069,-884.61 1075,-890.61 1075,-896.61 1075,-896.61 1075,-984.49 1075,-984.49 1075,-990.49 1069,-996.49 1063,-996.49 1063,-996.49 345,-996.49 345,-996.49 339,-996.49 333,-990.49 333,-984.49 333,-984.49 333,-896.61 333,-896.61 333,-890.61 339,-884.61 345,-884.61"/>
<text xml:space="preserve" text-anchor="middle" x="704" y="-982.04" font-family="Arial" font-size="11.00" fill="#d6d3d1">ИНТЕРНЕТ / ВНЕШНИЕ ИСТОЧНИКИ</text>
</g>
<g id="clust2" class="cluster">
<title>cluster_dmz</title>
<path fill="#1c1917" stroke="#d97706" d="M353,-717.76C353,-717.76 661,-717.76 661,-717.76 667,-717.76 673,-723.76 673,-729.76 673,-729.76 673,-830.61 673,-830.61 673,-836.61 667,-842.61 661,-842.61 661,-842.61 353,-842.61 353,-842.61 347,-842.61 341,-836.61 341,-830.61 341,-830.61 341,-729.76 341,-729.76 341,-723.76 347,-717.76 353,-717.76"/>
<text xml:space="preserve" text-anchor="middle" x="507" y="-828.16" font-family="Arial" font-size="11.00" fill="#fcd34d">DMZ — ШЛЮЗ / БАЛАНСИРОВЩИК</text>
</g>
<g id="clust3" class="cluster">
<title>cluster_app</title>
<path fill="#1e3a5f" stroke="#2563eb" d="M313,-514.97C313,-514.97 662,-514.97 662,-514.97 668,-514.97 674,-520.97 674,-526.97 674,-526.97 674,-661.76 674,-661.76 674,-667.76 668,-673.76 662,-673.76 662,-673.76 313,-673.76 313,-673.76 307,-673.76 301,-667.76 301,-661.76 301,-661.76 301,-526.97 301,-526.97 301,-520.97 307,-514.97 313,-514.97"/>
<text xml:space="preserve" text-anchor="middle" x="487.5" y="-659.31" font-family="Arial" font-size="11.00" fill="#93c5fd">APP SERVERS (2x, active&#45;passive HA)</text>
</g>
<g id="clust4" class="cluster">
<title>cluster_kafka_d</title>
<path fill="#1e1065" stroke="#4338ca" d="M20,-348.21C20,-348.21 250,-348.21 250,-348.21 256,-348.21 262,-354.21 262,-360.21 262,-360.21 262,-643.75 262,-643.75 262,-649.75 256,-655.75 250,-655.75 250,-655.75 20,-655.75 20,-655.75 14,-655.75 8,-649.75 8,-643.75 8,-643.75 8,-360.21 8,-360.21 8,-354.21 14,-348.21 20,-348.21"/>
<text xml:space="preserve" text-anchor="middle" x="135" y="-641.3" font-family="Arial" font-size="11.00" fill="#a5b4fc">KAFKA CLUSTER (3 брокера)</text>
</g>
<g id="clust5" class="cluster">
<title>cluster_db</title>
<path fill="#2e1065" stroke="#7c3aed" d="M666,-177.89C666,-177.89 776,-177.89 776,-177.89 782,-177.89 788,-183.89 788,-189.89 788,-189.89 788,-458.97 788,-458.97 788,-464.97 782,-470.97 776,-470.97 776,-470.97 666,-470.97 666,-470.97 660,-470.97 654,-464.97 654,-458.97 654,-458.97 654,-189.89 654,-189.89 654,-183.89 660,-177.89 666,-177.89"/>
<text xml:space="preserve" text-anchor="middle" x="721" y="-456.52" font-family="Arial" font-size="11.00" fill="#c4b5fd">DATABASE SERVER</text>
</g>
<g id="clust6" class="cluster">
<title>cluster_cdn</title>
<path fill="#052e16" stroke="#059669" d="M931,-176.85C931,-176.85 1089,-176.85 1089,-176.85 1095,-176.85 1101,-182.85 1101,-188.85 1101,-188.85 1101,-451.77 1101,-451.77 1101,-457.77 1095,-463.77 1089,-463.77 1089,-463.77 931,-463.77 931,-463.77 925,-463.77 919,-457.77 919,-451.77 919,-451.77 919,-188.85 919,-188.85 919,-182.85 925,-176.85 931,-176.85"/>
<text xml:space="preserve" text-anchor="middle" x="1010" y="-449.32" font-family="Arial" font-size="11.00" fill="#6ee7b7">STATIC / CDN</text>
</g>
<g id="clust7" class="cluster">
<title>cluster_client</title>
<path fill="#1c1917" stroke="#78716c" d="M914,-8C914,-8 1112,-8 1112,-8 1118,-8 1124,-14 1124,-20 1124,-20 1124,-120.85 1124,-120.85 1124,-126.85 1118,-132.85 1112,-132.85 1112,-132.85 914,-132.85 914,-132.85 908,-132.85 902,-126.85 902,-120.85 902,-120.85 902,-20 902,-20 902,-14 908,-8 914,-8"/>
<text xml:space="preserve" text-anchor="middle" x="1013" y="-118.4" font-family="Arial" font-size="11.00" fill="#d6d3d1">КЛИЕНТСКАЯ СЕТЬ (ЦУП)</text>
</g>
<g id="clust8" class="cluster">
<title>cluster_mon</title>
<path fill="#1c1917" stroke="#6b7280" d="M509,-189.33C509,-189.33 629,-189.33 629,-189.33 635,-189.33 641,-195.33 641,-201.33 641,-201.33 641,-275.71 641,-275.71 641,-281.71 635,-287.71 629,-287.71 629,-287.71 509,-287.71 509,-287.71 503,-287.71 497,-281.71 497,-275.71 497,-275.71 497,-201.33 497,-201.33 497,-195.33 503,-189.33 509,-189.33"/>
<text xml:space="preserve" text-anchor="middle" x="569" y="-274.21" font-family="Arial" font-size="10.00" fill="#9ca3af">МОНИТОРИНГ</text>
</g>
<!-- op_bolt -->
<g id="node1" class="node">
<title>op_bolt</title>
<ellipse fill="#374151" stroke="#6b7280" cx="591" cy="-929.8" rx="66.59" ry="29.19"/>
<text xml:space="preserve" text-anchor="middle" x="591" y="-932.3" font-family="Arial" font-size="10.00" fill="#f9fafb">Bolt API</text>
<text xml:space="preserve" text-anchor="middle" x="591" y="-920.3" font-family="Arial" font-size="10.00" fill="#f9fafb">(MDS endpoint)</text>
</g>
<!-- nginx -->
<g id="node5" class="node">
<title>nginx</title>
<ellipse fill="#78350f" stroke="#f59e0b" cx="590" cy="-769.44" rx="69.24" ry="37.67"/>
<text xml:space="preserve" text-anchor="middle" x="590" y="-777.94" font-family="Arial" font-size="10.00" fill="#fde68a">nginx</text>
<text xml:space="preserve" text-anchor="middle" x="590" y="-765.94" font-family="Arial" font-size="10.00" fill="#fde68a">(reverse proxy</text>
<text xml:space="preserve" text-anchor="middle" x="590" y="-753.94" font-family="Arial" font-size="10.00" fill="#fde68a">TLS termination)</text>
</g>
<!-- op_bolt&#45;&gt;nginx -->
<g id="edge1" class="edge">
<title>op_bolt&#45;&gt;nginx</title>
<path fill="none" stroke="#94a3b8" stroke-width="1.4" d="M590.82,-900.12C590.67,-876.82 590.46,-843.5 590.29,-816.47"/>
<polygon fill="#94a3b8" stroke="#94a3b8" stroke-width="1.4" points="592.74,-816.67 590.25,-809.69 587.84,-816.7 592.74,-816.67"/>
<text xml:space="preserve" text-anchor="middle" x="608.99" y="-863.06" font-family="Arial" font-size="9.00" fill="#94a3b8">HTTPS</text>
<text xml:space="preserve" text-anchor="middle" x="608.99" y="-852.56" font-family="Arial" font-size="9.00" fill="#94a3b8">MDS API</text>
</g>
<!-- op_whoosh -->
<g id="node2" class="node">
<title>op_whoosh</title>
<ellipse fill="#374151" stroke="#6b7280" cx="770" cy="-929.8" rx="69.77" ry="29.19"/>
<text xml:space="preserve" text-anchor="middle" x="770" y="-932.3" font-family="Arial" font-size="10.00" fill="#f9fafb">Whoosh API</text>
<text xml:space="preserve" text-anchor="middle" x="770" y="-920.3" font-family="Arial" font-size="10.00" fill="#f9fafb">(GBFS endpoint)</text>
</g>
<!-- op_whoosh&#45;&gt;nginx -->
<g id="edge2" class="edge">
<title>op_whoosh&#45;&gt;nginx</title>
<path fill="none" stroke="#94a3b8" stroke-width="1.4" d="M740.68,-903.01C711.26,-877.12 665.65,-837 632.31,-807.67"/>
<polygon fill="#94a3b8" stroke="#94a3b8" stroke-width="1.4" points="634.28,-806.14 627.41,-803.35 631.05,-809.81 634.28,-806.14"/>
<text xml:space="preserve" text-anchor="middle" x="716.04" y="-863.06" font-family="Arial" font-size="9.00" fill="#94a3b8">HTTPS</text>
<text xml:space="preserve" text-anchor="middle" x="716.04" y="-852.56" font-family="Arial" font-size="9.00" fill="#94a3b8">GBFS</text>
</g>
<!-- op_iot -->
<g id="node3" class="node">
<title>op_iot</title>
<ellipse fill="#374151" stroke="#6b7280" cx="415" cy="-929.8" rx="66.06" ry="29.19"/>
<text xml:space="preserve" text-anchor="middle" x="415" y="-932.3" font-family="Arial" font-size="10.00" fill="#f9fafb">IoT&#45;устройства</text>
<text xml:space="preserve" text-anchor="middle" x="415" y="-920.3" font-family="Arial" font-size="10.00" fill="#f9fafb">(GPS модули)</text>
</g>
<!-- mqtt_gw -->
<g id="node6" class="node">
<title>mqtt_gw</title>
<ellipse fill="#78350f" stroke="#f59e0b" cx="416" cy="-769.44" rx="61.28" ry="37.67"/>
<text xml:space="preserve" text-anchor="middle" x="416" y="-777.94" font-family="Arial" font-size="10.00" fill="#fde68a">MQTT Broker</text>
<text xml:space="preserve" text-anchor="middle" x="416" y="-765.94" font-family="Arial" font-size="10.00" fill="#fde68a">(Mosquitto)</text>
<text xml:space="preserve" text-anchor="middle" x="416" y="-753.94" font-family="Arial" font-size="10.00" fill="#fde68a">port 8883 TLS</text>
</g>
<!-- op_iot&#45;&gt;mqtt_gw -->
<g id="edge3" class="edge">
<title>op_iot&#45;&gt;mqtt_gw</title>
<path fill="none" stroke="#94a3b8" stroke-width="1.4" d="M415.18,-900.12C415.33,-876.82 415.54,-843.5 415.71,-816.47"/>
<polygon fill="#94a3b8" stroke="#94a3b8" stroke-width="1.4" points="418.16,-816.7 415.75,-809.69 413.26,-816.67 418.16,-816.7"/>
<text xml:space="preserve" text-anchor="middle" x="437.22" y="-863.06" font-family="Arial" font-size="9.00" fill="#94a3b8">MQTT TLS</text>
<text xml:space="preserve" text-anchor="middle" x="437.22" y="-852.56" font-family="Arial" font-size="9.00" fill="#94a3b8">8883</text>
</g>
<!-- osm_tile -->
<g id="node4" class="node">
<title>osm_tile</title>
<ellipse fill="#374151" stroke="#6b7280" cx="971" cy="-929.8" rx="88.33" ry="29.19"/>
<text xml:space="preserve" text-anchor="middle" x="971" y="-932.3" font-family="Arial" font-size="10.00" fill="#f9fafb">OSM / CartoDB</text>
<text xml:space="preserve" text-anchor="middle" x="971" y="-920.3" font-family="Arial" font-size="10.00" fill="#f9fafb">(карточная подложка)</text>
</g>
<!-- cf -->
<g id="node15" class="node">
<title>cf</title>
<ellipse fill="#064e3b" stroke="#10b981" cx="1013" cy="-228.52" rx="71.89" ry="37.67"/>
<text xml:space="preserve" text-anchor="middle" x="1013" y="-237.02" font-family="Arial" font-size="10.00" fill="#d1fae5">Cloudflare CDN</text>
<text xml:space="preserve" text-anchor="middle" x="1013" y="-225.02" font-family="Arial" font-size="10.00" fill="#d1fae5">(edge cache</text>
<text xml:space="preserve" text-anchor="middle" x="1013" y="-213.02" font-family="Arial" font-size="10.00" fill="#d1fae5">DDoS protection)</text>
</g>
<!-- osm_tile&#45;&gt;cf -->
<g id="edge4" class="edge">
<title>osm_tile&#45;&gt;cf</title>
<path fill="none" stroke="#94a3b8" stroke-width="1.4" stroke-dasharray="5,2" d="M1027.77,-907.11C1080.85,-882.69 1152,-837.45 1152,-770.44 1152,-770.44 1152,-770.44 1152,-389.59 1152,-335.54 1106.26,-290.83 1067.25,-262.53"/>
<polygon fill="#94a3b8" stroke="#94a3b8" stroke-width="1.4" points="1068.92,-260.7 1061.79,-258.66 1066.09,-264.7 1068.92,-260.7"/>
<text xml:space="preserve" text-anchor="middle" x="1170.38" y="-585.57" font-family="Arial" font-size="9.00" fill="#94a3b8">map tiles</text>
<text xml:space="preserve" text-anchor="middle" x="1170.38" y="-575.07" font-family="Arial" font-size="9.00" fill="#94a3b8">HTTPS</text>
</g>
<!-- app1 -->
<g id="node7" class="node">
<title>app1</title>
<ellipse fill="#1d4ed8" stroke="#60a5fa" cx="590" cy="-583.62" rx="69.77" ry="54.65"/>
<text xml:space="preserve" text-anchor="middle" x="590" y="-604.12" font-family="Arial" font-size="10.00" fill="#eff6ff">App Server 1</text>
<text xml:space="preserve" text-anchor="middle" x="590" y="-592.12" font-family="Arial" font-size="10.00" fill="#eff6ff">4 CPU / 16 GB</text>
<text xml:space="preserve" text-anchor="middle" x="590" y="-580.12" font-family="Arial" font-size="10.00" fill="#eff6ff">Faust workers</text>
<text xml:space="preserve" text-anchor="middle" x="590" y="-568.12" font-family="Arial" font-size="10.00" fill="#eff6ff">MDS adapter</text>
<text xml:space="preserve" text-anchor="middle" x="590" y="-556.12" font-family="Arial" font-size="10.00" fill="#eff6ff">GBFS consumer</text>
</g>
<!-- nginx&#45;&gt;app1 -->
<g id="edge5" class="edge">
<title>nginx&#45;&gt;app1</title>
<path fill="none" stroke="#94a3b8" stroke-width="1.4" d="M590,-731.68C590,-707.67 590,-675.68 590,-647.68"/>
<polygon fill="#94a3b8" stroke="#94a3b8" stroke-width="1.4" points="592.45,-647.86 590,-640.86 587.55,-647.86 592.45,-647.86"/>
<text xml:space="preserve" text-anchor="middle" x="602" y="-694.21" font-family="Arial" font-size="9.00" fill="#94a3b8">REST</text>
<text xml:space="preserve" text-anchor="middle" x="602" y="-683.71" font-family="Arial" font-size="9.00" fill="#94a3b8">proxy</text>
</g>
<!-- k1 -->
<g id="node9" class="node">
<title>k1</title>
<path fill="#3730a3" stroke="#818cf8" d="M113.59,-413.81C113.59,-416.66 93.15,-418.97 68,-418.97 42.85,-418.97 22.41,-416.66 22.41,-413.81 22.41,-413.81 22.41,-367.37 22.41,-367.37 22.41,-364.53 42.85,-362.21 68,-362.21 93.15,-362.21 113.59,-364.53 113.59,-367.37 113.59,-367.37 113.59,-413.81 113.59,-413.81"/>
<path fill="none" stroke="#818cf8" d="M113.59,-413.81C113.59,-410.97 93.15,-408.65 68,-408.65 42.85,-408.65 22.41,-410.97 22.41,-413.81"/>
<text xml:space="preserve" text-anchor="middle" x="68" y="-393.09" font-family="Arial" font-size="10.00" fill="#e0e7ff">Kafka Broker 1</text>
<text xml:space="preserve" text-anchor="middle" x="68" y="-381.09" font-family="Arial" font-size="10.00" fill="#e0e7ff">4 CPU / 8 GB</text>
</g>
<!-- mqtt_gw&#45;&gt;k1 -->
<g id="edge6" class="edge">
<title>mqtt_gw&#45;&gt;k1</title>
<path fill="none" stroke="#94a3b8" stroke-width="1.4" d="M364.86,-748.26C329.87,-732.34 284.39,-707.23 253.5,-673.76 188.37,-603.2 232.42,-542.04 160,-478.97 151.2,-471.31 144.7,-477.46 135,-470.97 117.58,-459.32 102.17,-441.89 90.54,-426.33"/>
<polygon fill="#94a3b8" stroke="#94a3b8" stroke-width="1.4" points="92.8,-425.28 86.71,-421.05 88.84,-428.16 92.8,-425.28"/>
<text xml:space="preserve" text-anchor="middle" x="272.25" y="-585.57" font-family="Arial" font-size="9.00" fill="#94a3b8">telemetry</text>
<text xml:space="preserve" text-anchor="middle" x="272.25" y="-575.07" font-family="Arial" font-size="9.00" fill="#94a3b8">events</text>
</g>
<!-- app1&#45;&gt;k1 -->
<g id="edge7" class="edge">
<title>app1&#45;&gt;k1</title>
<path fill="none" stroke="#94a3b8" stroke-width="1.4" d="M544.78,-541.43C531,-531.07 515.19,-521.14 499,-514.97 429.06,-488.31 403.47,-519.66 331.25,-499.97 310.25,-494.25 308.1,-484.31 287,-478.97 254.21,-470.68 165.29,-486.03 135,-470.97 115.53,-461.3 99.54,-443.14 88.07,-426.62"/>
<polygon fill="#94a3b8" stroke="#94a3b8" stroke-width="1.4" points="90.22,-425.42 84.3,-420.95 86.14,-428.14 90.22,-425.42"/>
<text xml:space="preserve" text-anchor="middle" x="348.12" y="-491.42" font-family="Arial" font-size="9.00" fill="#94a3b8">produce</text>
<text xml:space="preserve" text-anchor="middle" x="348.12" y="-480.92" font-family="Arial" font-size="9.00" fill="#94a3b8">events</text>
</g>
<!-- k2 -->
<g id="node10" class="node">
<title>k2</title>
<path fill="#3730a3" stroke="#818cf8" d="M247.59,-413.81C247.59,-416.66 227.15,-418.97 202,-418.97 176.85,-418.97 156.41,-416.66 156.41,-413.81 156.41,-413.81 156.41,-367.37 156.41,-367.37 156.41,-364.53 176.85,-362.21 202,-362.21 227.15,-362.21 247.59,-364.53 247.59,-367.37 247.59,-367.37 247.59,-413.81 247.59,-413.81"/>
<path fill="none" stroke="#818cf8" d="M247.59,-413.81C247.59,-410.97 227.15,-408.65 202,-408.65 176.85,-408.65 156.41,-410.97 156.41,-413.81"/>
<text xml:space="preserve" text-anchor="middle" x="202" y="-393.09" font-family="Arial" font-size="10.00" fill="#e0e7ff">Kafka Broker 2</text>
<text xml:space="preserve" text-anchor="middle" x="202" y="-381.09" font-family="Arial" font-size="10.00" fill="#e0e7ff">4 CPU / 8 GB</text>
</g>
<!-- app1&#45;&gt;k2 -->
<g id="edge8" class="edge">
<title>app1&#45;&gt;k2</title>
<path fill="none" stroke="#94a3b8" stroke-width="1.4" d="M576.31,-529.55C569.14,-511.2 558.52,-491.99 543,-478.97 520.99,-460.51 347.42,-422.05 256.75,-402.91"/>
<polygon fill="#94a3b8" stroke="#94a3b8" stroke-width="1.4" points="257.41,-400.54 250.05,-401.5 256.4,-405.34 257.41,-400.54"/>
<text xml:space="preserve" text-anchor="middle" x="577.97" y="-491.42" font-family="Arial" font-size="9.00" fill="#94a3b8">produce</text>
<text xml:space="preserve" text-anchor="middle" x="577.97" y="-480.92" font-family="Arial" font-size="9.00" fill="#94a3b8">events</text>
</g>
<!-- pg -->
<g id="node12" class="node">
<title>pg</title>
<path fill="#5b21b6" stroke="#a78bfa" d="M774.46,-427.31C774.46,-431.82 750.5,-435.47 721,-435.47 691.5,-435.47 667.54,-431.82 667.54,-427.31 667.54,-427.31 667.54,-353.87 667.54,-353.87 667.54,-349.37 691.5,-345.71 721,-345.71 750.5,-345.71 774.46,-349.37 774.46,-353.87 774.46,-353.87 774.46,-427.31 774.46,-427.31"/>
<path fill="none" stroke="#a78bfa" d="M774.46,-427.31C774.46,-422.81 750.5,-419.15 721,-419.15 691.5,-419.15 667.54,-422.81 667.54,-427.31"/>
<text xml:space="preserve" text-anchor="middle" x="721" y="-405.09" font-family="Arial" font-size="10.00" fill="#ede9fe">PostgreSQL 16</text>
<text xml:space="preserve" text-anchor="middle" x="721" y="-393.09" font-family="Arial" font-size="10.00" fill="#ede9fe">+ PostGIS 3.4</text>
<text xml:space="preserve" text-anchor="middle" x="721" y="-381.09" font-family="Arial" font-size="10.00" fill="#ede9fe">8 CPU / 32 GB</text>
<text xml:space="preserve" text-anchor="middle" x="721" y="-369.09" font-family="Arial" font-size="10.00" fill="#ede9fe">GIST spatial index</text>
</g>
<!-- app1&#45;&gt;pg -->
<g id="edge14" class="edge">
<title>app1&#45;&gt;pg</title>
<path fill="none" stroke="#94a3b8" stroke-width="1.4" d="M636.58,-543.01C649.81,-530.2 663.47,-515.32 674,-499.97 685.67,-482.96 695.43,-462.58 702.97,-444.11"/>
<polygon fill="#94a3b8" stroke="#94a3b8" stroke-width="1.4" points="705.19,-445.16 705.5,-437.75 700.64,-443.35 705.19,-445.16"/>
<text xml:space="preserve" text-anchor="middle" x="699.23" y="-491.42" font-family="Arial" font-size="9.00" fill="#94a3b8">upsert</text>
<text xml:space="preserve" text-anchor="middle" x="699.23" y="-480.92" font-family="Arial" font-size="9.00" fill="#94a3b8">results</text>
</g>
<!-- cdn -->
<g id="node14" class="node">
<title>cdn</title>
<ellipse fill="#065f46" stroke="#34d399" cx="1010" cy="-390.59" rx="76.66" ry="37.67"/>
<text xml:space="preserve" text-anchor="middle" x="1010" y="-399.09" font-family="Arial" font-size="10.00" fill="#d1fae5">Nginx Static</text>
<text xml:space="preserve" text-anchor="middle" x="1010" y="-387.09" font-family="Arial" font-size="10.00" fill="#d1fae5">(GeoJSON files</text>
<text xml:space="preserve" text-anchor="middle" x="1010" y="-375.09" font-family="Arial" font-size="10.00" fill="#d1fae5">React SPA bundle)</text>
</g>
<!-- app1&#45;&gt;cdn -->
<g id="edge17" class="edge">
<title>app1&#45;&gt;cdn</title>
<path fill="none" stroke="#94a3b8" stroke-width="1.4" d="M658.88,-573.32C722.49,-562.58 818.02,-540.87 892,-499.97 923.35,-482.64 953.02,-455.32 974.77,-432.44"/>
<polygon fill="#94a3b8" stroke="#94a3b8" stroke-width="1.4" points="976.53,-434.15 979.52,-427.36 972.95,-430.8 976.53,-434.15"/>
<text xml:space="preserve" text-anchor="middle" x="941.83" y="-491.42" font-family="Arial" font-size="9.00" fill="#94a3b8">export</text>
<text xml:space="preserve" text-anchor="middle" x="941.83" y="-480.92" font-family="Arial" font-size="9.00" fill="#94a3b8">GeoJSON</text>
</g>
<!-- grafana -->
<g id="node17" class="node">
<title>grafana</title>
<ellipse fill="#292524" stroke="#6b7280" cx="569" cy="-228.52" rx="61.82" ry="29.19"/>
<text xml:space="preserve" text-anchor="middle" x="569" y="-231.02" font-family="Arial" font-size="10.00" fill="#d6d3d1">Grafana</text>
<text xml:space="preserve" text-anchor="middle" x="569" y="-219.02" font-family="Arial" font-size="10.00" fill="#d6d3d1">+ Prometheus</text>
</g>
<!-- app1&#45;&gt;grafana -->
<g id="edge20" class="edge">
<title>app1&#45;&gt;grafana</title>
<path fill="none" stroke="#94a3b8" stroke-width="1.4" stroke-dasharray="5,2" d="M601.1,-529.46C602.72,-519.7 604.14,-509.56 605,-499.97 612.55,-416.13 592.27,-318.36 579.16,-266.4"/>
<polygon fill="#94a3b8" stroke="#94a3b8" stroke-width="1.4" points="581.6,-266.08 577.49,-259.91 576.86,-267.3 581.6,-266.08"/>
<text xml:space="preserve" text-anchor="middle" x="621.26" y="-387.29" font-family="Arial" font-size="9.00" fill="#94a3b8">metrics</text>
</g>
<!-- app2 -->
<g id="node8" class="node">
<title>app2</title>
<ellipse fill="#1e40af" stroke="#3b82f6" stroke-dasharray="5,2" cx="396" cy="-583.62" rx="81.44" ry="37.67"/>
<text xml:space="preserve" text-anchor="middle" x="396" y="-592.12" font-family="Arial" font-size="10.00" fill="#eff6ff">App Server 2</text>
<text xml:space="preserve" text-anchor="middle" x="396" y="-580.12" font-family="Arial" font-size="10.00" fill="#eff6ff">4 CPU / 16 GB</text>
<text xml:space="preserve" text-anchor="middle" x="396" y="-568.12" font-family="Arial" font-size="10.00" fill="#eff6ff">(standby / scale&#45;out)</text>
</g>
<!-- app2&#45;&gt;k1 -->
<g id="edge9" class="edge">
<title>app2&#45;&gt;k1</title>
<path fill="none" stroke="#94a3b8" stroke-width="1.4" stroke-dasharray="5,2" d="M345.16,-553.79C292.33,-523.93 216.32,-481.29 209,-478.97 177.47,-468.98 164.21,-486.5 135,-470.97 115.94,-460.84 100.06,-442.83 88.55,-426.53"/>
<polygon fill="#94a3b8" stroke="#94a3b8" stroke-width="1.4" points="90.72,-425.37 84.77,-420.95 86.67,-428.12 90.72,-425.37"/>
<text xml:space="preserve" text-anchor="middle" x="261.31" y="-486.17" font-family="Arial" font-size="9.00" fill="#94a3b8">standby</text>
</g>
<!-- k1&#45;&gt;app1 -->
<g id="edge10" class="edge">
<title>k1&#45;&gt;app1</title>
<path fill="none" stroke="#94a3b8" stroke-width="1.4" d="M88,-426.78C99.45,-443.33 115.44,-461.48 135,-470.97 158.6,-482.43 345.69,-472.06 371,-478.97 389.8,-484.11 391.08,-493.61 409.5,-499.97 447.62,-513.15 461.89,-499.17 499,-514.97 512.2,-520.59 525.26,-528.5 537.19,-536.93"/>
<polygon fill="#94a3b8" stroke="#94a3b8" stroke-width="1.4" points="90.14,-425.57 84.23,-421.09 86.05,-428.28 90.14,-425.57"/>
<polygon fill="#94a3b8" stroke="#94a3b8" stroke-width="1.4" points="535.65,-538.84 542.75,-540.98 538.53,-534.88 535.65,-538.84"/>
<text xml:space="preserve" text-anchor="middle" x="428.25" y="-491.42" font-family="Arial" font-size="9.00" fill="#94a3b8">consume</text>
<text xml:space="preserve" text-anchor="middle" x="428.25" y="-480.92" font-family="Arial" font-size="9.00" fill="#94a3b8">Faust</text>
</g>
<!-- k1&#45;&gt;grafana -->
<g id="edge21" class="edge">
<title>k1&#45;&gt;grafana</title>
<path fill="none" stroke="#94a3b8" stroke-width="1.4" stroke-dasharray="5,2" d="M104.01,-363.02C113.72,-356.7 124.47,-350.43 135,-345.71 258.9,-290.28 414.9,-256.52 502.11,-240.58"/>
<polygon fill="#94a3b8" stroke="#94a3b8" stroke-width="1.4" points="502.31,-243.04 508.76,-239.38 501.44,-238.21 502.31,-243.04"/>
<text xml:space="preserve" text-anchor="middle" x="284.09" y="-302.91" font-family="Arial" font-size="9.00" fill="#94a3b8">lag metrics</text>
</g>
<!-- k2&#45;&gt;app1 -->
<g id="edge11" class="edge">
<title>k2&#45;&gt;app1</title>
<path fill="none" stroke="#94a3b8" stroke-width="1.4" d="M256.24,-404.56C309.39,-418.53 391.7,-443.63 457,-478.97 485.7,-494.51 514.63,-516.17 538.15,-535.68"/>
<polygon fill="#94a3b8" stroke="#94a3b8" stroke-width="1.4" points="257.08,-402.24 249.69,-402.86 255.85,-406.99 257.08,-402.24"/>
<polygon fill="#94a3b8" stroke="#94a3b8" stroke-width="1.4" points="536.39,-537.4 543.32,-540.02 539.54,-533.64 536.39,-537.4"/>
<text xml:space="preserve" text-anchor="middle" x="507.2" y="-491.42" font-family="Arial" font-size="9.00" fill="#94a3b8">consume</text>
<text xml:space="preserve" text-anchor="middle" x="507.2" y="-480.92" font-family="Arial" font-size="9.00" fill="#94a3b8">Faust</text>
</g>
<!-- k3 -->
<g id="node11" class="node">
<title>k3</title>
<path fill="#312e81" stroke="#6366f1" d="M113.59,-613.59C113.59,-617.26 93.15,-620.25 68,-620.25 42.85,-620.25 22.41,-617.26 22.41,-613.59 22.41,-613.59 22.41,-553.65 22.41,-553.65 22.41,-549.97 42.85,-546.99 68,-546.99 93.15,-546.99 113.59,-549.97 113.59,-553.65 113.59,-553.65 113.59,-613.59 113.59,-613.59"/>
<path fill="none" stroke="#6366f1" d="M113.59,-613.59C113.59,-609.91 93.15,-606.93 68,-606.93 42.85,-606.93 22.41,-609.91 22.41,-613.59"/>
<text xml:space="preserve" text-anchor="middle" x="68" y="-592.12" font-family="Arial" font-size="10.00" fill="#c7d2fe">Kafka Broker 3</text>
<text xml:space="preserve" text-anchor="middle" x="68" y="-580.12" font-family="Arial" font-size="10.00" fill="#c7d2fe">(ZooKeeper)</text>
<text xml:space="preserve" text-anchor="middle" x="68" y="-568.12" font-family="Arial" font-size="10.00" fill="#c7d2fe">4 CPU / 8 GB</text>
</g>
<!-- k3&#45;&gt;k1 -->
<g id="edge12" class="edge">
<title>k3&#45;&gt;k1</title>
<path fill="none" stroke="#94a3b8" stroke-width="1.4" stroke-dasharray="5,2" d="M63.65,-546.88C62.08,-532.35 60.52,-515.38 59.75,-499.97 58.38,-472.46 61.26,-441.07 63.98,-419.19"/>
<text xml:space="preserve" text-anchor="middle" x="71.38" y="-491.42" font-family="Arial" font-size="9.00" fill="#94a3b8">ZK</text>
<text xml:space="preserve" text-anchor="middle" x="71.38" y="-480.92" font-family="Arial" font-size="9.00" fill="#94a3b8">coord</text>
</g>
<!-- k3&#45;&gt;k2 -->
<g id="edge13" class="edge">
<title>k3&#45;&gt;k2</title>
<path fill="none" stroke="#94a3b8" stroke-width="1.4" stroke-dasharray="5,2" d="M93.2,-546.69C119.13,-509.73 158.97,-452.94 182.56,-419.31"/>
<text xml:space="preserve" text-anchor="middle" x="150.64" y="-491.42" font-family="Arial" font-size="9.00" fill="#94a3b8">ZK</text>
<text xml:space="preserve" text-anchor="middle" x="150.64" y="-480.92" font-family="Arial" font-size="9.00" fill="#94a3b8">coord</text>
</g>
<!-- pg_replica -->
<g id="node13" class="node">
<title>pg_replica</title>
<path fill="#4c1d95" stroke="#7c3aed" stroke-dasharray="5,2" d="M773.09,-258.49C773.09,-262.17 754.67,-265.15 732,-265.15 709.33,-265.15 690.91,-262.17 690.91,-258.49 690.91,-258.49 690.91,-198.55 690.91,-198.55 690.91,-194.88 709.33,-191.89 732,-191.89 754.67,-191.89 773.09,-194.88 773.09,-198.55 773.09,-198.55 773.09,-258.49 773.09,-258.49"/>
<path fill="none" stroke="#7c3aed" stroke-dasharray="5,2" d="M773.09,-258.49C773.09,-254.82 754.67,-251.83 732,-251.83 709.33,-251.83 690.91,-254.82 690.91,-258.49"/>
<text xml:space="preserve" text-anchor="middle" x="732" y="-237.02" font-family="Arial" font-size="10.00" fill="#ddd6fe">PG Replica</text>
<text xml:space="preserve" text-anchor="middle" x="732" y="-225.02" font-family="Arial" font-size="10.00" fill="#ddd6fe">(read&#45;only</text>
<text xml:space="preserve" text-anchor="middle" x="732" y="-213.02" font-family="Arial" font-size="10.00" fill="#ddd6fe">for analytics)</text>
</g>
<!-- pg&#45;&gt;pg_replica -->
<g id="edge15" class="edge">
<title>pg&#45;&gt;pg_replica</title>
<path fill="none" stroke="#94a3b8" stroke-width="1.4" stroke-dasharray="5,2" d="M724.03,-345.43C725.56,-323.31 727.39,-296.57 728.92,-274.36"/>
<polygon fill="#94a3b8" stroke="#94a3b8" stroke-width="1.4" points="731.35,-274.72 729.39,-267.57 726.46,-274.39 731.35,-274.72"/>
<text xml:space="preserve" text-anchor="middle" x="748.53" y="-308.16" font-family="Arial" font-size="9.00" fill="#94a3b8">streaming</text>
<text xml:space="preserve" text-anchor="middle" x="748.53" y="-297.66" font-family="Arial" font-size="9.00" fill="#94a3b8">replication</text>
</g>
<!-- pg&#45;&gt;grafana -->
<g id="edge22" class="edge">
<title>pg&#45;&gt;grafana</title>
<path fill="none" stroke="#94a3b8" stroke-width="1.4" stroke-dasharray="5,2" d="M680.67,-347.12C655.31,-320.42 623.12,-286.51 599.82,-261.98"/>
<polygon fill="#94a3b8" stroke="#94a3b8" stroke-width="1.4" points="601.85,-260.56 595.25,-257.17 598.3,-263.93 601.85,-260.56"/>
<text xml:space="preserve" text-anchor="middle" x="671.68" y="-302.91" font-family="Arial" font-size="9.00" fill="#94a3b8">DB metrics</text>
</g>
<!-- pg_replica&#45;&gt;app1 -->
<g id="edge16" class="edge">
<title>pg_replica&#45;&gt;app1</title>
<path fill="none" stroke="#94a3b8" stroke-width="1.4" stroke-dasharray="5,2" d="M760.6,-264.6C767.6,-274.29 774.62,-285.07 780,-295.71 815.32,-365.5 836.02,-403.77 796,-470.97 767.79,-518.35 711.69,-546.86 665.15,-563.2"/>
<polygon fill="#94a3b8" stroke="#94a3b8" stroke-width="1.4" points="664.43,-560.86 658.59,-565.43 666,-565.5 664.43,-560.86"/>
<text xml:space="preserve" text-anchor="middle" x="833.23" y="-392.54" font-family="Arial" font-size="9.00" fill="#94a3b8">read</text>
<text xml:space="preserve" text-anchor="middle" x="833.23" y="-382.04" font-family="Arial" font-size="9.00" fill="#94a3b8">queries</text>
</g>
<!-- cdn&#45;&gt;cf -->
<g id="edge18" class="edge">
<title>cdn&#45;&gt;cf</title>
<path fill="none" stroke="#94a3b8" stroke-width="1.4" d="M1010.7,-352.47C1011.13,-329.54 1011.68,-299.94 1012.14,-275.52"/>
<polygon fill="#94a3b8" stroke="#94a3b8" stroke-width="1.4" points="1014.59,-275.61 1012.27,-268.57 1009.69,-275.52 1014.59,-275.61"/>
<text xml:space="preserve" text-anchor="middle" x="1024.05" y="-308.16" font-family="Arial" font-size="9.00" fill="#94a3b8">cache</text>
<text xml:space="preserve" text-anchor="middle" x="1024.05" y="-297.66" font-family="Arial" font-size="9.00" fill="#94a3b8">push</text>
</g>
<!-- browser -->
<g id="node16" class="node">
<title>browser</title>
<ellipse fill="#374151" stroke="#6b7280" cx="1013" cy="-59.67" rx="96.82" ry="37.67"/>
<text xml:space="preserve" text-anchor="middle" x="1013" y="-68.17" font-family="Arial" font-size="10.00" fill="#f9fafb">Браузер ЦУП&#45;оператора</text>
<text xml:space="preserve" text-anchor="middle" x="1013" y="-56.17" font-family="Arial" font-size="10.00" fill="#f9fafb">(Chrome / Firefox)</text>
<text xml:space="preserve" text-anchor="middle" x="1013" y="-44.17" font-family="Arial" font-size="10.00" fill="#f9fafb">React + deck.gl</text>
</g>
<!-- cf&#45;&gt;browser -->
<g id="edge19" class="edge">
<title>cf&#45;&gt;browser</title>
<path fill="none" stroke="#94a3b8" stroke-width="1.4" d="M1013,-190.49C1013,-165.76 1013,-133.05 1013,-106.65"/>
<polygon fill="#94a3b8" stroke="#94a3b8" stroke-width="1.4" points="1015.45,-106.72 1013,-99.72 1010.55,-106.72 1015.45,-106.72"/>
<text xml:space="preserve" text-anchor="middle" x="1035.12" y="-153.3" font-family="Arial" font-size="9.00" fill="#94a3b8">HTTPS</text>
<text xml:space="preserve" text-anchor="middle" x="1035.12" y="-142.8" font-family="Arial" font-size="9.00" fill="#94a3b8">SPA + data</text>
</g>
</g>
</svg>
