<?xml version="1.0" encoding="UTF-8" standalone="no"?>
<!DOCTYPE svg PUBLIC "-//W3C//DTD SVG 1.1//EN"
 "http://www.w3.org/Graphics/SVG/1.1/DTD/svg11.dtd">
<!-- Generated by graphviz version 14.1.5 (20260411.2331)
 -->
<!-- Title: PMD_Platform Pages: 1 -->
<svg width="3640pt" height="972pt"
 viewBox="0.00 0.00 3640.00 972.00" xmlns="http://www.w3.org/2000/svg" xmlns:xlink="http://www.w3.org/1999/xlink">
<g id="graph0" class="graph" transform="scale(1 1) rotate(0) translate(43.2 928.53)">
<title>PMD_Platform</title>
<polygon fill="#0f1117" stroke="none" points="-43.2,43.2 -43.2,-928.53 3597.23,-928.53 3597.23,43.2 -43.2,43.2"/>
<text xml:space="preserve" text-anchor="middle" x="1777.01" y="-843.23" font-family="Arial" font-size="18.00" fill="#e2e8f0">ФУНКЦИОНАЛЬНАЯ СХЕМА ПЛАТФОРМЫ ГЕОАНАЛИТИКИ ПМД</text>
<text xml:space="preserve" text-anchor="middle" x="1777.01" y="-822.23" font-family="Arial" font-size="18.00" fill="#e2e8f0">(БНТУ, Факультет АТФ)</text>
<g id="clust1" class="cluster">
<title>cluster_data</title>
<path fill="#1e3a5f" stroke="#2563eb" stroke-width="2.5" d="M247.7,-434.44C247.7,-434.44 1573.72,-434.44 1573.72,-434.44 1579.72,-434.44 1585.72,-440.44 1585.72,-446.44 1585.72,-446.44 1585.72,-726.44 1585.72,-726.44 1585.72,-732.44 1579.72,-738.44 1573.72,-738.44 1573.72,-738.44 247.7,-738.44 247.7,-738.44 241.7,-738.44 235.7,-732.44 235.7,-726.44 235.7,-726.44 235.7,-446.44 235.7,-446.44 235.7,-440.44 241.7,-434.44 247.7,-434.44"/>
<text xml:space="preserve" text-anchor="middle" x="910.71" y="-723.04" font-family="Arial Bold" font-size="12.00" fill="#93c5fd">УРОВЕНЬ 1: СБОР И НОРМАЛИЗАЦИЯ ДАННЫХ (Data Layer)</text>
</g>
<g id="clust2" class="cluster">
<title>cluster_analytics</title>
<path fill="#2e1065" stroke="#7c3aed" stroke-width="2.5" d="M1335.44,-78.44C1335.44,-78.44 2670.13,-78.44 2670.13,-78.44 2676.13,-78.44 2682.13,-84.44 2682.13,-90.44 2682.13,-90.44 2682.13,-414.44 2682.13,-414.44 2682.13,-420.44 2676.13,-426.44 2670.13,-426.44 2670.13,-426.44 1335.44,-426.44 1335.44,-426.44 1329.44,-426.44 1323.44,-420.44 1323.44,-414.44 1323.44,-414.44 1323.44,-90.44 1323.44,-90.44 1323.44,-84.44 1329.44,-78.44 1335.44,-78.44"/>
<text xml:space="preserve" text-anchor="middle" x="2002.78" y="-411.04" font-family="Arial Bold" font-size="12.00" fill="#c4b5fd">УРОВЕНЬ 2: АНАЛИТИЧЕСКИЙ ДВИЖОК (Analytics Layer) — Оригинальная разработка</text>
</g>
<g id="clust3" class="cluster">
<title>cluster_presentation</title>
<path fill="#052e16" stroke="#059669" stroke-width="2.5" d="M2789.13,-17.44C2789.13,-17.44 3276.48,-17.44 3276.48,-17.44 3282.48,-17.44 3288.48,-23.44 3288.48,-29.44 3288.48,-29.44 3288.48,-443.44 3288.48,-443.44 3288.48,-449.44 3282.48,-455.44 3276.48,-455.44 3276.48,-455.44 2789.13,-455.44 2789.13,-455.44 2783.13,-455.44 2777.13,-449.44 2777.13,-443.44 2777.13,-443.44 2777.13,-29.44 2777.13,-29.44 2777.13,-23.44 2783.13,-17.44 2789.13,-17.44"/>
<text xml:space="preserve" text-anchor="middle" x="3032.8" y="-440.04" font-family="Arial Bold" font-size="12.00" fill="#6ee7b7">УРОВЕНЬ 3: ЦЕНТР УПРАВЛЕНИЯ ПЕРЕВОЗКАМИ (Presentation Layer)</text>
</g>
<!-- operator -->
<g id="node1" class="node">
<title>operator</title>
<path fill="#374151" stroke="#6b7280" d="M370.32,-814.33C370.32,-814.33 279.12,-814.33 279.12,-814.33 273.12,-814.33 267.12,-808.33 267.12,-802.33 267.12,-802.33 267.12,-768.55 267.12,-768.55 267.12,-762.55 273.12,-756.55 279.12,-756.55 279.12,-756.55 370.32,-756.55 370.32,-756.55 376.32,-756.55 382.32,-762.55 382.32,-768.55 382.32,-768.55 382.32,-802.33 382.32,-802.33 382.32,-808.33 376.32,-814.33 370.32,-814.33"/>
<text xml:space="preserve" text-anchor="middle" x="324.72" y="-795.24" font-family="Arial" font-size="11.00" fill="#f9fafb">Оператор</text>
<text xml:space="preserve" text-anchor="middle" x="324.72" y="-781.74" font-family="Arial" font-size="11.00" fill="#f9fafb">шеринга</text>
<text xml:space="preserve" text-anchor="middle" x="324.72" y="-768.24" font-family="Arial" font-size="11.00" fill="#f9fafb">(Bolt / Whoosh)</text>
</g>
<!-- mds -->
<g id="node5" class="node">
<title>mds</title>
<path fill="#1d4ed8" stroke="#60a5fa" d="M653.43,-698.33C653.43,-698.33 560.13,-698.33 560.13,-698.33 554.13,-698.33 548.13,-692.33 548.13,-686.33 548.13,-686.33 548.13,-652.55 548.13,-652.55 548.13,-646.55 554.13,-640.55 560.13,-640.55 560.13,-640.55 653.43,-640.55 653.43,-640.55 659.43,-640.55 665.43,-646.55 665.43,-652.55 665.43,-652.55 665.43,-686.33 665.43,-686.33 665.43,-692.33 659.43,-698.33 653.43,-698.33"/>
<text xml:space="preserve" text-anchor="middle" x="606.78" y="-679.24" font-family="Arial" font-size="11.00" fill="#eff6ff">MDS Provider API</text>
<text xml:space="preserve" text-anchor="middle" x="606.78" y="-665.74" font-family="Arial" font-size="11.00" fill="#eff6ff">(REST / HTTPS)</text>
<text xml:space="preserve" text-anchor="middle" x="606.78" y="-652.24" font-family="Arial" font-size="11.00" fill="#eff6ff">JSON GeoJSON</text>
</g>
<!-- operator&#45;&gt;mds -->
<g id="edge1" class="edge">
<title>operator&#45;&gt;mds</title>
<path fill="none" stroke="#94a3b8" stroke-width="1.5" d="M344.03,-756.17C344.03,-721.81 344.03,-669.44 344.03,-669.44 344.03,-669.44 537.54,-669.44 537.54,-669.44"/>
<polygon fill="#94a3b8" stroke="#94a3b8" stroke-width="1.5" points="537.54,-672.24 545.54,-669.44 537.54,-666.64 537.54,-672.24"/>
<text xml:space="preserve" text-anchor="middle" x="470.25" y="-741.94" font-family="Arial" font-size="10.00" fill="#94a3b8">MDS Trip API</text>
<text xml:space="preserve" text-anchor="middle" x="470.25" y="-729.94" font-family="Arial" font-size="10.00" fill="#94a3b8">HTTPS/JSON</text>
</g>
<!-- gbfs -->
<g id="node6" class="node">
<title>gbfs</title>
<path fill="#1d4ed8" stroke="#60a5fa" d="M656.8,-604.33C656.8,-604.33 556.75,-604.33 556.75,-604.33 550.75,-604.33 544.75,-598.33 544.75,-592.33 544.75,-592.33 544.75,-558.55 544.75,-558.55 544.75,-552.55 550.75,-546.55 556.75,-546.55 556.75,-546.55 656.8,-546.55 656.8,-546.55 662.8,-546.55 668.8,-552.55 668.8,-558.55 668.8,-558.55 668.8,-592.33 668.8,-592.33 668.8,-598.33 662.8,-604.33 656.8,-604.33"/>
<text xml:space="preserve" text-anchor="middle" x="606.78" y="-585.24" font-family="Arial" font-size="11.00" fill="#eff6ff">GBFS 2.3 Feed</text>
<text xml:space="preserve" text-anchor="middle" x="606.78" y="-571.74" font-family="Arial" font-size="11.00" fill="#eff6ff">(JSON, real&#45;time</text>
<text xml:space="preserve" text-anchor="middle" x="606.78" y="-558.24" font-family="Arial" font-size="11.00" fill="#eff6ff">доступность СИМ)</text>
</g>
<!-- operator&#45;&gt;gbfs -->
<g id="edge2" class="edge">
<title>operator&#45;&gt;gbfs</title>
<path fill="none" stroke="#94a3b8" stroke-width="1.5" d="M305.03,-756.24C305.03,-698.54 305.03,-575.44 305.03,-575.44 305.03,-575.44 533.98,-575.44 533.98,-575.44"/>
<polygon fill="#94a3b8" stroke="#94a3b8" stroke-width="1.5" points="533.98,-578.24 541.98,-575.44 533.98,-572.64 533.98,-578.24"/>
<text xml:space="preserve" text-anchor="middle" x="470.25" y="-632.94" font-family="Arial" font-size="10.00" fill="#94a3b8">GBFS feed</text>
<text xml:space="preserve" text-anchor="middle" x="470.25" y="-620.94" font-family="Arial" font-size="10.00" fill="#94a3b8">HTTPS/JSON</text>
</g>
<!-- iot -->
<g id="node2" class="node">
<title>iot</title>
<path fill="#374151" stroke="#6b7280" d="M103.2,-476.58C103.2,-476.58 12,-476.58 12,-476.58 6,-476.58 0,-470.58 0,-464.58 0,-464.58 0,-444.3 0,-444.3 0,-438.3 6,-432.3 12,-432.3 12,-432.3 103.2,-432.3 103.2,-432.3 109.2,-432.3 115.2,-438.3 115.2,-444.3 115.2,-444.3 115.2,-464.58 115.2,-464.58 115.2,-470.58 109.2,-476.58 103.2,-476.58"/>
<text xml:space="preserve" text-anchor="middle" x="57.6" y="-457.49" font-family="Arial" font-size="11.00" fill="#f9fafb">IoT&#45;устройство</text>
<text xml:space="preserve" text-anchor="middle" x="57.6" y="-443.99" font-family="Arial" font-size="11.00" fill="#f9fafb">(GPS&#45;модуль)</text>
</g>
<!-- nmea -->
<g id="node7" class="node">
<title>nmea</title>
<path fill="#1d4ed8" stroke="#60a5fa" d="M383.75,-542.33C383.75,-542.33 265.7,-542.33 265.7,-542.33 259.7,-542.33 253.7,-536.33 253.7,-530.33 253.7,-530.33 253.7,-496.55 253.7,-496.55 253.7,-490.55 259.7,-484.55 265.7,-484.55 265.7,-484.55 383.75,-484.55 383.75,-484.55 389.75,-484.55 395.75,-490.55 395.75,-496.55 395.75,-496.55 395.75,-530.33 395.75,-530.33 395.75,-536.33 389.75,-542.33 383.75,-542.33"/>
<text xml:space="preserve" text-anchor="middle" x="324.72" y="-523.24" font-family="Arial" font-size="11.00" fill="#eff6ff">Парсер NMEA/GPX</text>
<text xml:space="preserve" text-anchor="middle" x="324.72" y="-509.74" font-family="Arial" font-size="11.00" fill="#eff6ff">(прямое подключение</text>
<text xml:space="preserve" text-anchor="middle" x="324.72" y="-496.24" font-family="Arial" font-size="11.00" fill="#eff6ff">устройств)</text>
</g>
<!-- iot&#45;&gt;nmea -->
<g id="edge3" class="edge">
<title>iot&#45;&gt;nmea</title>
<path fill="none" stroke="#94a3b8" stroke-width="1.5" d="M115.63,-468.57C194.28,-468.57 325.03,-468.57 325.03,-468.57 325.03,-468.57 325.03,-474 325.03,-474"/>
<polygon fill="#94a3b8" stroke="#94a3b8" stroke-width="1.5" points="322.23,-474 325.03,-482 327.83,-474 322.23,-474"/>
<text xml:space="preserve" text-anchor="middle" x="184.45" y="-512.94" font-family="Arial" font-size="10.00" fill="#94a3b8">NMEA 0183</text>
<text xml:space="preserve" text-anchor="middle" x="184.45" y="-500.94" font-family="Arial" font-size="10.00" fill="#94a3b8">/ GPX</text>
</g>
<!-- mqtt -->
<g id="node8" class="node">
<title>mqtt</title>
<path fill="#1e40af" stroke="#3b82f6" d="M643.68,-510.33C643.68,-510.33 569.88,-510.33 569.88,-510.33 563.88,-510.33 557.88,-504.33 557.88,-498.33 557.88,-498.33 557.88,-464.55 557.88,-464.55 557.88,-458.55 563.88,-452.55 569.88,-452.55 569.88,-452.55 643.68,-452.55 643.68,-452.55 649.68,-452.55 655.68,-458.55 655.68,-464.55 655.68,-464.55 655.68,-498.33 655.68,-498.33 655.68,-504.33 649.68,-510.33 643.68,-510.33"/>
<text xml:space="preserve" text-anchor="middle" x="606.78" y="-491.24" font-family="Arial" font-size="11.00" fill="#eff6ff">MQTT&#45;брокер</text>
<text xml:space="preserve" text-anchor="middle" x="606.78" y="-477.74" font-family="Arial" font-size="11.00" fill="#eff6ff">(IoT pub/sub,</text>
<text xml:space="preserve" text-anchor="middle" x="606.78" y="-464.24" font-family="Arial" font-size="11.00" fill="#eff6ff">low latency)</text>
</g>
<!-- iot&#45;&gt;mqtt -->
<g id="edge4" class="edge">
<title>iot&#45;&gt;mqtt</title>
<path fill="none" stroke="#94a3b8" stroke-width="1.5" d="M115.59,-460.56C115.59,-460.56 547.19,-460.56 547.19,-460.56"/>
<polygon fill="#94a3b8" stroke="#94a3b8" stroke-width="1.5" points="547.19,-463.36 555.19,-460.56 547.19,-457.76 547.19,-463.36"/>
<text xml:space="preserve" text-anchor="middle" x="324.72" y="-438.94" font-family="Arial" font-size="10.00" fill="#94a3b8">MQTT</text>
<text xml:space="preserve" text-anchor="middle" x="324.72" y="-426.94" font-family="Arial" font-size="10.00" fill="#94a3b8">pub/sub</text>
</g>
<!-- osm -->
<g id="node3" class="node">
<title>osm</title>
<path fill="#374151" stroke="#6b7280" d="M1495.94,-55.35C1495.94,-58.4 1470.12,-60.89 1438.34,-60.89 1406.55,-60.89 1380.74,-58.4 1380.74,-55.35 1380.74,-55.35 1380.74,-5.54 1380.74,-5.54 1380.74,-2.48 1406.55,0 1438.34,0 1470.12,0 1495.94,-2.48 1495.94,-5.54 1495.94,-5.54 1495.94,-55.35 1495.94,-55.35"/>
<path fill="none" stroke="#6b7280" d="M1495.94,-55.35C1495.94,-52.3 1470.12,-49.82 1438.34,-49.82 1406.55,-49.82 1380.74,-52.3 1380.74,-55.35"/>
<text xml:space="preserve" text-anchor="middle" x="1438.34" y="-33.49" font-family="Arial" font-size="11.00" fill="#f9fafb">OpenStreetMap</text>
<text xml:space="preserve" text-anchor="middle" x="1438.34" y="-19.99" font-family="Arial" font-size="11.00" fill="#f9fafb">(граф дорог)</text>
</g>
<!-- algo_b -->
<g id="node13" class="node">
<title>algo_b</title>
<path fill="#5b21b6" stroke="#a78bfa" d="M1889.52,-225.08C1889.52,-225.08 1719.72,-225.08 1719.72,-225.08 1713.72,-225.08 1707.72,-219.08 1707.72,-213.08 1707.72,-213.08 1707.72,-111.8 1707.72,-111.8 1707.72,-105.8 1713.72,-99.8 1719.72,-99.8 1719.72,-99.8 1889.52,-99.8 1889.52,-99.8 1895.52,-99.8 1901.52,-105.8 1901.52,-111.8 1901.52,-111.8 1901.52,-213.08 1901.52,-213.08 1901.52,-219.08 1895.52,-225.08 1889.52,-225.08"/>
<text xml:space="preserve" text-anchor="middle" x="1804.62" y="-205.99" font-family="Arial" font-size="11.00" fill="#ede9fe">Алгоритм B</text>
<text xml:space="preserve" text-anchor="middle" x="1804.62" y="-192.49" font-family="Arial" font-size="11.00" fill="#ede9fe">Классификатор слепых зон</text>
<text xml:space="preserve" text-anchor="middle" x="1804.62" y="-178.99" font-family="Arial" font-size="11.00" fill="#ede9fe">──────────────────────</text>
<text xml:space="preserve" text-anchor="middle" x="1804.62" y="-165.49" font-family="Arial" font-size="11.00" fill="#ede9fe">H3 grid, res=9 (~174м)</text>
<text xml:space="preserve" text-anchor="middle" x="1804.62" y="-151.99" font-family="Arial" font-size="11.00" fill="#ede9fe">density(c) &gt; P₇₅</text>
<text xml:space="preserve" text-anchor="middle" x="1804.62" y="-138.49" font-family="Arial" font-size="11.00" fill="#ede9fe">Spatial Join с OSM</text>
<text xml:space="preserve" text-anchor="middle" x="1804.62" y="-124.99" font-family="Arial" font-size="11.00" fill="#ede9fe">severity = density × wc</text>
<text xml:space="preserve" text-anchor="middle" x="1804.62" y="-111.49" font-family="Arial" font-size="11.00" fill="#ede9fe">wc: 1.5/1.2/1.0</text>
</g>
<!-- osm&#45;&gt;algo_b -->
<g id="edge18" class="edge">
<title>osm&#45;&gt;algo_b</title>
<path fill="none" stroke="#94a3b8" stroke-width="1.5" stroke-dasharray="5,2" d="M1438.03,-61.3C1438.03,-90.71 1438.03,-130.55 1438.03,-130.55 1438.03,-130.55 1697.07,-130.55 1697.07,-130.55"/>
<polygon fill="#94a3b8" stroke="#94a3b8" stroke-width="1.5" points="1697.07,-133.35 1705.07,-130.55 1697.07,-127.75 1697.07,-133.35"/>
<text xml:space="preserve" text-anchor="middle" x="1637.72" y="-56.94" font-family="Arial" font-size="10.00" fill="#94a3b8">road graph</text>
<text xml:space="preserve" text-anchor="middle" x="1637.72" y="-44.94" font-family="Arial" font-size="10.00" fill="#94a3b8">(GraphML)</text>
<text xml:space="preserve" text-anchor="middle" x="1637.72" y="-32.94" font-family="Arial" font-size="10.00" fill="#94a3b8">spatial join</text>
</g>
<!-- cup_user -->
<g id="node4" class="node">
<title>cup_user</title>
<path fill="#374151" stroke="#6b7280" d="M3542.03,-263.58C3542.03,-263.58 3438.98,-263.58 3438.98,-263.58 3432.98,-263.58 3426.98,-257.58 3426.98,-251.58 3426.98,-251.58 3426.98,-231.3 3426.98,-231.3 3426.98,-225.3 3432.98,-219.3 3438.98,-219.3 3438.98,-219.3 3542.03,-219.3 3542.03,-219.3 3548.03,-219.3 3554.03,-225.3 3554.03,-231.3 3554.03,-231.3 3554.03,-251.58 3554.03,-251.58 3554.03,-257.58 3548.03,-263.58 3542.03,-263.58"/>
<text xml:space="preserve" text-anchor="middle" x="3490.5" y="-244.49" font-family="Arial" font-size="11.00" fill="#f9fafb">ЦУП&#45;оператор</text>
<text xml:space="preserve" text-anchor="middle" x="3490.5" y="-230.99" font-family="Arial" font-size="11.00" fill="#f9fafb">(городская служба)</text>
</g>
<!-- kafka -->
<g id="node9" class="node">
<title>kafka</title>
<path fill="#1e40af" stroke="#3b82f6" d="M931.65,-574.54C931.65,-579.45 902.61,-583.45 866.85,-583.45 831.09,-583.45 802.05,-579.45 802.05,-574.54 802.05,-574.54 802.05,-494.35 802.05,-494.35 802.05,-489.43 831.09,-485.44 866.85,-485.44 902.61,-485.44 931.65,-489.43 931.65,-494.35 931.65,-494.35 931.65,-574.54 931.65,-574.54"/>
<path fill="none" stroke="#3b82f6" d="M931.65,-574.54C931.65,-569.62 902.61,-565.63 866.85,-565.63 831.09,-565.63 802.05,-569.62 802.05,-574.54"/>
<text xml:space="preserve" text-anchor="middle" x="866.85" y="-550.99" font-family="Arial" font-size="11.00" fill="#eff6ff">Apache Kafka</text>
<text xml:space="preserve" text-anchor="middle" x="866.85" y="-537.49" font-family="Arial" font-size="11.00" fill="#eff6ff">Topic: pmd&#45;trips</text>
<text xml:space="preserve" text-anchor="middle" x="866.85" y="-523.99" font-family="Arial" font-size="11.00" fill="#eff6ff">(гарантированная</text>
<text xml:space="preserve" text-anchor="middle" x="866.85" y="-510.49" font-family="Arial" font-size="11.00" fill="#eff6ff">доставка)</text>
</g>
<!-- mds&#45;&gt;kafka -->
<g id="edge5" class="edge">
<title>mds&#45;&gt;kafka</title>
<path fill="none" stroke="#94a3b8" stroke-width="1.5" d="M665.83,-669.44C742.61,-669.44 867.03,-669.44 867.03,-669.44 867.03,-669.44 867.03,-594.22 867.03,-594.22"/>
<polygon fill="#94a3b8" stroke="#94a3b8" stroke-width="1.5" points="869.83,-594.22 867.03,-586.22 864.23,-594.22 869.83,-594.22"/>
<text xml:space="preserve" text-anchor="middle" x="735.43" y="-664.94" font-family="Arial" font-size="10.00" fill="#94a3b8">normalized</text>
<text xml:space="preserve" text-anchor="middle" x="735.43" y="-652.94" font-family="Arial" font-size="10.00" fill="#94a3b8">events</text>
</g>
<!-- gbfs&#45;&gt;kafka -->
<g id="edge6" class="edge">
<title>gbfs&#45;&gt;kafka</title>
<path fill="none" stroke="#94a3b8" stroke-width="1.5" d="M669.07,-565C669.07,-565 791.62,-565 791.62,-565"/>
<polygon fill="#94a3b8" stroke="#94a3b8" stroke-width="1.5" points="791.62,-567.8 799.62,-565 791.62,-562.2 791.62,-567.8"/>
<text xml:space="preserve" text-anchor="middle" x="735.43" y="-581.94" font-family="Arial" font-size="10.00" fill="#94a3b8">availability</text>
<text xml:space="preserve" text-anchor="middle" x="735.43" y="-569.94" font-family="Arial" font-size="10.00" fill="#94a3b8">events</text>
</g>
<!-- nmea&#45;&gt;mqtt -->
<g id="edge7" class="edge">
<title>nmea&#45;&gt;mqtt</title>
<path fill="none" stroke="#94a3b8" stroke-width="1.5" d="M395.9,-497.44C395.9,-497.44 547.12,-497.44 547.12,-497.44"/>
<polygon fill="#94a3b8" stroke="#94a3b8" stroke-width="1.5" points="547.12,-500.24 555.12,-497.44 547.12,-494.64 547.12,-500.24"/>
</g>
<!-- mqtt&#45;&gt;kafka -->
<g id="edge8" class="edge">
<title>mqtt&#45;&gt;kafka</title>
<path fill="none" stroke="#94a3b8" stroke-width="1.5" d="M656,-497.88C656,-497.88 791.33,-497.88 791.33,-497.88"/>
<polygon fill="#94a3b8" stroke="#94a3b8" stroke-width="1.5" points="791.33,-500.69 799.33,-497.89 791.33,-495.09 791.33,-500.69"/>
<text xml:space="preserve" text-anchor="middle" x="735.43" y="-508.94" font-family="Arial" font-size="10.00" fill="#94a3b8">telemetry</text>
<text xml:space="preserve" text-anchor="middle" x="735.43" y="-496.94" font-family="Arial" font-size="10.00" fill="#94a3b8">stream</text>
</g>
<!-- faust -->
<g id="node10" class="node">
<title>faust</title>
<path fill="#1e3a8a" stroke="#60a5fa" d="M1209.95,-566.83C1209.95,-566.83 1070.15,-566.83 1070.15,-566.83 1064.15,-566.83 1058.15,-560.83 1058.15,-554.83 1058.15,-554.83 1058.15,-494.05 1058.15,-494.05 1058.15,-488.05 1064.15,-482.05 1070.15,-482.05 1070.15,-482.05 1209.95,-482.05 1209.95,-482.05 1215.95,-482.05 1221.95,-488.05 1221.95,-494.05 1221.95,-494.05 1221.95,-554.83 1221.95,-554.83 1221.95,-560.83 1215.95,-566.83 1209.95,-566.83"/>
<text xml:space="preserve" text-anchor="middle" x="1140.05" y="-547.74" font-family="Arial" font-size="11.00" fill="#bfdbfe">Faust Stream Processor</text>
<text xml:space="preserve" text-anchor="middle" x="1140.05" y="-534.24" font-family="Arial" font-size="11.00" fill="#bfdbfe">──────────────────</text>
<text xml:space="preserve" text-anchor="middle" x="1140.05" y="-520.74" font-family="Arial" font-size="11.00" fill="#bfdbfe">norm. WGS&#45;84</text>
<text xml:space="preserve" text-anchor="middle" x="1140.05" y="-507.24" font-family="Arial" font-size="11.00" fill="#bfdbfe">сегментация трека</text>
<text xml:space="preserve" text-anchor="middle" x="1140.05" y="-493.74" font-family="Arial" font-size="11.00" fill="#bfdbfe">vᵢ = d(pᵢ₋₁,pᵢ)/Δtᵢ</text>
</g>
<!-- kafka&#45;&gt;faust -->
<g id="edge9" class="edge">
<title>kafka&#45;&gt;faust</title>
<path fill="none" stroke="#94a3b8" stroke-width="1.5" d="M931.94,-526.13C931.94,-526.13 1047.55,-526.13 1047.55,-526.13"/>
<polygon fill="#94a3b8" stroke="#94a3b8" stroke-width="1.5" points="1047.55,-528.94 1055.55,-526.14 1047.55,-523.34 1047.55,-528.94"/>
<text xml:space="preserve" text-anchor="middle" x="994.9" y="-543.94" font-family="Arial" font-size="10.00" fill="#94a3b8">consume</text>
<text xml:space="preserve" text-anchor="middle" x="994.9" y="-531.94" font-family="Arial" font-size="10.00" fill="#94a3b8">pmd&#45;trips</text>
</g>
<!-- norm_out -->
<g id="node11" class="node">
<title>norm_out</title>
<polygon fill="#172554" stroke="#3b82f6" points="1567.72,-540.72 1361.9,-540.72 1308.95,-452.16 1514.78,-452.16 1567.72,-540.72"/>
<text xml:space="preserve" text-anchor="middle" x="1438.34" y="-499.49" font-family="Arial" font-size="11.00" fill="#93c5fd">Нормализованный</text>
<text xml:space="preserve" text-anchor="middle" x="1438.34" y="-485.99" font-family="Arial" font-size="11.00" fill="#93c5fd">поток событий</text>
</g>
<!-- faust&#45;&gt;norm_out -->
<g id="edge10" class="edge">
<title>faust&#45;&gt;norm_out</title>
<path fill="none" stroke="#94a3b8" stroke-width="1.5" d="M1222.35,-511.39C1222.35,-511.39 1333.66,-511.39 1333.66,-511.39"/>
<polygon fill="#94a3b8" stroke="#94a3b8" stroke-width="1.5" points="1333.66,-514.19 1341.66,-511.39 1333.66,-508.59 1333.66,-514.19"/>
</g>
<!-- algo_a -->
<g id="node12" class="node">
<title>algo_a</title>
<path fill="#5b21b6" stroke="#a78bfa" d="M1889.52,-386.08C1889.52,-386.08 1719.72,-386.08 1719.72,-386.08 1713.72,-386.08 1707.72,-380.08 1707.72,-374.08 1707.72,-374.08 1707.72,-272.8 1707.72,-272.8 1707.72,-266.8 1713.72,-260.8 1719.72,-260.8 1719.72,-260.8 1889.52,-260.8 1889.52,-260.8 1895.52,-260.8 1901.52,-266.8 1901.52,-272.8 1901.52,-272.8 1901.52,-374.08 1901.52,-374.08 1901.52,-380.08 1895.52,-386.08 1889.52,-386.08"/>
<text xml:space="preserve" text-anchor="middle" x="1804.62" y="-366.99" font-family="Arial" font-size="11.00" fill="#ede9fe">Алгоритм A</text>
<text xml:space="preserve" text-anchor="middle" x="1804.62" y="-353.49" font-family="Arial" font-size="11.00" fill="#ede9fe">Детектор опасного вождения</text>
<text xml:space="preserve" text-anchor="middle" x="1804.62" y="-339.99" font-family="Arial" font-size="11.00" fill="#ede9fe">──────────────────────</text>
<text xml:space="preserve" text-anchor="middle" x="1804.62" y="-326.49" font-family="Arial" font-size="11.00" fill="#ede9fe">Скользящее окно w=2</text>
<text xml:space="preserve" text-anchor="middle" x="1804.62" y="-312.99" font-family="Arial" font-size="11.00" fill="#ede9fe">aᵢ = (vᵢ − vᵢ₋₁)/Δtᵢ</text>
<text xml:space="preserve" text-anchor="middle" x="1804.62" y="-299.49" font-family="Arial" font-size="11.00" fill="#ede9fe">|a|≥3.5 м/с² → DANGER</text>
<text xml:space="preserve" text-anchor="middle" x="1804.62" y="-285.99" font-family="Arial" font-size="11.00" fill="#ede9fe">|a|≥2.5 м/с² → WARN</text>
<text xml:space="preserve" text-anchor="middle" x="1804.62" y="-272.49" font-family="Arial" font-size="11.00" fill="#ede9fe">F1 = 0.990</text>
</g>
<!-- norm_out&#45;&gt;algo_a -->
<g id="edge11" class="edge">
<title>norm_out&#45;&gt;algo_a</title>
<path fill="none" stroke="#94a3b8" stroke-width="1.5" d="M1557.03,-496.32C1557.03,-491.08 1557.03,-323.44 1557.03,-323.44 1557.03,-323.44 1697.21,-323.44 1697.21,-323.44"/>
<polygon fill="#94a3b8" stroke="#94a3b8" stroke-width="1.5" points="1697.21,-326.24 1705.21,-323.44 1697.21,-320.64 1697.21,-326.24"/>
<text xml:space="preserve" text-anchor="middle" x="1637.72" y="-408.94" font-family="Arial" font-size="10.00" fill="#94a3b8">GPS stream</text>
<text xml:space="preserve" text-anchor="middle" x="1637.72" y="-396.94" font-family="Arial" font-size="10.00" fill="#94a3b8">(1 Hz)</text>
</g>
<!-- norm_out&#45;&gt;algo_b -->
<g id="edge12" class="edge">
<title>norm_out&#45;&gt;algo_b</title>
<path fill="none" stroke="#94a3b8" stroke-width="1.5" d="M1546.03,-496.39C1546.03,-491.89 1546.03,-203.82 1546.03,-203.82 1546.03,-203.82 1696.96,-203.82 1696.96,-203.82"/>
<polygon fill="#94a3b8" stroke="#94a3b8" stroke-width="1.5" points="1696.96,-206.62 1704.96,-203.82 1696.96,-201.02 1696.96,-206.62"/>
<text xml:space="preserve" text-anchor="middle" x="1637.72" y="-331.94" font-family="Arial" font-size="10.00" fill="#94a3b8">GPS stream</text>
<text xml:space="preserve" text-anchor="middle" x="1637.72" y="-319.94" font-family="Arial" font-size="10.00" fill="#94a3b8">(1 Hz)</text>
</g>
<!-- algo_c -->
<g id="node14" class="node">
<title>algo_c</title>
<path fill="#5b21b6" stroke="#a78bfa" d="M2170.32,-290.58C2170.32,-290.58 2000.52,-290.58 2000.52,-290.58 1994.52,-290.58 1988.52,-284.58 1988.52,-278.58 1988.52,-278.58 1988.52,-204.3 1988.52,-204.3 1988.52,-198.3 1994.52,-192.3 2000.52,-192.3 2000.52,-192.3 2170.32,-192.3 2170.32,-192.3 2176.32,-192.3 2182.32,-198.3 2182.32,-204.3 2182.32,-204.3 2182.32,-278.58 2182.32,-278.58 2182.32,-284.58 2176.32,-290.58 2170.32,-290.58"/>
<text xml:space="preserve" text-anchor="middle" x="2085.42" y="-271.49" font-family="Arial" font-size="11.00" fill="#ede9fe">Алгоритм C</text>
<text xml:space="preserve" text-anchor="middle" x="2085.42" y="-257.99" font-family="Arial" font-size="11.00" fill="#ede9fe">Компоновщик тепловой карты</text>
<text xml:space="preserve" text-anchor="middle" x="2085.42" y="-244.49" font-family="Arial" font-size="11.00" fill="#ede9fe">──────────────────────</text>
<text xml:space="preserve" text-anchor="middle" x="2085.42" y="-230.99" font-family="Arial" font-size="11.00" fill="#ede9fe">Взвешенная суперпозиция</text>
<text xml:space="preserve" text-anchor="middle" x="2085.42" y="-217.49" font-family="Arial" font-size="11.00" fill="#ede9fe">A + B → растр безопасности</text>
<text xml:space="preserve" text-anchor="middle" x="2085.42" y="-203.99" font-family="Arial" font-size="11.00" fill="#ede9fe">GeoJSON&#45;экспорт</text>
</g>
<!-- algo_a&#45;&gt;algo_c -->
<g id="edge13" class="edge">
<title>algo_a&#45;&gt;algo_c</title>
<path fill="none" stroke="#94a3b8" stroke-width="1.5" d="M1901.65,-275.69C1901.65,-275.69 1978.12,-275.69 1978.12,-275.69"/>
<polygon fill="#94a3b8" stroke="#94a3b8" stroke-width="1.5" points="1978.12,-278.49 1986.12,-275.69 1978.12,-272.89 1978.12,-278.49"/>
</g>
<!-- geojson -->
<g id="node15" class="node">
<title>geojson</title>
<polygon fill="#3b0764" stroke="#7c3aed" points="2664.13,-312.72 2379.14,-312.72 2305.82,-170.16 2590.81,-170.16 2664.13,-312.72"/>
<text xml:space="preserve" text-anchor="middle" x="2484.97" y="-257.99" font-family="Arial" font-size="11.00" fill="#c4b5fd">GeoJSON&#45;файлы</text>
<text xml:space="preserve" text-anchor="middle" x="2484.97" y="-244.49" font-family="Arial" font-size="11.00" fill="#c4b5fd">analyzed_trips.geojson</text>
<text xml:space="preserve" text-anchor="middle" x="2484.97" y="-230.99" font-family="Arial" font-size="11.00" fill="#c4b5fd">blind_spots.geojson</text>
<text xml:space="preserve" text-anchor="middle" x="2484.97" y="-217.49" font-family="Arial" font-size="11.00" fill="#c4b5fd">dangerous_segments.geojson</text>
</g>
<!-- algo_a&#45;&gt;geojson -->
<g id="edge15" class="edge">
<title>algo_a&#45;&gt;geojson</title>
<path fill="none" stroke="#94a3b8" stroke-width="1.5" d="M1901.74,-301.65C1901.74,-301.65 2362.86,-301.65 2362.86,-301.65"/>
<polygon fill="#94a3b8" stroke="#94a3b8" stroke-width="1.5" points="2362.86,-304.45 2370.86,-301.65 2362.86,-298.85 2362.86,-304.45"/>
<text xml:space="preserve" text-anchor="middle" x="2085.42" y="-376.94" font-family="Arial" font-size="10.00" fill="#94a3b8">tagged</text>
<text xml:space="preserve" text-anchor="middle" x="2085.42" y="-364.94" font-family="Arial" font-size="10.00" fill="#94a3b8">segments</text>
</g>
<!-- algo_b&#45;&gt;algo_c -->
<g id="edge14" class="edge">
<title>algo_b&#45;&gt;algo_c</title>
<path fill="none" stroke="#94a3b8" stroke-width="1.5" d="M1901.65,-208.69C1901.65,-208.69 1978.12,-208.69 1978.12,-208.69"/>
<polygon fill="#94a3b8" stroke="#94a3b8" stroke-width="1.5" points="1978.12,-211.49 1986.12,-208.69 1978.12,-205.89 1978.12,-211.49"/>
</g>
<!-- algo_b&#45;&gt;geojson -->
<g id="edge16" class="edge">
<title>algo_b&#45;&gt;geojson</title>
<path fill="none" stroke="#94a3b8" stroke-width="1.5" d="M1901.74,-181.23C1901.74,-181.23 2300.89,-181.23 2300.89,-181.23"/>
<polygon fill="#94a3b8" stroke="#94a3b8" stroke-width="1.5" points="2300.89,-184.03 2308.89,-181.23 2300.89,-178.43 2300.89,-184.03"/>
<text xml:space="preserve" text-anchor="middle" x="2085.42" y="-146.94" font-family="Arial" font-size="10.00" fill="#94a3b8">blind spots</text>
<text xml:space="preserve" text-anchor="middle" x="2085.42" y="-134.94" font-family="Arial" font-size="10.00" fill="#94a3b8">+ severity</text>
</g>
<!-- algo_c&#45;&gt;geojson -->
<g id="edge17" class="edge">
<title>algo_c&#45;&gt;geojson</title>
<path fill="none" stroke="#94a3b8" stroke-width="1.5" d="M2182.65,-241.44C2182.65,-241.44 2331.96,-241.44 2331.96,-241.44"/>
<polygon fill="#94a3b8" stroke="#94a3b8" stroke-width="1.5" points="2331.96,-244.24 2339.96,-241.44 2331.96,-238.64 2331.96,-244.24"/>
<text xml:space="preserve" text-anchor="middle" x="2244.07" y="-255.94" font-family="Arial" font-size="10.00" fill="#94a3b8">heatmap</text>
<text xml:space="preserve" text-anchor="middle" x="2244.07" y="-243.94" font-family="Arial" font-size="10.00" fill="#94a3b8">tiles</text>
</g>
<!-- react -->
<g id="node17" class="node">
<title>react</title>
<path fill="#065f46" stroke="#34d399" d="M2946.93,-283.83C2946.93,-283.83 2807.13,-283.83 2807.13,-283.83 2801.13,-283.83 2795.13,-277.83 2795.13,-271.83 2795.13,-271.83 2795.13,-211.05 2795.13,-211.05 2795.13,-205.05 2801.13,-199.05 2807.13,-199.05 2807.13,-199.05 2946.93,-199.05 2946.93,-199.05 2952.93,-199.05 2958.93,-205.05 2958.93,-211.05 2958.93,-211.05 2958.93,-271.83 2958.93,-271.83 2958.93,-277.83 2952.93,-283.83 2946.93,-283.83"/>
<text xml:space="preserve" text-anchor="middle" x="2877.03" y="-264.74" font-family="Arial" font-size="11.00" fill="#d1fae5">React 18 SPA</text>
<text xml:space="preserve" text-anchor="middle" x="2877.03" y="-251.24" font-family="Arial" font-size="11.00" fill="#d1fae5">+ deck.gl 9</text>
<text xml:space="preserve" text-anchor="middle" x="2877.03" y="-237.74" font-family="Arial" font-size="11.00" fill="#d1fae5">──────────────────</text>
<text xml:space="preserve" text-anchor="middle" x="2877.03" y="-224.24" font-family="Arial" font-size="11.00" fill="#d1fae5">MapLibre GL JS</text>
<text xml:space="preserve" text-anchor="middle" x="2877.03" y="-210.74" font-family="Arial" font-size="11.00" fill="#d1fae5">(CartoDBDarkMatter)</text>
</g>
<!-- geojson&#45;&gt;react -->
<g id="edge19" class="edge">
<title>geojson&#45;&gt;react</title>
<path fill="none" stroke="#94a3b8" stroke-width="1.5" d="M2627.9,-241.44C2627.9,-241.44 2784.49,-241.44 2784.49,-241.44"/>
<polygon fill="#94a3b8" stroke="#94a3b8" stroke-width="1.5" points="2784.49,-244.24 2792.49,-241.44 2784.49,-238.64 2784.49,-244.24"/>
<text xml:space="preserve" text-anchor="middle" x="2729.63" y="-267.94" font-family="Arial" font-size="10.00" fill="#94a3b8">static</text>
<text xml:space="preserve" text-anchor="middle" x="2729.63" y="-255.94" font-family="Arial" font-size="10.00" fill="#94a3b8">GeoJSON</text>
<text xml:space="preserve" text-anchor="middle" x="2729.63" y="-243.94" font-family="Arial" font-size="10.00" fill="#94a3b8">files</text>
</g>
<!-- threshold_table -->
<g id="node16" class="node">
<title>threshold_table</title>
<polygon fill="#1e1b4b" stroke="#6366f1" points="1529.24,-259.58 1341.44,-259.58 1341.44,-161.3 1535.24,-161.3 1535.24,-253.58 1529.24,-259.58"/>
<polyline fill="none" stroke="#6366f1" points="1529.24,-259.58 1529.24,-253.58"/>
<polyline fill="none" stroke="#6366f1" points="1535.24,-253.58 1529.24,-253.58"/>
<text xml:space="preserve" text-anchor="middle" x="1438.34" y="-240.49" font-family="Arial" font-size="11.00" fill="#a5b4fc">Пороговые значения</text>
<text xml:space="preserve" text-anchor="middle" x="1438.34" y="-226.99" font-family="Arial" font-size="11.00" fill="#a5b4fc">──────────────────────</text>
<text xml:space="preserve" text-anchor="middle" x="1438.34" y="-213.49" font-family="Arial" font-size="11.00" fill="#a5b4fc">WARN: &#160;&#160;|a| ≥ 2.5 м/с²</text>
<text xml:space="preserve" text-anchor="middle" x="1438.34" y="-199.99" font-family="Arial" font-size="11.00" fill="#a5b4fc">DANGER: |a| ≥ 3.5 м/с², 2+ точки</text>
<text xml:space="preserve" text-anchor="middle" x="1438.34" y="-186.49" font-family="Arial" font-size="11.00" fill="#a5b4fc">Слепая зона: density &gt; P₇₅</text>
<text xml:space="preserve" text-anchor="middle" x="1438.34" y="-172.99" font-family="Arial" font-size="11.00" fill="#a5b4fc"> &#160;&#160;&#160;&#160;&#160;&#160;&#160;&#160;&#160;&#160;&#160;&#160;infra_score = 0</text>
</g>
<!-- threshold_table&#45;&gt;algo_a -->
<g id="edge28" class="edge">
<title>threshold_table&#45;&gt;algo_a</title>
<path fill="none" stroke="#6366f1" stroke-width="1.5" stroke-dasharray="5,2" d="M1535.64,-242.33C1644.27,-242.33 1805.03,-242.33 1805.03,-242.33 1805.03,-242.33 1805.03,-249.86 1805.03,-260.33"/>
</g>
<!-- threshold_table&#45;&gt;algo_b -->
<g id="edge29" class="edge">
<title>threshold_table&#45;&gt;algo_b</title>
<path fill="none" stroke="#6366f1" stroke-width="1.5" stroke-dasharray="5,2" d="M1535.53,-182.56C1588.62,-182.56 1654.18,-182.56 1707.29,-182.56"/>
</g>
<!-- layer_h3 -->
<g id="node18" class="node">
<title>layer_h3</title>
<path fill="#064e3b" stroke="#10b981" d="M3228.48,-415.33C3228.48,-415.33 3087.93,-415.33 3087.93,-415.33 3081.93,-415.33 3075.93,-409.33 3075.93,-403.33 3075.93,-403.33 3075.93,-369.55 3075.93,-369.55 3075.93,-363.55 3081.93,-357.55 3087.93,-357.55 3087.93,-357.55 3228.48,-357.55 3228.48,-357.55 3234.48,-357.55 3240.48,-363.55 3240.48,-369.55 3240.48,-369.55 3240.48,-403.33 3240.48,-403.33 3240.48,-409.33 3234.48,-415.33 3228.48,-415.33"/>
<text xml:space="preserve" text-anchor="middle" x="3158.2" y="-396.24" font-family="Arial" font-size="11.00" fill="#a7f3d0">H3HexagonLayer</text>
<text xml:space="preserve" text-anchor="middle" x="3158.2" y="-382.74" font-family="Arial" font-size="11.00" fill="#a7f3d0">Тепловая карта плотности</text>
<text xml:space="preserve" text-anchor="middle" x="3158.2" y="-369.24" font-family="Arial" font-size="11.00" fill="#a7f3d0">+ слепые зоны (severity)</text>
</g>
<!-- react&#45;&gt;layer_h3 -->
<g id="edge20" class="edge">
<title>react&#45;&gt;layer_h3</title>
<path fill="none" stroke="#94a3b8" stroke-width="1.5" d="M2877.03,-284.13C2877.03,-322.16 2877.03,-371.82 2877.03,-371.82 2877.03,-371.82 3065.47,-371.82 3065.47,-371.82"/>
<polygon fill="#94a3b8" stroke="#94a3b8" stroke-width="1.5" points="3065.47,-374.62 3073.47,-371.82 3065.47,-369.02 3065.47,-374.62"/>
</g>
<!-- layer_path -->
<g id="node19" class="node">
<title>layer_path</title>
<path fill="#064e3b" stroke="#10b981" d="M3258.48,-321.33C3258.48,-321.33 3057.93,-321.33 3057.93,-321.33 3051.93,-321.33 3045.93,-315.33 3045.93,-309.33 3045.93,-309.33 3045.93,-275.55 3045.93,-275.55 3045.93,-269.55 3051.93,-263.55 3057.93,-263.55 3057.93,-263.55 3258.48,-263.55 3258.48,-263.55 3264.48,-263.55 3270.48,-269.55 3270.48,-275.55 3270.48,-275.55 3270.48,-309.33 3270.48,-309.33 3270.48,-315.33 3264.48,-321.33 3258.48,-321.33"/>
<text xml:space="preserve" text-anchor="middle" x="3158.2" y="-302.24" font-family="Arial" font-size="11.00" fill="#a7f3d0">PathLayer</text>
<text xml:space="preserve" text-anchor="middle" x="3158.2" y="-288.74" font-family="Arial" font-size="11.00" fill="#a7f3d0">Опасные сегменты</text>
<text xml:space="preserve" text-anchor="middle" x="3158.2" y="-275.24" font-family="Arial" font-size="11.00" fill="#a7f3d0">DANGER=красный / WARN=янтарный</text>
</g>
<!-- react&#45;&gt;layer_path -->
<g id="edge21" class="edge">
<title>react&#45;&gt;layer_path</title>
<path fill="none" stroke="#94a3b8" stroke-width="1.5" d="M2959.11,-273.69C2959.11,-273.69 3035.18,-273.69 3035.18,-273.69"/>
<polygon fill="#94a3b8" stroke="#94a3b8" stroke-width="1.5" points="3035.18,-276.49 3043.18,-273.69 3035.18,-270.89 3035.18,-276.49"/>
</g>
<!-- layer_trips -->
<g id="node20" class="node">
<title>layer_trips</title>
<path fill="#064e3b" stroke="#10b981" d="M3217.98,-227.08C3217.98,-227.08 3098.43,-227.08 3098.43,-227.08 3092.43,-227.08 3086.43,-221.08 3086.43,-215.08 3086.43,-215.08 3086.43,-167.8 3086.43,-167.8 3086.43,-161.8 3092.43,-155.8 3098.43,-155.8 3098.43,-155.8 3217.98,-155.8 3217.98,-155.8 3223.98,-155.8 3229.98,-161.8 3229.98,-167.8 3229.98,-167.8 3229.98,-215.08 3229.98,-215.08 3229.98,-221.08 3223.98,-227.08 3217.98,-227.08"/>
<text xml:space="preserve" text-anchor="middle" x="3158.2" y="-207.99" font-family="Arial" font-size="11.00" fill="#a7f3d0">TripsLayer</text>
<text xml:space="preserve" text-anchor="middle" x="3158.2" y="-194.49" font-family="Arial" font-size="11.00" fill="#a7f3d0">Анимация поездок</text>
<text xml:space="preserve" text-anchor="middle" x="3158.2" y="-180.99" font-family="Arial" font-size="11.00" fill="#a7f3d0">8× скорость / след 60с</text>
<text xml:space="preserve" text-anchor="middle" x="3158.2" y="-167.49" font-family="Arial" font-size="11.00" fill="#a7f3d0">Play / Pause</text>
</g>
<!-- react&#45;&gt;layer_trips -->
<g id="edge22" class="edge">
<title>react&#45;&gt;layer_trips</title>
<path fill="none" stroke="#94a3b8" stroke-width="1.5" d="M2959.11,-213.07C2959.11,-213.07 3075.78,-213.07 3075.78,-213.07"/>
<polygon fill="#94a3b8" stroke="#94a3b8" stroke-width="1.5" points="3075.78,-215.87 3083.78,-213.07 3075.78,-210.27 3075.78,-215.87"/>
</g>
<!-- alert_panel -->
<g id="node21" class="node">
<title>alert_panel</title>
<path fill="#064e3b" stroke="#10b981" d="M3204.85,-119.83C3204.85,-119.83 3111.55,-119.83 3111.55,-119.83 3105.55,-119.83 3099.55,-113.83 3099.55,-107.83 3099.55,-107.83 3099.55,-47.05 3099.55,-47.05 3099.55,-41.05 3105.55,-35.05 3111.55,-35.05 3111.55,-35.05 3204.85,-35.05 3204.85,-35.05 3210.85,-35.05 3216.85,-41.05 3216.85,-47.05 3216.85,-47.05 3216.85,-107.83 3216.85,-107.83 3216.85,-113.83 3210.85,-119.83 3204.85,-119.83"/>
<text xml:space="preserve" text-anchor="middle" x="3158.2" y="-100.74" font-family="Arial" font-size="11.00" fill="#a7f3d0">Alert Panel</text>
<text xml:space="preserve" text-anchor="middle" x="3158.2" y="-87.24" font-family="Arial" font-size="11.00" fill="#a7f3d0">Топ&#45;5 слепых зон</text>
<text xml:space="preserve" text-anchor="middle" x="3158.2" y="-73.74" font-family="Arial" font-size="11.00" fill="#a7f3d0">(zone_id / density</text>
<text xml:space="preserve" text-anchor="middle" x="3158.2" y="-60.24" font-family="Arial" font-size="11.00" fill="#a7f3d0">/ conflict_weight</text>
<text xml:space="preserve" text-anchor="middle" x="3158.2" y="-46.74" font-family="Arial" font-size="11.00" fill="#a7f3d0">/ рекомендация)</text>
</g>
<!-- react&#45;&gt;alert_panel -->
<g id="edge23" class="edge">
<title>react&#45;&gt;alert_panel</title>
<path fill="none" stroke="#94a3b8" stroke-width="1.5" d="M2877.03,-198.71C2877.03,-160.27 2877.03,-109.82 2877.03,-109.82 2877.03,-109.82 3088.99,-109.82 3088.99,-109.82"/>
<polygon fill="#94a3b8" stroke="#94a3b8" stroke-width="1.5" points="3088.99,-112.62 3096.99,-109.82 3088.99,-107.02 3088.99,-112.62"/>
</g>
<!-- layer_h3&#45;&gt;cup_user -->
<!-- layer_path&#45;&gt;cup_user -->
<!-- layer_trips&#45;&gt;cup_user -->
<!-- alert_panel&#45;&gt;cup_user -->
<g id="edge27" class="edge">
<title>alert_panel&#45;&gt;cup_user</title>
<path fill="none" stroke="#94a3b8" stroke-width="1.5" d="M3217.14,-77.44C3312.5,-77.44 3490.03,-77.44 3490.03,-77.44 3490.03,-77.44 3490.03,-208.71 3490.03,-208.71"/>
<polygon fill="#94a3b8" stroke="#94a3b8" stroke-width="1.5" points="3487.23,-208.71 3490.03,-216.71 3492.83,-208.71 3487.23,-208.71"/>
<text xml:space="preserve" text-anchor="middle" x="3348.73" y="-138.94" font-family="Arial" font-size="10.00" fill="#94a3b8">интерактивная</text>
<text xml:space="preserve" text-anchor="middle" x="3348.73" y="-126.94" font-family="Arial" font-size="10.00" fill="#94a3b8">карта + алерты</text>
</g>
</g>
</svg>
