<?xml version="1.0" encoding="UTF-8" standalone="no"?>
<!DOCTYPE svg PUBLIC "-//W3C//DTD SVG 1.1//EN"
 "http://www.w3.org/Graphics/SVG/1.1/DTD/svg11.dtd">
<!-- Generated by graphviz version 14.1.5 (20260411.2331)
 -->
<!-- Title: Ingestion Pages: 1 -->
<svg width="3071pt" height="821pt"
 viewBox="0.00 0.00 3071.00 821.00" xmlns="http://www.w3.org/2000/svg" xmlns:xlink="http://www.w3.org/1999/xlink">
<g id="graph0" class="graph" transform="scale(1 1) rotate(0) translate(57.6 763.1)">
<title>Ingestion</title>
<polygon fill="#0f1117" stroke="none" points="-57.6,57.6 -57.6,-763.1 3013.44,-763.1 3013.44,57.6 -57.6,57.6"/>
<text xml:space="preserve" text-anchor="middle" x="1477.92" y="-667.3" font-family="Arial" font-size="16.00" fill="#e2e8f0">АРХИТЕКТУРА УРОВНЯ ИНГЕСТА ДАННЫХ И РАЗБОР ПРОТОКОЛОВ NMEA/GPX</text>
<text xml:space="preserve" text-anchor="middle" x="1477.92" y="-648.55" font-family="Arial" font-size="16.00" fill="#e2e8f0">(Диаграмма 2 из 9)</text>
<g id="clust1" class="cluster">
<title>cluster_sources</title>
<path fill="#1c1917" stroke="#78716c" d="M20,-57C20,-57 175.42,-57 175.42,-57 181.42,-57 187.42,-63 187.42,-69 187.42,-69 187.42,-338 187.42,-338 187.42,-344 181.42,-350 175.42,-350 175.42,-350 20,-350 20,-350 14,-350 8,-344 8,-338 8,-338 8,-69 8,-69 8,-63 14,-57 20,-57"/>
<text xml:space="preserve" text-anchor="middle" x="97.71" y="-335.55" font-family="Arial" font-size="11.00" fill="#d6d3d1">ИСТОЧНИКИ ДАННЫХ</text>
</g>
<g id="clust2" class="cluster">
<title>cluster_nmea</title>
<path fill="#1e3a5f" stroke="#2563eb" d="M337.6,-274C337.6,-274 1806.43,-274 1806.43,-274 1812.43,-274 1818.43,-280 1818.43,-286 1818.43,-286 1818.43,-621 1818.43,-621 1818.43,-627 1812.43,-633 1806.43,-633 1806.43,-633 337.6,-633 337.6,-633 331.6,-633 325.6,-627 325.6,-621 325.6,-621 325.6,-286 325.6,-286 325.6,-280 331.6,-274 337.6,-274"/>
<text xml:space="preserve" text-anchor="middle" x="1072.02" y="-618.55" font-family="Arial" font-size="11.00" fill="#93c5fd">РАЗБОР NMEA 0183</text>
</g>
<g id="clust3" class="cluster">
<title>cluster_gpx</title>
<path fill="#2e1065" stroke="#7c3aed" d="M324.56,-8C324.56,-8 818.19,-8 818.19,-8 824.19,-8 830.19,-14 830.19,-20 830.19,-20 830.19,-121 830.19,-121 830.19,-127 824.19,-133 818.19,-133 818.19,-133 324.56,-133 324.56,-133 318.56,-133 312.56,-127 312.56,-121 312.56,-121 312.56,-20 312.56,-20 312.56,-14 318.56,-8 324.56,-8"/>
<text xml:space="preserve" text-anchor="middle" x="571.38" y="-118.55" font-family="Arial" font-size="11.00" fill="#c4b5fd">РАЗБОР GPX 1.1 (XML)</text>
</g>
<g id="clust4" class="cluster">
<title>cluster_mds</title>
<path fill="#052e16" stroke="#059669" d="M301.42,-141C301.42,-141 803.34,-141 803.34,-141 809.34,-141 815.34,-147 815.34,-153 815.34,-153 815.34,-254 815.34,-254 815.34,-260 809.34,-266 803.34,-266 803.34,-266 301.42,-266 301.42,-266 295.42,-266 289.42,-260 289.42,-254 289.42,-254 289.42,-153 289.42,-153 289.42,-147 295.42,-141 301.42,-141"/>
<text xml:space="preserve" text-anchor="middle" x="552.38" y="-251.55" font-family="Arial" font-size="11.00" fill="#6ee7b7">MDS ADAPTER (REST)</text>
</g>
<g id="clust5" class="cluster">
<title>cluster_norm</title>
<path fill="#1e3a5f" stroke="#2563eb" d="M1873.43,-213C1873.43,-213 2715.17,-213 2715.17,-213 2721.17,-213 2727.17,-219 2727.17,-225 2727.17,-225 2727.17,-475 2727.17,-475 2727.17,-481 2721.17,-487 2715.17,-487 2715.17,-487 1873.43,-487 1873.43,-487 1867.43,-487 1861.43,-481 1861.43,-475 1861.43,-475 1861.43,-225 1861.43,-225 1861.43,-219 1867.43,-213 1873.43,-213"/>
<text xml:space="preserve" text-anchor="middle" x="2294.3" y="-472.55" font-family="Arial" font-size="11.00" fill="#93c5fd">НОРМАЛИЗАЦИЯ И ВАЛИДАЦИЯ</text>
</g>
<!-- gps_hw -->
<g id="node1" class="node">
<title>gps_hw</title>
<path fill="#374151" stroke="#6b7280" d="M139.17,-312.64C139.17,-312.64 56.25,-312.64 56.25,-312.64 50.25,-312.64 44.25,-306.64 44.25,-300.64 44.25,-300.64 44.25,-271.36 44.25,-271.36 44.25,-265.36 50.25,-259.36 56.25,-259.36 56.25,-259.36 139.17,-259.36 139.17,-259.36 145.17,-259.36 151.17,-265.36 151.17,-271.36 151.17,-271.36 151.17,-300.64 151.17,-300.64 151.17,-306.64 145.17,-312.64 139.17,-312.64"/>
<text xml:space="preserve" text-anchor="middle" x="97.71" y="-294.5" font-family="Arial" font-size="10.00" fill="#f9fafb">GPS&#45;модуль</text>
<text xml:space="preserve" text-anchor="middle" x="97.71" y="-282.5" font-family="Arial" font-size="10.00" fill="#f9fafb">(u&#45;blox NEO&#45;M9N)</text>
<text xml:space="preserve" text-anchor="middle" x="97.71" y="-270.5" font-family="Arial" font-size="10.00" fill="#f9fafb">1 Гц, NMEA 0183</text>
</g>
<!-- nmea_recv -->
<g id="node4" class="node">
<title>nmea_recv</title>
<ellipse fill="#1d4ed8" stroke="#60a5fa" cx="412.96" cy="-327" rx="71.36" ry="29.19"/>
<text xml:space="preserve" text-anchor="middle" x="412.96" y="-329.5" font-family="Arial" font-size="10.00" fill="#eff6ff">NMEA&#45;приёмник</text>
<text xml:space="preserve" text-anchor="middle" x="412.96" y="-317.5" font-family="Arial" font-size="10.00" fill="#eff6ff">(serial / TCP)</text>
</g>
<!-- gps_hw&#45;&gt;nmea_recv -->
<g id="edge1" class="edge">
<title>gps_hw&#45;&gt;nmea_recv</title>
<path fill="none" stroke="#94a3b8" stroke-width="1.4" d="M151.5,-292.91C201.89,-299.51 278.4,-309.52 335.47,-316.99"/>
<polygon fill="#94a3b8" stroke="#94a3b8" stroke-width="1.4" points="335.1,-319.41 342.36,-317.89 335.74,-314.55 335.1,-319.41"/>
<text xml:space="preserve" text-anchor="middle" x="244.17" y="-320.18" font-family="Arial" font-size="9.00" fill="#94a3b8">RS&#45;232</text>
<text xml:space="preserve" text-anchor="middle" x="244.17" y="-309.68" font-family="Arial" font-size="9.00" fill="#94a3b8">/ TCP</text>
</g>
<!-- mobile -->
<g id="node2" class="node">
<title>mobile</title>
<path fill="#374151" stroke="#6b7280" d="M153.42,-126.64C153.42,-126.64 42,-126.64 42,-126.64 36,-126.64 30,-120.64 30,-114.64 30,-114.64 30,-85.36 30,-85.36 30,-79.36 36,-73.36 42,-73.36 42,-73.36 153.42,-73.36 153.42,-73.36 159.42,-73.36 165.42,-79.36 165.42,-85.36 165.42,-85.36 165.42,-114.64 165.42,-114.64 165.42,-120.64 159.42,-126.64 153.42,-126.64"/>
<text xml:space="preserve" text-anchor="middle" x="97.71" y="-108.5" font-family="Arial" font-size="10.00" fill="#f9fafb">Мобильное приложение</text>
<text xml:space="preserve" text-anchor="middle" x="97.71" y="-96.5" font-family="Arial" font-size="10.00" fill="#f9fafb">(Bolt / Whoosh)</text>
<text xml:space="preserve" text-anchor="middle" x="97.71" y="-84.5" font-family="Arial" font-size="10.00" fill="#f9fafb">GPX&#45;трек поездки</text>
</g>
<!-- gpx_parse -->
<g id="node11" class="node">
<title>gpx_parse</title>
<ellipse fill="#5b21b6" stroke="#a78bfa" cx="412.96" cy="-60" rx="86.4" ry="37.67"/>
<text xml:space="preserve" text-anchor="middle" x="412.96" y="-68.5" font-family="Arial" font-size="10.00" fill="#ede9fe">XML SAX&#45;парсер</text>
<text xml:space="preserve" text-anchor="middle" x="412.96" y="-56.5" font-family="Arial" font-size="10.00" fill="#ede9fe">&lt;trkpt lat=.. lon=..&gt;</text>
<text xml:space="preserve" text-anchor="middle" x="412.96" y="-44.5" font-family="Arial" font-size="10.00" fill="#ede9fe"> &#160;&lt;ele&gt;, &lt;time&gt;</text>
</g>
<!-- mobile&#45;&gt;gpx_parse -->
<g id="edge12" class="edge">
<title>mobile&#45;&gt;gpx_parse</title>
<path fill="none" stroke="#94a3b8" stroke-width="1.4" d="M165.91,-91.42C211.11,-85.65 271.24,-77.97 320.75,-71.65"/>
<polygon fill="#94a3b8" stroke="#94a3b8" stroke-width="1.4" points="320.81,-74.11 327.45,-70.79 320.19,-69.25 320.81,-74.11"/>
<text xml:space="preserve" text-anchor="middle" x="244.17" y="-96.03" font-family="Arial" font-size="9.00" fill="#94a3b8">GPX XML</text>
<text xml:space="preserve" text-anchor="middle" x="244.17" y="-85.53" font-family="Arial" font-size="9.00" fill="#94a3b8">file / stream</text>
</g>
<!-- mds_src -->
<g id="node3" class="node">
<title>mds_src</title>
<path fill="#374151" stroke="#6b7280" d="M159.42,-219.64C159.42,-219.64 36,-219.64 36,-219.64 30,-219.64 24,-213.64 24,-207.64 24,-207.64 24,-178.36 24,-178.36 24,-172.36 30,-166.36 36,-166.36 36,-166.36 159.42,-166.36 159.42,-166.36 165.42,-166.36 171.42,-172.36 171.42,-178.36 171.42,-178.36 171.42,-207.64 171.42,-207.64 171.42,-213.64 165.42,-219.64 159.42,-219.64"/>
<text xml:space="preserve" text-anchor="middle" x="97.71" y="-201.5" font-family="Arial" font-size="10.00" fill="#f9fafb">MDS Provider API</text>
<text xml:space="preserve" text-anchor="middle" x="97.71" y="-189.5" font-family="Arial" font-size="10.00" fill="#f9fafb">(REST, poll 1 мин)</text>
<text xml:space="preserve" text-anchor="middle" x="97.71" y="-177.5" font-family="Arial" font-size="10.00" fill="#f9fafb">JSON GeoJSON LineString</text>
</g>
<!-- mds_poll -->
<g id="node13" class="node">
<title>mds_poll</title>
<ellipse fill="#065f46" stroke="#34d399" cx="412.96" cy="-193" rx="109.54" ry="37.67"/>
<text xml:space="preserve" text-anchor="middle" x="412.96" y="-201.5" font-family="Arial" font-size="10.00" fill="#d1fae5">HTTP GET</text>
<text xml:space="preserve" text-anchor="middle" x="412.96" y="-189.5" font-family="Arial" font-size="10.00" fill="#d1fae5">/trips?start_time=&amp;end_time=</text>
<text xml:space="preserve" text-anchor="middle" x="412.96" y="-177.5" font-family="Arial" font-size="10.00" fill="#d1fae5">poll interval: 60 s</text>
</g>
<!-- mds_src&#45;&gt;mds_poll -->
<g id="edge15" class="edge">
<title>mds_src&#45;&gt;mds_poll</title>
<path fill="none" stroke="#94a3b8" stroke-width="1.4" d="M171.76,-193C208.14,-193 253.03,-193 294.12,-193"/>
<polygon fill="#94a3b8" stroke="#94a3b8" stroke-width="1.4" points="293.98,-195.45 300.98,-193 293.98,-190.55 293.98,-195.45"/>
<text xml:space="preserve" text-anchor="middle" x="244.17" y="-194.95" font-family="Arial" font-size="9.00" fill="#94a3b8">HTTPS</text>
</g>
<!-- nmea_split -->
<g id="node5" class="node">
<title>nmea_split</title>
<ellipse fill="#1e40af" stroke="#3b82f6" cx="718.31" cy="-389" rx="122.8" ry="46.16"/>
<text xml:space="preserve" text-anchor="middle" x="718.31" y="-403.5" font-family="Arial" font-size="10.00" fill="#eff6ff">Разбивка по типу предложения:</text>
<text xml:space="preserve" text-anchor="middle" x="718.31" y="-391.5" font-family="Arial" font-size="10.00" fill="#eff6ff">$GPGGA — позиция + высота</text>
<text xml:space="preserve" text-anchor="middle" x="718.31" y="-379.5" font-family="Arial" font-size="10.00" fill="#eff6ff">$GPRMC — позиция + скорость</text>
<text xml:space="preserve" text-anchor="middle" x="718.31" y="-367.5" font-family="Arial" font-size="10.00" fill="#eff6ff">$GPVTG — курс + скорость</text>
</g>
<!-- nmea_recv&#45;&gt;nmea_split -->
<g id="edge2" class="edge">
<title>nmea_recv&#45;&gt;nmea_split</title>
<path fill="none" stroke="#94a3b8" stroke-width="1.4" d="M477.56,-340C513.24,-347.29 558.88,-356.62 600.74,-365.17"/>
<polygon fill="#94a3b8" stroke="#94a3b8" stroke-width="1.4" points="600.19,-367.56 607.53,-366.56 601.17,-362.76 600.19,-367.56"/>
</g>
<!-- gga -->
<g id="node6" class="node">
<title>gga</title>
<ellipse fill="#1e3a8a" stroke="#60a5fa" cx="1010.93" cy="-328" rx="96.82" ry="37.67"/>
<text xml:space="preserve" text-anchor="middle" x="1010.93" y="-336.5" font-family="Arial" font-size="10.00" fill="#bfdbfe">GGA parser</text>
<text xml:space="preserve" text-anchor="middle" x="1010.93" y="-324.5" font-family="Arial" font-size="10.00" fill="#bfdbfe">lat/lon (DDMM.MMMMM)</text>
<text xml:space="preserve" text-anchor="middle" x="1010.93" y="-312.5" font-family="Arial" font-size="10.00" fill="#bfdbfe">alt, fix quality, HDOP</text>
</g>
<!-- nmea_split&#45;&gt;gga -->
<g id="edge3" class="edge">
<title>nmea_split&#45;&gt;gga</title>
<path fill="none" stroke="#94a3b8" stroke-width="1.4" d="M826.29,-366.55C855.77,-360.36 887.52,-353.69 916.19,-347.68"/>
<polygon fill="#94a3b8" stroke="#94a3b8" stroke-width="1.4" points="916.56,-350.1 922.91,-346.27 915.56,-345.31 916.56,-350.1"/>
</g>
<!-- rmc -->
<g id="node7" class="node">
<title>rmc</title>
<ellipse fill="#1e3a8a" stroke="#60a5fa" cx="1010.93" cy="-443" rx="88.86" ry="37.67"/>
<text xml:space="preserve" text-anchor="middle" x="1010.93" y="-451.5" font-family="Arial" font-size="10.00" fill="#bfdbfe">RMC parser</text>
<text xml:space="preserve" text-anchor="middle" x="1010.93" y="-439.5" font-family="Arial" font-size="10.00" fill="#bfdbfe">lat/lon + speed (knots)</text>
<text xml:space="preserve" text-anchor="middle" x="1010.93" y="-427.5" font-family="Arial" font-size="10.00" fill="#bfdbfe">course, date/time UTC</text>
</g>
<!-- nmea_split&#45;&gt;rmc -->
<g id="edge4" class="edge">
<title>nmea_split&#45;&gt;rmc</title>
<path fill="none" stroke="#94a3b8" stroke-width="1.4" d="M829.18,-409.42C859.19,-414.99 891.35,-420.97 920.1,-426.31"/>
<polygon fill="#94a3b8" stroke="#94a3b8" stroke-width="1.4" points="919.49,-428.69 926.82,-427.56 920.38,-423.87 919.49,-428.69"/>
</g>
<!-- vtg -->
<g id="node8" class="node">
<title>vtg</title>
<ellipse fill="#1e3a8a" stroke="#60a5fa" cx="1010.93" cy="-558" rx="79.85" ry="37.67"/>
<text xml:space="preserve" text-anchor="middle" x="1010.93" y="-566.5" font-family="Arial" font-size="10.00" fill="#bfdbfe">VTG parser</text>
<text xml:space="preserve" text-anchor="middle" x="1010.93" y="-554.5" font-family="Arial" font-size="10.00" fill="#bfdbfe">course (true/mag)</text>
<text xml:space="preserve" text-anchor="middle" x="1010.93" y="-542.5" font-family="Arial" font-size="10.00" fill="#bfdbfe">speed km/h + knots</text>
</g>
<!-- nmea_split&#45;&gt;vtg -->
<g id="edge5" class="edge">
<title>nmea_split&#45;&gt;vtg</title>
<path fill="none" stroke="#94a3b8" stroke-width="1.4" d="M785.99,-427.77C836.15,-456.94 904.2,-496.52 952.08,-524.36"/>
<polygon fill="#94a3b8" stroke="#94a3b8" stroke-width="1.4" points="950.77,-526.43 958.05,-527.83 953.23,-522.19 950.77,-526.43"/>
</g>
<!-- nmea_checksum -->
<g id="node9" class="node">
<title>nmea_checksum</title>
<path fill="#312e81" stroke="#6366f1" d="M1310.94,-492.05C1310.94,-492.05 1191.98,-447.23 1191.98,-447.23 1186.37,-445.12 1186.37,-440.88 1191.98,-438.77 1191.98,-438.77 1310.94,-393.95 1310.94,-393.95 1316.56,-391.84 1327.79,-391.84 1333.4,-393.95 1333.4,-393.95 1452.36,-438.77 1452.36,-438.77 1457.98,-440.88 1457.98,-445.12 1452.36,-447.23 1452.36,-447.23 1333.4,-492.05 1333.4,-492.05 1327.79,-494.16 1316.56,-494.16 1310.94,-492.05"/>
<text xml:space="preserve" text-anchor="middle" x="1322.17" y="-451.5" font-family="Arial" font-size="10.00" fill="#c7d2fe">Контрольная сумма XOR</text>
<text xml:space="preserve" text-anchor="middle" x="1322.17" y="-439.5" font-family="Arial" font-size="10.00" fill="#c7d2fe">$GP...* HH</text>
<text xml:space="preserve" text-anchor="middle" x="1322.17" y="-427.5" font-family="Arial" font-size="10.00" fill="#c7d2fe">Отклонение &#45;&gt; DROP</text>
</g>
<!-- gga&#45;&gt;nmea_checksum -->
<g id="edge6" class="edge">
<title>gga&#45;&gt;nmea_checksum</title>
<path fill="none" stroke="#94a3b8" stroke-width="1.4" d="M1081.72,-353.95C1129.21,-371.61 1192.16,-395.02 1241.59,-413.41"/>
<polygon fill="#94a3b8" stroke="#94a3b8" stroke-width="1.4" points="1240.63,-415.66 1248.05,-415.81 1242.34,-411.07 1240.63,-415.66"/>
</g>
<!-- rmc&#45;&gt;nmea_checksum -->
<g id="edge7" class="edge">
<title>rmc&#45;&gt;nmea_checksum</title>
<path fill="none" stroke="#94a3b8" stroke-width="1.4" d="M1100.13,-443C1122.16,-443 1146.4,-443 1170.51,-443"/>
<polygon fill="#94a3b8" stroke="#94a3b8" stroke-width="1.4" points="1170.26,-445.45 1177.26,-443 1170.26,-440.55 1170.26,-445.45"/>
</g>
<!-- vtg&#45;&gt;nmea_checksum -->
<g id="edge8" class="edge">
<title>vtg&#45;&gt;nmea_checksum</title>
<path fill="none" stroke="#94a3b8" stroke-width="1.4" d="M1074.51,-534.73C1122.66,-516.82 1189.53,-491.96 1241.5,-472.63"/>
<polygon fill="#94a3b8" stroke="#94a3b8" stroke-width="1.4" points="1242.34,-474.93 1248.05,-470.19 1240.63,-470.34 1242.34,-474.93"/>
</g>
<!-- coord_conv -->
<g id="node10" class="node">
<title>coord_conv</title>
<ellipse fill="#1d4ed8" stroke="#60a5fa" cx="1675.39" cy="-336" rx="127.05" ry="46.16"/>
<text xml:space="preserve" text-anchor="middle" x="1675.39" y="-350.5" font-family="Arial" font-size="10.00" fill="#eff6ff">Конвертация координат</text>
<text xml:space="preserve" text-anchor="middle" x="1675.39" y="-338.5" font-family="Arial" font-size="10.00" fill="#eff6ff">DDMM.MMMMM &#45;&gt; DD.DDDDDD</text>
<text xml:space="preserve" text-anchor="middle" x="1675.39" y="-326.5" font-family="Arial" font-size="10.00" fill="#eff6ff">lat = D + M/60</text>
<text xml:space="preserve" text-anchor="middle" x="1675.39" y="-314.5" font-family="Arial" font-size="10.00" fill="#eff6ff">lon = D + M/60</text>
</g>
<!-- nmea_checksum&#45;&gt;coord_conv -->
<g id="edge9" class="edge">
<title>nmea_checksum&#45;&gt;coord_conv</title>
<path fill="none" stroke="#94a3b8" stroke-width="1.4" d="M1401.55,-419.12C1450.78,-404.12 1514.88,-384.59 1568.58,-368.23"/>
<polygon fill="#94a3b8" stroke="#94a3b8" stroke-width="1.4" points="1569.1,-370.64 1575.08,-366.25 1567.67,-365.95 1569.1,-370.64"/>
<text xml:space="preserve" text-anchor="middle" x="1505.97" y="-388.24" font-family="Arial" font-size="9.00" fill="#94a3b8">OK</text>
</g>
<!-- drop -->
<g id="node17" class="node">
<title>drop</title>
<ellipse fill="#7f1d1d" stroke="#ef4444" cx="2612.11" cy="-422" rx="85.15" ry="29.19"/>
<text xml:space="preserve" text-anchor="middle" x="2612.11" y="-424.5" font-family="Arial" font-size="10.00" fill="#fecaca">DROP</text>
<text xml:space="preserve" text-anchor="middle" x="2612.11" y="-412.5" font-family="Arial" font-size="10.00" fill="#fecaca">(некорректная точка)</text>
</g>
<!-- nmea_checksum&#45;&gt;drop -->
<g id="edge10" class="edge">
<title>nmea_checksum&#45;&gt;drop</title>
<path fill="none" stroke="#94a3b8" stroke-width="1.4" d="M1464.76,-443C1562.29,-443 1674.39,-443 1674.39,-443 1674.39,-443 1674.39,-443 2276.88,-443 2276.88,-443 2420.29,-433.99 2519.23,-427.77"/>
<polygon fill="#94a3b8" stroke="#94a3b8" stroke-width="1.4" points="2519.11,-430.24 2525.95,-427.35 2518.81,-425.34 2519.11,-430.24"/>
<text xml:space="preserve" text-anchor="middle" x="1966.95" y="-444.95" font-family="Arial" font-size="9.00" fill="#94a3b8">FAIL</text>
</g>
<!-- wgs84 -->
<g id="node15" class="node">
<title>wgs84</title>
<ellipse fill="#1d4ed8" stroke="#60a5fa" cx="1966.95" cy="-265" rx="91.51" ry="29.19"/>
<text xml:space="preserve" text-anchor="middle" x="1966.95" y="-267.5" font-family="Arial" font-size="10.00" fill="#eff6ff">Приведение к WGS&#45;84</text>
<text xml:space="preserve" text-anchor="middle" x="1966.95" y="-255.5" font-family="Arial" font-size="10.00" fill="#eff6ff">(EPSG:4326)</text>
</g>
<!-- coord_conv&#45;&gt;wgs84 -->
<g id="edge11" class="edge">
<title>coord_conv&#45;&gt;wgs84</title>
<path fill="none" stroke="#94a3b8" stroke-width="1.4" d="M1781.33,-310.27C1815.51,-301.89 1852.89,-292.72 1885.02,-284.84"/>
<polygon fill="#94a3b8" stroke="#94a3b8" stroke-width="1.4" points="1885.23,-287.31 1891.45,-283.27 1884.06,-282.56 1885.23,-287.31"/>
</g>
<!-- gpx_resamp -->
<g id="node12" class="node">
<title>gpx_resamp</title>
<ellipse fill="#4c1d95" stroke="#7c3aed" cx="718.31" cy="-60" rx="97.88" ry="37.67"/>
<text xml:space="preserve" text-anchor="middle" x="718.31" y="-68.5" font-family="Arial" font-size="10.00" fill="#ddd6fe">Ресемплинг до 1 Гц</text>
<text xml:space="preserve" text-anchor="middle" x="718.31" y="-56.5" font-family="Arial" font-size="10.00" fill="#ddd6fe">(линейная интерполяция</text>
<text xml:space="preserve" text-anchor="middle" x="718.31" y="-44.5" font-family="Arial" font-size="10.00" fill="#ddd6fe">по временным меткам)</text>
</g>
<!-- gpx_parse&#45;&gt;gpx_resamp -->
<g id="edge13" class="edge">
<title>gpx_parse&#45;&gt;gpx_resamp</title>
<path fill="none" stroke="#94a3b8" stroke-width="1.4" d="M499.68,-60C534.39,-60 574.82,-60 611.35,-60"/>
<polygon fill="#94a3b8" stroke="#94a3b8" stroke-width="1.4" points="610.94,-62.45 617.94,-60 610.94,-57.55 610.94,-62.45"/>
</g>
<!-- gpx_resamp&#45;&gt;wgs84 -->
<g id="edge14" class="edge">
<title>gpx_resamp&#45;&gt;wgs84</title>
<path fill="none" stroke="#94a3b8" stroke-width="1.4" d="M812.07,-71.17C897.12,-81.41 1009.93,-95 1009.93,-95 1009.93,-95 1009.93,-95 1676.39,-95 1676.39,-95 1830.84,-185.68 1914.14,-234.58"/>
<polygon fill="#94a3b8" stroke="#94a3b8" stroke-width="1.4" points="1912.86,-236.68 1920.14,-238.11 1915.34,-232.45 1912.86,-236.68"/>
</g>
<!-- mds_parse -->
<g id="node14" class="node">
<title>mds_parse</title>
<ellipse fill="#064e3b" stroke="#10b981" cx="718.31" cy="-193" rx="83.03" ry="37.67"/>
<text xml:space="preserve" text-anchor="middle" x="718.31" y="-201.5" font-family="Arial" font-size="10.00" fill="#d1fae5">GeoJSON LineString</text>
<text xml:space="preserve" text-anchor="middle" x="718.31" y="-189.5" font-family="Arial" font-size="10.00" fill="#d1fae5">&#45;&gt; coordinates[][]</text>
<text xml:space="preserve" text-anchor="middle" x="718.31" y="-177.5" font-family="Arial" font-size="10.00" fill="#d1fae5">&#45;&gt; timestamps[]</text>
</g>
<!-- mds_poll&#45;&gt;mds_parse -->
<g id="edge16" class="edge">
<title>mds_poll&#45;&gt;mds_parse</title>
<path fill="none" stroke="#94a3b8" stroke-width="1.4" d="M522.62,-193C556.5,-193 593.5,-193 626.05,-193"/>
<polygon fill="#94a3b8" stroke="#94a3b8" stroke-width="1.4" points="625.99,-195.45 632.99,-193 625.99,-190.55 625.99,-195.45"/>
</g>
<!-- mds_parse&#45;&gt;wgs84 -->
<g id="edge17" class="edge">
<title>mds_parse&#45;&gt;wgs84</title>
<path fill="none" stroke="#94a3b8" stroke-width="1.4" d="M801.04,-198.06C887,-203.39 1009.93,-211 1009.93,-211 1009.93,-211 1009.93,-211 1676.39,-211 1676.39,-211 1793.06,-232.76 1878.28,-248.65"/>
<polygon fill="#94a3b8" stroke="#94a3b8" stroke-width="1.4" points="1877.79,-251.05 1885.12,-249.93 1878.69,-246.24 1877.79,-251.05"/>
</g>
<!-- valid -->
<g id="node16" class="node">
<title>valid</title>
<path fill="#312e81" stroke="#6366f1" d="M2264.95,-352.34C2264.95,-352.34 2142.39,-296.94 2142.39,-296.94 2136.93,-294.47 2136.93,-289.53 2142.39,-287.06 2142.39,-287.06 2264.95,-231.66 2264.95,-231.66 2270.41,-229.19 2281.35,-229.19 2286.81,-231.66 2286.81,-231.66 2409.37,-287.06 2409.37,-287.06 2414.83,-289.53 2414.83,-294.47 2409.37,-296.94 2409.37,-296.94 2286.81,-352.34 2286.81,-352.34 2281.35,-354.81 2270.41,-354.81 2264.95,-352.34"/>
<text xml:space="preserve" text-anchor="middle" x="2275.88" y="-306.5" font-family="Arial" font-size="10.00" fill="#c7d2fe">Валидация:</text>
<text xml:space="preserve" text-anchor="middle" x="2275.88" y="-294.5" font-family="Arial" font-size="10.00" fill="#c7d2fe">|lat| &lt;= 90, |lon| &lt;= 180</text>
<text xml:space="preserve" text-anchor="middle" x="2275.88" y="-282.5" font-family="Arial" font-size="10.00" fill="#c7d2fe">dt &gt; 0, speed &lt; 50 м/с</text>
<text xml:space="preserve" text-anchor="middle" x="2275.88" y="-270.5" font-family="Arial" font-size="10.00" fill="#c7d2fe">HDOP &lt; 5 (только NMEA)</text>
</g>
<!-- wgs84&#45;&gt;valid -->
<g id="edge18" class="edge">
<title>wgs84&#45;&gt;valid</title>
<path fill="none" stroke="#94a3b8" stroke-width="1.4" d="M2055.49,-272.7C2083.39,-275.16 2114.88,-277.93 2145.11,-280.58"/>
<polygon fill="#94a3b8" stroke="#94a3b8" stroke-width="1.4" points="2144.72,-283.01 2151.91,-281.18 2145.15,-278.13 2144.72,-283.01"/>
</g>
<!-- valid&#45;&gt;drop -->
<g id="edge20" class="edge">
<title>valid&#45;&gt;drop</title>
<path fill="none" stroke="#94a3b8" stroke-width="1.4" d="M2354.4,-322.15C2412.64,-344.8 2491.48,-375.47 2546.37,-396.82"/>
<polygon fill="#94a3b8" stroke="#94a3b8" stroke-width="1.4" points="2545.24,-399.01 2552.65,-399.26 2547.01,-394.44 2545.24,-399.01"/>
<text xml:space="preserve" text-anchor="middle" x="2465.67" y="-370.59" font-family="Arial" font-size="9.00" fill="#94a3b8">FAIL</text>
</g>
<!-- schema -->
<g id="node18" class="node">
<title>schema</title>
<ellipse fill="#1e3a8a" stroke="#3b82f6" cx="2612.11" cy="-290" rx="101.06" ry="63.13"/>
<text xml:space="preserve" text-anchor="middle" x="2612.11" y="-316.5" font-family="Arial" font-size="10.00" fill="#bfdbfe">Унифицированная схема:</text>
<text xml:space="preserve" text-anchor="middle" x="2612.11" y="-304.5" font-family="Arial" font-size="10.00" fill="#bfdbfe">{</text>
<text xml:space="preserve" text-anchor="middle" x="2612.11" y="-292.5" font-family="Arial" font-size="10.00" fill="#bfdbfe"> &#160;trip_id, lon, lat,</text>
<text xml:space="preserve" text-anchor="middle" x="2612.11" y="-280.5" font-family="Arial" font-size="10.00" fill="#bfdbfe"> &#160;timestamp_s (Unix),</text>
<text xml:space="preserve" text-anchor="middle" x="2612.11" y="-268.5" font-family="Arial" font-size="10.00" fill="#bfdbfe"> &#160;speed_ms, source</text>
<text xml:space="preserve" text-anchor="middle" x="2612.11" y="-256.5" font-family="Arial" font-size="10.00" fill="#bfdbfe">}</text>
</g>
<!-- valid&#45;&gt;schema -->
<g id="edge19" class="edge">
<title>valid&#45;&gt;schema</title>
<path fill="none" stroke="#94a3b8" stroke-width="1.4" d="M2419.59,-291.15C2447.17,-290.98 2475.65,-290.81 2501.95,-290.65"/>
<polygon fill="#94a3b8" stroke="#94a3b8" stroke-width="1.4" points="2501.68,-293.1 2508.66,-290.61 2501.65,-288.21 2501.68,-293.1"/>
<text xml:space="preserve" text-anchor="middle" x="2465.67" y="-292.83" font-family="Arial" font-size="9.00" fill="#94a3b8">OK</text>
</g>
<!-- mqtt_out -->
<g id="node19" class="node">
<title>mqtt_out</title>
<path fill="#78350f" stroke="#f59e0b" d="M2946.46,-371.97C2946.46,-375.64 2920.15,-378.63 2887.75,-378.63 2855.36,-378.63 2829.04,-375.64 2829.04,-371.97 2829.04,-371.97 2829.04,-312.03 2829.04,-312.03 2829.04,-308.36 2855.36,-305.37 2887.75,-305.37 2920.15,-305.37 2946.46,-308.36 2946.46,-312.03 2946.46,-312.03 2946.46,-371.97 2946.46,-371.97"/>
<path fill="none" stroke="#f59e0b" d="M2946.46,-371.97C2946.46,-368.3 2920.15,-365.31 2887.75,-365.31 2855.36,-365.31 2829.04,-368.3 2829.04,-371.97"/>
<text xml:space="preserve" text-anchor="middle" x="2887.75" y="-350.5" font-family="Arial" font-size="10.00" fill="#fde68a">MQTT Broker</text>
<text xml:space="preserve" text-anchor="middle" x="2887.75" y="-338.5" font-family="Arial" font-size="10.00" fill="#fde68a">(Mosquitto)</text>
<text xml:space="preserve" text-anchor="middle" x="2887.75" y="-326.5" font-family="Arial" font-size="10.00" fill="#fde68a">Topic: pmd/telemetry</text>
</g>
<!-- schema&#45;&gt;mqtt_out -->
<g id="edge21" class="edge">
<title>schema&#45;&gt;mqtt_out</title>
<path fill="none" stroke="#94a3b8" stroke-width="1.4" d="M2709.2,-308.26C2745.82,-315.22 2786.71,-322.99 2820.02,-329.32"/>
<polygon fill="#94a3b8" stroke="#94a3b8" stroke-width="1.4" points="2819.34,-331.68 2826.67,-330.58 2820.25,-326.87 2819.34,-331.68"/>
<text xml:space="preserve" text-anchor="middle" x="2766.42" y="-324.14" font-family="Arial" font-size="9.00" fill="#94a3b8">IoT path</text>
</g>
<!-- kafka_out -->
<g id="node20" class="node">
<title>kafka_out</title>
<path fill="#3730a3" stroke="#818cf8" d="M2955.84,-260.22C2955.84,-263.07 2925.32,-265.38 2887.75,-265.38 2850.19,-265.38 2819.67,-263.07 2819.67,-260.22 2819.67,-260.22 2819.67,-213.78 2819.67,-213.78 2819.67,-210.93 2850.19,-208.62 2887.75,-208.62 2925.32,-208.62 2955.84,-210.93 2955.84,-213.78 2955.84,-213.78 2955.84,-260.22 2955.84,-260.22"/>
<path fill="none" stroke="#818cf8" d="M2955.84,-260.22C2955.84,-257.37 2925.32,-255.06 2887.75,-255.06 2850.19,-255.06 2819.67,-257.37 2819.67,-260.22"/>
<text xml:space="preserve" text-anchor="middle" x="2887.75" y="-239.5" font-family="Arial" font-size="10.00" fill="#e0e7ff">Apache Kafka</text>
<text xml:space="preserve" text-anchor="middle" x="2887.75" y="-227.5" font-family="Arial" font-size="10.00" fill="#e0e7ff">Topic: pmd&#45;raw&#45;telemetry</text>
</g>
<!-- schema&#45;&gt;kafka_out -->
<g id="edge22" class="edge">
<title>schema&#45;&gt;kafka_out</title>
<path fill="none" stroke="#94a3b8" stroke-width="1.4" d="M2709.2,-271.39C2742.42,-264.95 2779.17,-257.84 2810.57,-251.76"/>
<polygon fill="#94a3b8" stroke="#94a3b8" stroke-width="1.4" points="2810.79,-254.21 2817.2,-250.47 2809.86,-249.4 2810.79,-254.21"/>
<text xml:space="preserve" text-anchor="middle" x="2766.42" y="-265.45" font-family="Arial" font-size="9.00" fill="#94a3b8">API path</text>
</g>
<!-- nmea_ref -->
<g id="node21" class="node">
<title>nmea_ref</title>
<polygon fill="#1e1b4b" stroke="#6366f1" points="178.92,-509.64 10.5,-509.64 10.5,-366.36 184.92,-366.36 184.92,-503.64 178.92,-509.64"/>
<polyline fill="none" stroke="#6366f1" points="178.92,-509.64 178.92,-503.64"/>
<polyline fill="none" stroke="#6366f1" points="184.92,-503.64 178.92,-503.64"/>
<text xml:space="preserve" text-anchor="middle" x="97.71" y="-492.45" font-family="Arial" font-size="9.00" fill="#a5b4fc">NMEA 0183 — пример:</text>
<text xml:space="preserve" text-anchor="middle" x="97.71" y="-481.95" font-family="Arial" font-size="9.00" fill="#a5b4fc">$GPRMC,123519,A,4807.038,N</text>
<text xml:space="preserve" text-anchor="middle" x="97.71" y="-471.45" font-family="Arial" font-size="9.00" fill="#a5b4fc">,01131.000,E,022.4,084.4</text>
<text xml:space="preserve" text-anchor="middle" x="97.71" y="-460.95" font-family="Arial" font-size="9.00" fill="#a5b4fc">,230394,003.1,W*6A</text>
<text xml:space="preserve" text-anchor="middle" x="97.71" y="-450.45" font-family="Arial" font-size="9.00" fill="#a5b4fc">──────────────────────</text>
<text xml:space="preserve" text-anchor="middle" x="97.71" y="-439.95" font-family="Arial" font-size="9.00" fill="#a5b4fc">Поля:</text>
<text xml:space="preserve" text-anchor="middle" x="97.71" y="-429.45" font-family="Arial" font-size="9.00" fill="#a5b4fc"> &#160;UTC=12:35:19</text>
<text xml:space="preserve" text-anchor="middle" x="97.71" y="-418.95" font-family="Arial" font-size="9.00" fill="#a5b4fc"> &#160;lat=48.1173N</text>
<text xml:space="preserve" text-anchor="middle" x="97.71" y="-408.45" font-family="Arial" font-size="9.00" fill="#a5b4fc"> &#160;lon=11.5167E</text>
<text xml:space="preserve" text-anchor="middle" x="97.71" y="-397.95" font-family="Arial" font-size="9.00" fill="#a5b4fc"> &#160;speed=22.4 уз=11.5 м/с</text>
<text xml:space="preserve" text-anchor="middle" x="97.71" y="-387.45" font-family="Arial" font-size="9.00" fill="#a5b4fc"> &#160;course=84.4°</text>
<text xml:space="preserve" text-anchor="middle" x="97.71" y="-376.95" font-family="Arial" font-size="9.00" fill="#a5b4fc"> &#160;date=23.03.94</text>
</g>
</g>
</svg>
