<?xml version="1.0" encoding="UTF-8" standalone="no"?>
<!DOCTYPE svg PUBLIC "-//W3C//DTD SVG 1.1//EN"
 "http://www.w3.org/Graphics/SVG/1.1/DTD/svg11.dtd">
<!-- Generated by graphviz version 14.1.5 (20260411.2331)
 -->
<!-- Title: KafkaTopology Pages: 1 -->
<svg width="1668pt" height="780pt"
 viewBox="0.00 0.00 1668.00 780.00" xmlns="http://www.w3.org/2000/svg" xmlns:xlink="http://www.w3.org/1999/xlink">
<g id="graph0" class="graph" transform="scale(1 1) rotate(0) translate(50.4 729.85)">
<title>KafkaTopology</title>
<polygon fill="#0f1117" stroke="none" points="-50.4,50.4 -50.4,-729.85 1617.73,-729.85 1617.73,50.4 -50.4,50.4"/>
<text xml:space="preserve" text-anchor="middle" x="783.66" y="-641.25" font-family="Arial" font-size="16.00" fill="#e2e8f0">ТОПОЛОГИЯ ПОТОКОВОЙ ОБРАБОТКИ ДАННЫХ (Apache Kafka + Faust)</text>
<text xml:space="preserve" text-anchor="middle" x="783.66" y="-622.5" font-family="Arial" font-size="16.00" fill="#e2e8f0">(Диаграмма 3 из 9)</text>
<g id="clust1" class="cluster">
<title>cluster_producers</title>
<path fill="#1e3a5f" stroke="#2563eb" d="M36.64,-187C36.64,-187 203.39,-187 203.39,-187 209.39,-187 215.39,-193 215.39,-199 215.39,-199 215.39,-459 215.39,-459 215.39,-465 209.39,-471 203.39,-471 203.39,-471 36.64,-471 36.64,-471 30.64,-471 24.64,-465 24.64,-459 24.64,-459 24.64,-199 24.64,-199 24.64,-193 30.64,-187 36.64,-187"/>
<text xml:space="preserve" text-anchor="middle" x="120.02" y="-456.55" font-family="Arial" font-size="11.00" fill="#93c5fd">PRODUCERS (источники данных)</text>
</g>
<g id="clust2" class="cluster">
<title>cluster_kafka</title>
<path fill="#1e1065" stroke="#4338ca" d="M352.54,-59C352.54,-59 545.54,-59 545.54,-59 551.54,-59 557.54,-65 557.54,-71 557.54,-71 557.54,-376 557.54,-376 557.54,-382 551.54,-388 545.54,-388 545.54,-388 352.54,-388 352.54,-388 346.54,-388 340.54,-382 340.54,-376 340.54,-376 340.54,-71 340.54,-71 340.54,-65 346.54,-59 352.54,-59"/>
<text xml:space="preserve" text-anchor="middle" x="449.04" y="-373.55" font-family="Arial" font-size="11.00" fill="#a5b4fc">APACHE KAFKA CLUSTER (3 брокера)</text>
</g>
<g id="clust3" class="cluster">
<title>cluster_faust</title>
<path fill="#2e1065" stroke="#7c3aed" d="M685.54,-41C685.54,-41 846.22,-41 846.22,-41 852.22,-41 858.22,-47 858.22,-53 858.22,-53 858.22,-415 858.22,-415 858.22,-421 852.22,-427 846.22,-427 846.22,-427 685.54,-427 685.54,-427 679.54,-427 673.54,-421 673.54,-415 673.54,-415 673.54,-53 673.54,-53 673.54,-47 679.54,-41 685.54,-41"/>
<text xml:space="preserve" text-anchor="middle" x="765.88" y="-412.55" font-family="Arial" font-size="11.00" fill="#c4b5fd">FAUST STREAM PROCESSORS</text>
</g>
<g id="clust4" class="cluster">
<title>cluster_sinks</title>
<path fill="#052e16" stroke="#059669" d="M954.72,-231C954.72,-231 1547.33,-231 1547.33,-231 1553.33,-231 1559.33,-237 1559.33,-243 1559.33,-243 1559.33,-340 1559.33,-340 1559.33,-346 1553.33,-352 1547.33,-352 1547.33,-352 954.72,-352 954.72,-352 948.72,-352 942.72,-346 942.72,-340 942.72,-340 942.72,-243 942.72,-243 942.72,-237 948.72,-231 954.72,-231"/>
<text xml:space="preserve" text-anchor="middle" x="1251.02" y="-337.55" font-family="Arial" font-size="11.00" fill="#6ee7b7">SINKS (потребители результатов)</text>
</g>
<!-- p_mds -->
<g id="node1" class="node">
<title>p_mds</title>
<ellipse fill="#1d4ed8" stroke="#60a5fa" cx="119.52" cy="-408" rx="73.57" ry="27.15"/>
<text xml:space="preserve" text-anchor="middle" x="119.52" y="-410.5" font-family="Arial" font-size="10.00" fill="#eff6ff">MDS Adapter</text>
<text xml:space="preserve" text-anchor="middle" x="119.52" y="-398.5" font-family="Arial" font-size="10.00" fill="#eff6ff">(REST poll, 1 min)</text>
</g>
<!-- t_raw -->
<g id="node4" class="node">
<title>t_raw</title>
<path fill="#3730a3" stroke="#818cf8" d="M500.56,-346.35C500.56,-349.83 477.24,-352.65 448.54,-352.65 419.84,-352.65 396.52,-349.83 396.52,-346.35 396.52,-346.35 396.52,-289.65 396.52,-289.65 396.52,-286.17 419.84,-283.35 448.54,-283.35 477.24,-283.35 500.56,-286.17 500.56,-289.65 500.56,-289.65 500.56,-346.35 500.56,-346.35"/>
<path fill="none" stroke="#818cf8" d="M500.56,-346.35C500.56,-342.87 477.24,-340.05 448.54,-340.05 419.84,-340.05 396.52,-342.87 396.52,-346.35"/>
<text xml:space="preserve" text-anchor="middle" x="448.54" y="-326.5" font-family="Arial" font-size="10.00" fill="#e0e7ff">Topic:</text>
<text xml:space="preserve" text-anchor="middle" x="448.54" y="-314.5" font-family="Arial" font-size="10.00" fill="#e0e7ff">pmd&#45;raw&#45;telemetry</text>
<text xml:space="preserve" text-anchor="middle" x="448.54" y="-302.5" font-family="Arial" font-size="10.00" fill="#e0e7ff">(retention: 7 days)</text>
</g>
<!-- p_mds&#45;&gt;t_raw -->
<g id="edge1" class="edge">
<title>p_mds&#45;&gt;t_raw</title>
<path fill="none" stroke="#94a3b8" stroke-width="1.4" d="M164.21,-385.99C254.11,-385.99 448.33,-385.99 448.33,-385.99 448.33,-385.99 448.33,-361.91 448.33,-361.91"/>
<polygon fill="#94a3b8" stroke="#94a3b8" stroke-width="1.4" points="450.78,-361.91 448.33,-354.91 445.88,-361.91 450.78,-361.91"/>
<text xml:space="preserve" text-anchor="middle" x="296.79" y="-406.45" font-family="Arial" font-size="9.00" fill="#94a3b8">JSON</text>
<text xml:space="preserve" text-anchor="middle" x="296.79" y="-395.95" font-family="Arial" font-size="9.00" fill="#94a3b8">events</text>
</g>
<!-- p_gbfs -->
<g id="node2" class="node">
<title>p_gbfs</title>
<ellipse fill="#1d4ed8" stroke="#60a5fa" cx="119.52" cy="-318" rx="69.32" ry="27.15"/>
<text xml:space="preserve" text-anchor="middle" x="119.52" y="-320.5" font-family="Arial" font-size="10.00" fill="#eff6ff">GBFS Consumer</text>
<text xml:space="preserve" text-anchor="middle" x="119.52" y="-308.5" font-family="Arial" font-size="10.00" fill="#eff6ff">(websocket)</text>
</g>
<!-- p_gbfs&#45;&gt;t_raw -->
<g id="edge2" class="edge">
<title>p_gbfs&#45;&gt;t_raw</title>
<path fill="none" stroke="#94a3b8" stroke-width="1.4" d="M189.3,-318C189.3,-318 387.01,-318 387.01,-318"/>
<polygon fill="#94a3b8" stroke="#94a3b8" stroke-width="1.4" points="387.01,-320.45 394.01,-318 387.01,-315.55 387.01,-320.45"/>
<text xml:space="preserve" text-anchor="middle" x="296.79" y="-330.45" font-family="Arial" font-size="9.00" fill="#94a3b8">availability</text>
<text xml:space="preserve" text-anchor="middle" x="296.79" y="-319.95" font-family="Arial" font-size="9.00" fill="#94a3b8">events</text>
</g>
<!-- p_mqtt -->
<g id="node3" class="node">
<title>p_mqtt</title>
<ellipse fill="#1d4ed8" stroke="#60a5fa" cx="119.52" cy="-228" rx="58.72" ry="27.15"/>
<text xml:space="preserve" text-anchor="middle" x="119.52" y="-230.5" font-family="Arial" font-size="10.00" fill="#eff6ff">MQTT Bridge</text>
<text xml:space="preserve" text-anchor="middle" x="119.52" y="-218.5" font-family="Arial" font-size="10.00" fill="#eff6ff">(IoT gateway)</text>
</g>
<!-- p_mqtt&#45;&gt;t_raw -->
<g id="edge3" class="edge">
<title>p_mqtt&#45;&gt;t_raw</title>
<path fill="none" stroke="#94a3b8" stroke-width="1.4" d="M151.05,-251.4C233.34,-251.4 448.33,-251.4 448.33,-251.4 448.33,-251.4 448.33,-274.02 448.33,-274.02"/>
<polygon fill="#94a3b8" stroke="#94a3b8" stroke-width="1.4" points="445.88,-274.02 448.33,-281.02 450.78,-274.02 445.88,-274.02"/>
<text xml:space="preserve" text-anchor="middle" x="296.79" y="-254.45" font-family="Arial" font-size="9.00" fill="#94a3b8">NMEA</text>
<text xml:space="preserve" text-anchor="middle" x="296.79" y="-243.95" font-family="Arial" font-size="9.00" fill="#94a3b8">telemetry</text>
</g>
<!-- f_norm -->
<g id="node7" class="node">
<title>f_norm</title>
<ellipse fill="#5b21b6" stroke="#a78bfa" cx="765.88" cy="-347" rx="62.43" ry="44.12"/>
<text xml:space="preserve" text-anchor="middle" x="765.88" y="-361.5" font-family="Arial" font-size="10.00" fill="#ede9fe">Normalizer</text>
<text xml:space="preserve" text-anchor="middle" x="765.88" y="-349.5" font-family="Arial" font-size="10.00" fill="#ede9fe">WGS&#45;84 norm.</text>
<text xml:space="preserve" text-anchor="middle" x="765.88" y="-337.5" font-family="Arial" font-size="10.00" fill="#ede9fe">сегментация</text>
<text xml:space="preserve" text-anchor="middle" x="765.88" y="-325.5" font-family="Arial" font-size="10.00" fill="#ede9fe">vᵢ = d/Δt</text>
</g>
<!-- t_raw&#45;&gt;f_norm -->
<g id="edge4" class="edge">
<title>t_raw&#45;&gt;f_norm</title>
<path fill="none" stroke="#94a3b8" stroke-width="1.4" d="M500.94,-336.06C500.94,-336.06 695.87,-336.06 695.87,-336.06"/>
<polygon fill="#94a3b8" stroke="#94a3b8" stroke-width="1.4" points="695.87,-338.51 702.87,-336.06 695.87,-333.61 695.87,-338.51"/>
<text xml:space="preserve" text-anchor="middle" x="615.54" y="-359.45" font-family="Arial" font-size="9.00" fill="#94a3b8">consume</text>
<text xml:space="preserve" text-anchor="middle" x="615.54" y="-348.95" font-family="Arial" font-size="9.00" fill="#94a3b8">group: normalizer</text>
</g>
<!-- t_norm -->
<g id="node5" class="node">
<title>t_norm</title>
<path fill="#3730a3" stroke="#818cf8" d="M502.06,-241.35C502.06,-244.83 478.07,-247.65 448.54,-247.65 419.01,-247.65 395.02,-244.83 395.02,-241.35 395.02,-241.35 395.02,-184.65 395.02,-184.65 395.02,-181.17 419.01,-178.35 448.54,-178.35 478.07,-178.35 502.06,-181.17 502.06,-184.65 502.06,-184.65 502.06,-241.35 502.06,-241.35"/>
<path fill="none" stroke="#818cf8" d="M502.06,-241.35C502.06,-237.87 478.07,-235.05 448.54,-235.05 419.01,-235.05 395.02,-237.87 395.02,-241.35"/>
<text xml:space="preserve" text-anchor="middle" x="448.54" y="-221.5" font-family="Arial" font-size="10.00" fill="#e0e7ff">Topic:</text>
<text xml:space="preserve" text-anchor="middle" x="448.54" y="-209.5" font-family="Arial" font-size="10.00" fill="#e0e7ff">pmd&#45;normalized</text>
<text xml:space="preserve" text-anchor="middle" x="448.54" y="-197.5" font-family="Arial" font-size="10.00" fill="#e0e7ff">(retention: 30 days)</text>
</g>
<!-- f_algA -->
<g id="node8" class="node">
<title>f_algA</title>
<ellipse fill="#5b21b6" stroke="#a78bfa" cx="765.88" cy="-99" rx="78.34" ry="44.12"/>
<text xml:space="preserve" text-anchor="middle" x="765.88" y="-113.5" font-family="Arial" font-size="10.00" fill="#ede9fe">Algo A Worker</text>
<text xml:space="preserve" text-anchor="middle" x="765.88" y="-101.5" font-family="Arial" font-size="10.00" fill="#ede9fe">Детектор опасного</text>
<text xml:space="preserve" text-anchor="middle" x="765.88" y="-89.5" font-family="Arial" font-size="10.00" fill="#ede9fe">вождения</text>
<text xml:space="preserve" text-anchor="middle" x="765.88" y="-77.5" font-family="Arial" font-size="10.00" fill="#ede9fe">|a|≥3.5 → DANGER</text>
</g>
<!-- t_norm&#45;&gt;f_algA -->
<g id="edge6" class="edge">
<title>t_norm&#45;&gt;f_algA</title>
<path fill="none" stroke="#94a3b8" stroke-width="1.4" d="M502.39,-196.07C575.01,-196.07 695.33,-196.07 695.33,-196.07 695.33,-196.07 695.33,-127.76 695.33,-127.76"/>
<polygon fill="#94a3b8" stroke="#94a3b8" stroke-width="1.4" points="697.78,-127.76 695.33,-120.76 692.88,-127.76 697.78,-127.76"/>
<text xml:space="preserve" text-anchor="middle" x="615.54" y="-173.45" font-family="Arial" font-size="9.00" fill="#94a3b8">consume</text>
<text xml:space="preserve" text-anchor="middle" x="615.54" y="-162.95" font-family="Arial" font-size="9.00" fill="#94a3b8">group: algo&#45;a</text>
</g>
<!-- f_algB -->
<g id="node9" class="node">
<title>f_algB</title>
<ellipse fill="#5b21b6" stroke="#a78bfa" cx="765.88" cy="-223" rx="67.2" ry="44.12"/>
<text xml:space="preserve" text-anchor="middle" x="765.88" y="-237.5" font-family="Arial" font-size="10.00" fill="#ede9fe">Algo B Worker</text>
<text xml:space="preserve" text-anchor="middle" x="765.88" y="-225.5" font-family="Arial" font-size="10.00" fill="#ede9fe">H3 агрегация</text>
<text xml:space="preserve" text-anchor="middle" x="765.88" y="-213.5" font-family="Arial" font-size="10.00" fill="#ede9fe">spatial join OSM</text>
<text xml:space="preserve" text-anchor="middle" x="765.88" y="-201.5" font-family="Arial" font-size="10.00" fill="#ede9fe">severity rank</text>
</g>
<!-- t_norm&#45;&gt;f_algB -->
<g id="edge7" class="edge">
<title>t_norm&#45;&gt;f_algB</title>
<path fill="none" stroke="#94a3b8" stroke-width="1.4" d="M502.37,-213.26C502.37,-213.26 690.82,-213.26 690.82,-213.26"/>
<polygon fill="#94a3b8" stroke="#94a3b8" stroke-width="1.4" points="690.82,-215.71 697.82,-213.26 690.82,-210.81 690.82,-215.71"/>
<text xml:space="preserve" text-anchor="middle" x="615.54" y="-235.45" font-family="Arial" font-size="9.00" fill="#94a3b8">consume</text>
<text xml:space="preserve" text-anchor="middle" x="615.54" y="-224.95" font-family="Arial" font-size="9.00" fill="#94a3b8">group: algo&#45;b</text>
</g>
<!-- t_alert -->
<g id="node6" class="node">
<title>t_alert</title>
<path fill="#4c1d95" stroke="#7c3aed" d="M502.06,-136.35C502.06,-139.83 478.07,-142.65 448.54,-142.65 419.01,-142.65 395.02,-139.83 395.02,-136.35 395.02,-136.35 395.02,-79.65 395.02,-79.65 395.02,-76.17 419.01,-73.35 448.54,-73.35 478.07,-73.35 502.06,-76.17 502.06,-79.65 502.06,-79.65 502.06,-136.35 502.06,-136.35"/>
<path fill="none" stroke="#7c3aed" d="M502.06,-136.35C502.06,-132.87 478.07,-130.05 448.54,-130.05 419.01,-130.05 395.02,-132.87 395.02,-136.35"/>
<text xml:space="preserve" text-anchor="middle" x="448.54" y="-116.5" font-family="Arial" font-size="10.00" fill="#ddd6fe">Topic:</text>
<text xml:space="preserve" text-anchor="middle" x="448.54" y="-104.5" font-family="Arial" font-size="10.00" fill="#ddd6fe">pmd&#45;alerts</text>
<text xml:space="preserve" text-anchor="middle" x="448.54" y="-92.5" font-family="Arial" font-size="10.00" fill="#ddd6fe">(retention: 90 days)</text>
</g>
<!-- s_cup -->
<g id="node12" class="node">
<title>s_cup</title>
<ellipse fill="#064e3b" stroke="#34d399" cx="1475.47" cy="-281" rx="69.86" ry="35.64"/>
<text xml:space="preserve" text-anchor="middle" x="1475.47" y="-289.5" font-family="Arial" font-size="10.00" fill="#d1fae5">ЦУП Dashboard</text>
<text xml:space="preserve" text-anchor="middle" x="1475.47" y="-277.5" font-family="Arial" font-size="10.00" fill="#d1fae5">(React + deck.gl)</text>
<text xml:space="preserve" text-anchor="middle" x="1475.47" y="-265.5" font-family="Arial" font-size="10.00" fill="#d1fae5">real&#45;time alerts</text>
</g>
<!-- t_alert&#45;&gt;s_cup -->
<g id="edge13" class="edge">
<title>t_alert&#45;&gt;s_cup</title>
<path fill="none" stroke="#94a3b8" stroke-width="1.4" d="M448.33,-142.88C448.33,-152.69 448.33,-160.74 448.33,-160.74 448.33,-160.74 1475.33,-160.74 1475.33,-160.74 1475.33,-160.74 1475.33,-235.8 1475.33,-235.8"/>
<polygon fill="#94a3b8" stroke="#94a3b8" stroke-width="1.4" points="1472.88,-235.8 1475.33,-242.8 1477.78,-235.8 1472.88,-235.8"/>
<text xml:space="preserve" text-anchor="middle" x="996.37" y="-12.45" font-family="Arial" font-size="9.00" fill="#94a3b8">push</text>
<text xml:space="preserve" text-anchor="middle" x="996.37" y="-1.95" font-family="Arial" font-size="9.00" fill="#94a3b8">alerts</text>
</g>
<!-- f_norm&#45;&gt;t_norm -->
<g id="edge5" class="edge">
<title>f_norm&#45;&gt;t_norm</title>
<path fill="none" stroke="#94a3b8" stroke-width="1.4" d="M716.57,-319.47C702.7,-319.47 691.33,-319.47 691.33,-319.47 691.33,-319.47 691.33,-230.46 691.33,-230.46 691.33,-230.46 511.54,-230.46 511.54,-230.46"/>
<polygon fill="#94a3b8" stroke="#94a3b8" stroke-width="1.4" points="511.54,-228.01 504.54,-230.46 511.54,-232.91 511.54,-228.01"/>
<text xml:space="preserve" text-anchor="middle" x="615.54" y="-297.45" font-family="Arial" font-size="9.00" fill="#94a3b8">produce</text>
<text xml:space="preserve" text-anchor="middle" x="615.54" y="-286.95" font-family="Arial" font-size="9.00" fill="#94a3b8">norm. events</text>
</g>
<!-- f_algA&#45;&gt;t_alert -->
<g id="edge8" class="edge">
<title>f_algA&#45;&gt;t_alert</title>
<path fill="none" stroke="#94a3b8" stroke-width="1.4" d="M689.06,-108C689.06,-108 511.42,-108 511.42,-108"/>
<polygon fill="#94a3b8" stroke="#94a3b8" stroke-width="1.4" points="511.42,-105.55 504.42,-108 511.42,-110.45 511.42,-105.55"/>
<text xml:space="preserve" text-anchor="middle" x="615.54" y="-111.45" font-family="Arial" font-size="9.00" fill="#94a3b8">produce</text>
<text xml:space="preserve" text-anchor="middle" x="615.54" y="-100.95" font-family="Arial" font-size="9.00" fill="#94a3b8">DANGER events</text>
</g>
<!-- s_postgis -->
<g id="node10" class="node">
<title>s_postgis</title>
<path fill="#065f46" stroke="#34d399" d="M1036.01,-310.35C1036.01,-313.83 1018.24,-316.65 996.37,-316.65 974.49,-316.65 956.72,-313.83 956.72,-310.35 956.72,-310.35 956.72,-253.65 956.72,-253.65 956.72,-250.17 974.49,-247.35 996.37,-247.35 1018.24,-247.35 1036.01,-250.17 1036.01,-253.65 1036.01,-253.65 1036.01,-310.35 1036.01,-310.35"/>
<path fill="none" stroke="#34d399" d="M1036.01,-310.35C1036.01,-306.87 1018.24,-304.05 996.37,-304.05 974.49,-304.05 956.72,-306.87 956.72,-310.35"/>
<text xml:space="preserve" text-anchor="middle" x="996.37" y="-290.5" font-family="Arial" font-size="10.00" fill="#d1fae5">PostGIS</text>
<text xml:space="preserve" text-anchor="middle" x="996.37" y="-278.5" font-family="Arial" font-size="10.00" fill="#d1fae5">(геоиндексы</text>
<text xml:space="preserve" text-anchor="middle" x="996.37" y="-266.5" font-family="Arial" font-size="10.00" fill="#d1fae5">GIST)</text>
</g>
<!-- f_algA&#45;&gt;s_postgis -->
<g id="edge9" class="edge">
<title>f_algA&#45;&gt;s_postgis</title>
<path fill="none" stroke="#94a3b8" stroke-width="1.4" d="M838.33,-116.47C838.33,-156.99 838.33,-253.94 838.33,-253.94 838.33,-253.94 947.37,-253.94 947.37,-253.94"/>
<polygon fill="#94a3b8" stroke="#94a3b8" stroke-width="1.4" points="947.37,-256.39 954.37,-253.94 947.37,-251.49 947.37,-256.39"/>
<text xml:space="preserve" text-anchor="middle" x="900.47" y="-165.45" font-family="Arial" font-size="9.00" fill="#94a3b8">upsert</text>
<text xml:space="preserve" text-anchor="middle" x="900.47" y="-154.95" font-family="Arial" font-size="9.00" fill="#94a3b8">segments</text>
</g>
<!-- s_geojson -->
<g id="node11" class="node">
<title>s_geojson</title>
<ellipse fill="#064e3b" stroke="#34d399" cx="1230.56" cy="-281" rx="82.05" ry="35.64"/>
<text xml:space="preserve" text-anchor="middle" x="1230.56" y="-289.5" font-family="Arial" font-size="10.00" fill="#d1fae5">GeoJSON</text>
<text xml:space="preserve" text-anchor="middle" x="1230.56" y="-277.5" font-family="Arial" font-size="10.00" fill="#d1fae5">Статические файлы</text>
<text xml:space="preserve" text-anchor="middle" x="1230.56" y="-265.5" font-family="Arial" font-size="10.00" fill="#d1fae5">→ frontend</text>
</g>
<!-- f_algA&#45;&gt;s_geojson -->
<g id="edge10" class="edge">
<title>f_algA&#45;&gt;s_geojson</title>
<path fill="none" stroke="#94a3b8" stroke-width="1.4" d="M844.59,-99C970.54,-99 1203.33,-99 1203.33,-99 1203.33,-99 1203.33,-238.07 1203.33,-238.07"/>
<polygon fill="#94a3b8" stroke="#94a3b8" stroke-width="1.4" points="1200.88,-238.07 1203.33,-245.07 1205.78,-238.07 1200.88,-238.07"/>
<text xml:space="preserve" text-anchor="middle" x="996.37" y="-94.95" font-family="Arial" font-size="9.00" fill="#94a3b8">export</text>
</g>
<!-- f_algB&#45;&gt;s_postgis -->
<g id="edge11" class="edge">
<title>f_algB&#45;&gt;s_postgis</title>
<path fill="none" stroke="#94a3b8" stroke-width="1.4" d="M802.4,-260.53C802.4,-260.53 947.42,-260.53 947.42,-260.53"/>
<polygon fill="#94a3b8" stroke="#94a3b8" stroke-width="1.4" points="947.42,-262.98 954.42,-260.53 947.42,-258.08 947.42,-262.98"/>
<text xml:space="preserve" text-anchor="middle" x="900.47" y="-286.45" font-family="Arial" font-size="9.00" fill="#94a3b8">upsert</text>
<text xml:space="preserve" text-anchor="middle" x="900.47" y="-275.95" font-family="Arial" font-size="9.00" fill="#94a3b8">hexagons</text>
</g>
<!-- f_algB&#45;&gt;s_geojson -->
<g id="edge12" class="edge">
<title>f_algB&#45;&gt;s_geojson</title>
<path fill="none" stroke="#94a3b8" stroke-width="1.4" d="M831.53,-212.12C965.6,-212.12 1258.33,-212.12 1258.33,-212.12 1258.33,-212.12 1258.33,-238.25 1258.33,-238.25"/>
<polygon fill="#94a3b8" stroke="#94a3b8" stroke-width="1.4" points="1255.88,-238.25 1258.33,-245.25 1260.78,-238.25 1255.88,-238.25"/>
<text xml:space="preserve" text-anchor="middle" x="996.37" y="-202.45" font-family="Arial" font-size="9.00" fill="#94a3b8">export</text>
<text xml:space="preserve" text-anchor="middle" x="996.37" y="-191.95" font-family="Arial" font-size="9.00" fill="#94a3b8">blind_spots</text>
</g>
<!-- s_postgis&#45;&gt;s_geojson -->
<g id="edge14" class="edge">
<title>s_postgis&#45;&gt;s_geojson</title>
<path fill="none" stroke="#94a3b8" stroke-width="1.4" stroke-dasharray="5,2" d="M1036.36,-281.99C1036.36,-281.99 1139.38,-281.99 1139.38,-281.99"/>
<polygon fill="#94a3b8" stroke="#94a3b8" stroke-width="1.4" points="1139.38,-284.44 1146.38,-281.99 1139.38,-279.54 1139.38,-284.44"/>
<text xml:space="preserve" text-anchor="middle" x="1092.26" y="-293.45" font-family="Arial" font-size="9.00" fill="#94a3b8">nightly</text>
<text xml:space="preserve" text-anchor="middle" x="1092.26" y="-282.95" font-family="Arial" font-size="9.00" fill="#94a3b8">export job</text>
</g>
<!-- s_geojson&#45;&gt;s_cup -->
<g id="edge15" class="edge">
<title>s_geojson&#45;&gt;s_cup</title>
<path fill="none" stroke="#94a3b8" stroke-width="1.4" d="M1312.8,-281C1312.8,-281 1396.2,-281 1396.2,-281"/>
<polygon fill="#94a3b8" stroke="#94a3b8" stroke-width="1.4" points="1396.2,-283.45 1403.2,-281 1396.2,-278.55 1396.2,-283.45"/>
<text xml:space="preserve" text-anchor="middle" x="1359.12" y="-293.45" font-family="Arial" font-size="9.00" fill="#94a3b8">static</text>
<text xml:space="preserve" text-anchor="middle" x="1359.12" y="-282.95" font-family="Arial" font-size="9.00" fill="#94a3b8">files</text>
</g>
<!-- schema -->
<g id="node13" class="node">
<title>schema</title>
<polygon fill="#1e1b4b" stroke="#6366f1" points="233.04,-614.95 0,-614.95 0,-485.05 239.04,-485.05 239.04,-608.95 233.04,-614.95"/>
<polyline fill="none" stroke="#6366f1" points="233.04,-614.95 233.04,-608.95"/>
<polyline fill="none" stroke="#6366f1" points="239.04,-608.95 233.04,-608.95"/>
<text xml:space="preserve" text-anchor="middle" x="119.52" y="-599.2" font-family="Arial" font-size="9.00" fill="#a5b4fc">Схема события (pmd&#45;normalized):</text>
<text xml:space="preserve" text-anchor="middle" x="119.52" y="-588.7" font-family="Arial" font-size="9.00" fill="#a5b4fc">────────────────────────────────</text>
<text xml:space="preserve" text-anchor="middle" x="119.52" y="-578.2" font-family="Arial" font-size="9.00" fill="#a5b4fc">{</text>
<text xml:space="preserve" text-anchor="middle" x="119.52" y="-567.7" font-family="Arial" font-size="9.00" fill="#a5b4fc"> &#160;trip_id: &#160;&#160;&#160;string (UUID)</text>
<text xml:space="preserve" text-anchor="middle" x="119.52" y="-557.2" font-family="Arial" font-size="9.00" fill="#a5b4fc"> &#160;timestamp: &#160;int64 (Unix ms)</text>
<text xml:space="preserve" text-anchor="middle" x="119.52" y="-546.7" font-family="Arial" font-size="9.00" fill="#a5b4fc"> &#160;lon, lat: &#160;&#160;float64 (WGS&#45;84)</text>
<text xml:space="preserve" text-anchor="middle" x="119.52" y="-536.2" font-family="Arial" font-size="9.00" fill="#a5b4fc"> &#160;speed_ms: &#160;&#160;float32</text>
<text xml:space="preserve" text-anchor="middle" x="119.52" y="-525.7" font-family="Arial" font-size="9.00" fill="#a5b4fc"> &#160;accel_ms2: &#160;float32</text>
<text xml:space="preserve" text-anchor="middle" x="119.52" y="-515.2" font-family="Arial" font-size="9.00" fill="#a5b4fc"> &#160;label: &#160;&#160;&#160;&#160;&#160;enum {SAFE,WARN,DANGER}</text>
<text xml:space="preserve" text-anchor="middle" x="119.52" y="-504.7" font-family="Arial" font-size="9.00" fill="#a5b4fc"> &#160;h3_cell: &#160;&#160;&#160;string (res=9)</text>
<text xml:space="preserve" text-anchor="middle" x="119.52" y="-494.2" font-family="Arial" font-size="9.00" fill="#a5b4fc">}</text>
</g>
</g>
</svg>
