<?xml version="1.0" encoding="UTF-8" standalone="no"?>
<!DOCTYPE svg PUBLIC "-//W3C//DTD SVG 1.1//EN"
 "http://www.w3.org/Graphics/SVG/1.1/DTD/svg11.dtd">
<!-- Generated by graphviz version 14.1.5 (20260411.2331)
 -->
<!-- Title: SystemContext Pages: 1 -->
<svg width="1068pt" height="689pt"
 viewBox="0.00 0.00 1068.00 689.00" xmlns="http://www.w3.org/2000/svg" xmlns:xlink="http://www.w3.org/1999/xlink">
<g id="graph0" class="graph" transform="scale(1 1) rotate(0) translate(57.6 631.6)">
<title>SystemContext</title>
<polygon fill="#0f1117" stroke="none" points="-57.6,57.6 -57.6,-631.6 1009.95,-631.6 1009.95,57.6 -57.6,57.6"/>
<text xml:space="preserve" text-anchor="middle" x="476.17" y="-533.85" font-family="Arial" font-size="17.00" fill="#e2e8f0">КОНТЕКСТНАЯ ДИАГРАММА СИСТЕМЫ</text>
<text xml:space="preserve" text-anchor="middle" x="476.17" y="-514.35" font-family="Arial" font-size="17.00" fill="#e2e8f0">(Диаграмма 1 из 9)</text>
<!-- platform -->
<g id="node1" class="node">
<title>platform</title>
<path fill="#312e81" stroke="#818cf8" d="M543.3,-258.42C543.3,-258.42 351.3,-258.42 351.3,-258.42 345.3,-258.42 339.3,-252.42 339.3,-246.42 339.3,-246.42 339.3,-126.42 339.3,-126.42 339.3,-120.42 345.3,-114.42 351.3,-114.42 351.3,-114.42 543.3,-114.42 543.3,-114.42 549.3,-114.42 555.3,-120.42 555.3,-126.42 555.3,-126.42 555.3,-246.42 555.3,-246.42 555.3,-252.42 549.3,-258.42 543.3,-258.42"/>
<text xml:space="preserve" text-anchor="middle" x="447.3" y="-223.22" font-family="Arial" font-size="11.00" fill="#e0e7ff">ПЛАТФОРМА</text>
<text xml:space="preserve" text-anchor="middle" x="447.3" y="-209.72" font-family="Arial" font-size="11.00" fill="#e0e7ff">ГЕОАНАЛИТИКИ ПМД</text>
<text xml:space="preserve" text-anchor="middle" x="447.3" y="-196.22" font-family="Arial" font-size="11.00" fill="#e0e7ff">──────────────────</text>
<text xml:space="preserve" text-anchor="middle" x="447.3" y="-182.72" font-family="Arial" font-size="11.00" fill="#e0e7ff">Сбор телеметрии</text>
<text xml:space="preserve" text-anchor="middle" x="447.3" y="-169.22" font-family="Arial" font-size="11.00" fill="#e0e7ff">Детекция опасных событий</text>
<text xml:space="preserve" text-anchor="middle" x="447.3" y="-155.72" font-family="Arial" font-size="11.00" fill="#e0e7ff">Классификация слепых зон</text>
<text xml:space="preserve" text-anchor="middle" x="447.3" y="-142.22" font-family="Arial" font-size="11.00" fill="#e0e7ff">ЦУП&#45;дашборд</text>
</g>
<!-- cup -->
<g id="node6" class="node">
<title>cup</title>
<path fill="#064e3b" stroke="#34d399" d="M918.22,-307C918.22,-307 808.42,-307 808.42,-307 802.42,-307 796.42,-301 796.42,-295 796.42,-295 796.42,-271.84 796.42,-271.84 796.42,-265.84 802.42,-259.84 808.42,-259.84 808.42,-259.84 918.22,-259.84 918.22,-259.84 924.22,-259.84 930.22,-265.84 930.22,-271.84 930.22,-271.84 930.22,-295 930.22,-295 930.22,-301 924.22,-307 918.22,-307"/>
<text xml:space="preserve" text-anchor="middle" x="863.32" y="-286.47" font-family="Arial" font-size="11.00" fill="#d1fae5">ЦУП&#45;оператор</text>
<text xml:space="preserve" text-anchor="middle" x="863.32" y="-272.97" font-family="Arial" font-size="11.00" fill="#d1fae5">(служба транспорта)</text>
</g>
<!-- platform&#45;&gt;cup -->
<g id="edge5" class="edge">
<title>platform&#45;&gt;cup</title>
<path fill="none" stroke="#94a3b8" stroke-width="1.5" d="M555.73,-211.59C628.09,-228.54 721.75,-250.49 786.42,-265.64"/>
<polygon fill="#94a3b8" stroke="#94a3b8" stroke-width="1.5" points="785.5,-268.3 793.93,-267.4 786.78,-262.85 785.5,-268.3"/>
<text xml:space="preserve" text-anchor="middle" x="664.8" y="-263.78" font-family="Arial" font-size="10.00" fill="#94a3b8">Интерактивная карта</text>
<text xml:space="preserve" text-anchor="middle" x="664.8" y="-251.78" font-family="Arial" font-size="10.00" fill="#94a3b8">(deck.gl дашборд)</text>
</g>
<!-- plan -->
<g id="node7" class="node">
<title>plan</title>
<path fill="#064e3b" stroke="#34d399" d="M940.35,-210C940.35,-210 786.3,-210 786.3,-210 780.3,-210 774.3,-204 774.3,-198 774.3,-198 774.3,-174.84 774.3,-174.84 774.3,-168.84 780.3,-162.84 786.3,-162.84 786.3,-162.84 940.35,-162.84 940.35,-162.84 946.35,-162.84 952.35,-168.84 952.35,-174.84 952.35,-174.84 952.35,-198 952.35,-198 952.35,-204 946.35,-210 940.35,-210"/>
<text xml:space="preserve" text-anchor="middle" x="863.32" y="-189.47" font-family="Arial" font-size="11.00" fill="#d1fae5">Городской планировщик</text>
<text xml:space="preserve" text-anchor="middle" x="863.32" y="-175.97" font-family="Arial" font-size="11.00" fill="#d1fae5">(комитет по инфраструктуре)</text>
</g>
<!-- platform&#45;&gt;plan -->
<g id="edge6" class="edge">
<title>platform&#45;&gt;plan</title>
<path fill="none" stroke="#94a3b8" stroke-width="1.5" d="M555.73,-186.42C620.09,-186.42 701.32,-186.42 763.99,-186.42"/>
<polygon fill="#94a3b8" stroke="#94a3b8" stroke-width="1.5" points="763.61,-189.22 771.61,-186.42 763.61,-183.62 763.61,-189.22"/>
<text xml:space="preserve" text-anchor="middle" x="664.8" y="-200.92" font-family="Arial" font-size="10.00" fill="#94a3b8">Отчёт: топ&#45;10 слепых зон</text>
<text xml:space="preserve" text-anchor="middle" x="664.8" y="-188.92" font-family="Arial" font-size="10.00" fill="#94a3b8">JSON / PDF</text>
</g>
<!-- admin -->
<g id="node8" class="node">
<title>admin</title>
<path fill="#1e3a5f" stroke="#2563eb" d="M904.72,-113C904.72,-113 821.92,-113 821.92,-113 815.92,-113 809.92,-107 809.92,-101 809.92,-101 809.92,-77.84 809.92,-77.84 809.92,-71.84 815.92,-65.84 821.92,-65.84 821.92,-65.84 904.72,-65.84 904.72,-65.84 910.72,-65.84 916.72,-71.84 916.72,-77.84 916.72,-77.84 916.72,-101 916.72,-101 916.72,-107 910.72,-113 904.72,-113"/>
<text xml:space="preserve" text-anchor="middle" x="863.32" y="-92.47" font-family="Arial" font-size="11.00" fill="#93c5fd">Системный</text>
<text xml:space="preserve" text-anchor="middle" x="863.32" y="-78.97" font-family="Arial" font-size="11.00" fill="#93c5fd">администратор</text>
</g>
<!-- platform&#45;&gt;admin -->
<g id="edge7" class="edge">
<title>platform&#45;&gt;admin</title>
<path fill="none" stroke="#94a3b8" stroke-width="1.5" stroke-dasharray="5,2" d="M555.73,-161.25C633.33,-143.07 735.44,-119.15 799.99,-104.03"/>
<polygon fill="#94a3b8" stroke="#94a3b8" stroke-width="1.5" points="800.27,-106.84 807.42,-102.29 798.99,-101.38 800.27,-106.84"/>
<text xml:space="preserve" text-anchor="middle" x="664.8" y="-161.11" font-family="Arial" font-size="10.00" fill="#94a3b8">Логи / мониторинг</text>
<text xml:space="preserve" text-anchor="middle" x="664.8" y="-149.11" font-family="Arial" font-size="10.00" fill="#94a3b8">Grafana / Kafka UI</text>
</g>
<!-- bolt -->
<g id="node2" class="node">
<title>bolt</title>
<path fill="#374151" stroke="#6b7280" d="M122.92,-356C122.92,-356 17.62,-356 17.62,-356 11.62,-356 5.62,-350 5.62,-344 5.62,-344 5.62,-320.84 5.62,-320.84 5.62,-314.84 11.62,-308.84 17.62,-308.84 17.62,-308.84 122.92,-308.84 122.92,-308.84 128.92,-308.84 134.92,-314.84 134.92,-320.84 134.92,-320.84 134.92,-344 134.92,-344 134.92,-350 128.92,-356 122.92,-356"/>
<text xml:space="preserve" text-anchor="middle" x="70.27" y="-335.47" font-family="Arial" font-size="11.00" fill="#f9fafb">Bolt</text>
<text xml:space="preserve" text-anchor="middle" x="70.27" y="-321.97" font-family="Arial" font-size="11.00" fill="#f9fafb">(оператор шеринга)</text>
</g>
<!-- bolt&#45;&gt;platform -->
<g id="edge1" class="edge">
<title>bolt&#45;&gt;platform</title>
<path fill="none" stroke="#94a3b8" stroke-width="1.5" d="M135.34,-311.03C178.79,-296.19 237.36,-275.55 288.3,-255.42 301.89,-250.05 316.04,-244.22 330.04,-238.3"/>
<polygon fill="#94a3b8" stroke="#94a3b8" stroke-width="1.5" points="330.86,-241 337.12,-235.29 328.67,-235.84 330.86,-241"/>
<text xml:space="preserve" text-anchor="middle" x="239.92" y="-305.23" font-family="Arial" font-size="10.00" fill="#94a3b8">MDS Trip API</text>
<text xml:space="preserve" text-anchor="middle" x="239.92" y="-293.23" font-family="Arial" font-size="10.00" fill="#94a3b8">HTTPS / JSON</text>
</g>
<!-- whoosh -->
<g id="node3" class="node">
<title>whoosh</title>
<path fill="#374151" stroke="#6b7280" d="M122.92,-259C122.92,-259 17.62,-259 17.62,-259 11.62,-259 5.62,-253 5.62,-247 5.62,-247 5.62,-223.84 5.62,-223.84 5.62,-217.84 11.62,-211.84 17.62,-211.84 17.62,-211.84 122.92,-211.84 122.92,-211.84 128.92,-211.84 134.92,-217.84 134.92,-223.84 134.92,-223.84 134.92,-247 134.92,-247 134.92,-253 128.92,-259 122.92,-259"/>
<text xml:space="preserve" text-anchor="middle" x="70.27" y="-238.47" font-family="Arial" font-size="11.00" fill="#f9fafb">Whoosh</text>
<text xml:space="preserve" text-anchor="middle" x="70.27" y="-224.97" font-family="Arial" font-size="11.00" fill="#f9fafb">(оператор шеринга)</text>
</g>
<!-- whoosh&#45;&gt;platform -->
<g id="edge2" class="edge">
<title>whoosh&#45;&gt;platform</title>
<path fill="none" stroke="#94a3b8" stroke-width="1.5" d="M135.32,-227.05C188.24,-220.14 264.78,-210.14 328.68,-201.79"/>
<polygon fill="#94a3b8" stroke="#94a3b8" stroke-width="1.5" points="329,-204.57 336.57,-200.76 328.28,-199.02 329,-204.57"/>
<text xml:space="preserve" text-anchor="middle" x="239.92" y="-234.07" font-family="Arial" font-size="10.00" fill="#94a3b8">GBFS 2.3 Feed</text>
<text xml:space="preserve" text-anchor="middle" x="239.92" y="-222.07" font-family="Arial" font-size="10.00" fill="#94a3b8">HTTPS / JSON</text>
</g>
<!-- iot -->
<g id="node4" class="node">
<title>iot</title>
<path fill="#374151" stroke="#6b7280" d="M118.8,-162C118.8,-162 21.75,-162 21.75,-162 15.75,-162 9.75,-156 9.75,-150 9.75,-150 9.75,-126.84 9.75,-126.84 9.75,-120.84 15.75,-114.84 21.75,-114.84 21.75,-114.84 118.8,-114.84 118.8,-114.84 124.8,-114.84 130.8,-120.84 130.8,-126.84 130.8,-126.84 130.8,-150 130.8,-150 130.8,-156 124.8,-162 118.8,-162"/>
<text xml:space="preserve" text-anchor="middle" x="70.27" y="-141.47" font-family="Arial" font-size="11.00" fill="#f9fafb">IoT GPS&#45;модуль</text>
<text xml:space="preserve" text-anchor="middle" x="70.27" y="-127.97" font-family="Arial" font-size="11.00" fill="#f9fafb">(устройство СИМ)</text>
</g>
<!-- iot&#45;&gt;platform -->
<g id="edge3" class="edge">
<title>iot&#45;&gt;platform</title>
<path fill="none" stroke="#94a3b8" stroke-width="1.5" d="M130.96,-138.57C174.71,-139.38 235.44,-141.96 288.3,-149.42 301.54,-151.29 315.31,-153.74 328.95,-156.49"/>
<polygon fill="#94a3b8" stroke="#94a3b8" stroke-width="1.5" points="328.22,-159.2 336.62,-158.08 329.36,-153.72 328.22,-159.2"/>
<text xml:space="preserve" text-anchor="middle" x="239.92" y="-163.92" font-family="Arial" font-size="10.00" fill="#94a3b8">MQTT / NMEA</text>
<text xml:space="preserve" text-anchor="middle" x="239.92" y="-151.92" font-family="Arial" font-size="10.00" fill="#94a3b8">прямое подключение</text>
</g>
<!-- osm -->
<g id="node5" class="node">
<title>osm</title>
<path fill="#374151" stroke="#6b7280" d="M136.8,-58.95C136.8,-62.2 106.98,-64.84 70.27,-64.84 33.57,-64.84 3.75,-62.2 3.75,-58.95 3.75,-58.95 3.75,-5.89 3.75,-5.89 3.75,-2.64 33.57,0 70.27,0 106.98,0 136.8,-2.64 136.8,-5.89 136.8,-5.89 136.8,-58.95 136.8,-58.95"/>
<path fill="none" stroke="#6b7280" d="M136.8,-58.95C136.8,-55.7 106.98,-53.06 70.27,-53.06 33.57,-53.06 3.75,-55.7 3.75,-58.95"/>
<text xml:space="preserve" text-anchor="middle" x="70.27" y="-35.47" font-family="Arial" font-size="11.00" fill="#f9fafb">OpenStreetMap</text>
<text xml:space="preserve" text-anchor="middle" x="70.27" y="-21.97" font-family="Arial" font-size="11.00" fill="#f9fafb">(граф дорог Минска)</text>
</g>
<!-- osm&#45;&gt;platform -->
<g id="edge4" class="edge">
<title>osm&#45;&gt;platform</title>
<path fill="none" stroke="#94a3b8" stroke-width="1.5" stroke-dasharray="5,2" d="M136.84,-51.21C180.42,-64.41 238.56,-83.42 288.3,-104.42 301.96,-110.19 316.06,-116.68 329.94,-123.41"/>
<polygon fill="#94a3b8" stroke="#94a3b8" stroke-width="1.5" points="328.57,-125.86 336.98,-126.87 331.03,-120.83 328.57,-125.86"/>
<text xml:space="preserve" text-anchor="middle" x="239.92" y="-118.92" font-family="Arial" font-size="10.00" fill="#94a3b8">GraphML</text>
<text xml:space="preserve" text-anchor="middle" x="239.92" y="-106.92" font-family="Arial" font-size="10.00" fill="#94a3b8">PBF&#45;снимок</text>
</g>
<!-- standards -->
<g id="node9" class="node">
<title>standards</title>
<polygon fill="#1e1b4b" stroke="#6366f1" points="134.55,-507 0,-507 0,-405.84 140.55,-405.84 140.55,-501 134.55,-507"/>
<polyline fill="none" stroke="#6366f1" points="134.55,-507 134.55,-501"/>
<polyline fill="none" stroke="#6366f1" points="140.55,-501 134.55,-501"/>
<text xml:space="preserve" text-anchor="middle" x="70.27" y="-486.47" font-family="Arial" font-size="11.00" fill="#a5b4fc">Стандарты обмена:</text>
<text xml:space="preserve" text-anchor="middle" x="70.27" y="-472.97" font-family="Arial" font-size="11.00" fill="#a5b4fc">MDS Provider API v1.1</text>
<text xml:space="preserve" text-anchor="middle" x="70.27" y="-459.47" font-family="Arial" font-size="11.00" fill="#a5b4fc">GBFS 2.3</text>
<text xml:space="preserve" text-anchor="middle" x="70.27" y="-445.97" font-family="Arial" font-size="11.00" fill="#a5b4fc">NMEA 0183 / GPX</text>
<text xml:space="preserve" text-anchor="middle" x="70.27" y="-432.47" font-family="Arial" font-size="11.00" fill="#a5b4fc">GeoJSON RFC 7946</text>
<text xml:space="preserve" text-anchor="middle" x="70.27" y="-418.97" font-family="Arial" font-size="11.00" fill="#a5b4fc">H3 (Uber, resolution 9)</text>
</g>
</g>
</svg>
